<?xml version="1.0" encoding="UTF-8"?><svg xmlns="http://www.w3.org/2000/svg" xmlns:xlink="http://www.w3.org/1999/xlink" fill-opacity="1" color-rendering="auto" color-interpolation="auto" text-rendering="auto" stroke="black" stroke-linecap="square" width="713" stroke-miterlimit="10" shape-rendering="auto" stroke-opacity="1" fill="black" stroke-dasharray="none" font-weight="normal" stroke-width="1" height="707" font-family="'Dialog'" font-style="normal" stroke-linejoin="miter" font-size="12px" stroke-dashoffset="0" image-rendering="auto">
  <!--Generated by ySVG 2.5-->
  <defs id="genericDefs"/>
  <g>
    <defs id="defs1">
      <clipPath clipPathUnits="userSpaceOnUse" id="clipPath1">
        <path d="M0 0 L713 0 L713 707 L0 707 L0 0 Z"/>
      </clipPath>
      <clipPath clipPathUnits="userSpaceOnUse" id="clipPath2">
        <path d="M248 -107 L961 -107 L961 600 L248 600 L248 -107 Z"/>
      </clipPath>
      <clipPath clipPathUnits="userSpaceOnUse" id="clipPath3">
        <path d="M263 127 L263 472 L455 472 L455 127 Z"/>
      </clipPath>
      <clipPath clipPathUnits="userSpaceOnUse" id="clipPath4">
        <path d="M482 405 L482 583 L625 583 L625 405 Z"/>
      </clipPath>
      <clipPath clipPathUnits="userSpaceOnUse" id="clipPath5">
        <path d="M708 159 L708 320 L851 320 L851 159 Z"/>
      </clipPath>
      <clipPath clipPathUnits="userSpaceOnUse" id="clipPath6">
        <path d="M650 399 L650 437 L745 437 L745 399 Z"/>
      </clipPath>
      <clipPath clipPathUnits="userSpaceOnUse" id="clipPath7">
        <path d="M773 399 L773 437 L945 437 L945 399 Z"/>
      </clipPath>
      <clipPath clipPathUnits="userSpaceOnUse" id="clipPath8">
        <path d="M498 -91 L498 -53 L641 -53 L641 -91 Z"/>
      </clipPath>
      <clipPath clipPathUnits="userSpaceOnUse" id="clipPath9">
        <path d="M288 23 L288 61 L431 61 L431 23 Z"/>
      </clipPath>
      <clipPath clipPathUnits="userSpaceOnUse" id="clipPath10">
        <path d="M708 21 L708 59 L851 59 L851 21 Z"/>
      </clipPath>
    </defs>
    <g fill="white" text-rendering="geometricPrecision" shape-rendering="geometricPrecision" transform="translate(-248,107)" stroke="white">
      <rect x="248" width="713" height="707" y="-107" clip-path="url(#clipPath2)" stroke="none"/>
    </g>
    <g fill="rgb(255,204,153)" text-rendering="geometricPrecision" shape-rendering="geometricPrecision" transform="matrix(1,0,0,1,-248,107)" stroke="rgb(255,204,153)">
      <rect x="264" width="190" height="343" y="128" clip-path="url(#clipPath2)" stroke="none"/>
      <rect x="263" y="127" clip-path="url(#clipPath2)" fill="rgb(255,255,218)" width="1" height="345" stroke="none"/>
      <rect x="264" y="127" clip-path="url(#clipPath2)" fill="rgb(255,255,218)" width="190" height="1" stroke="none"/>
      <rect x="264" y="471" clip-path="url(#clipPath2)" fill="rgb(178,142,107)" width="191" height="1" stroke="none"/>
      <rect x="454" y="127" clip-path="url(#clipPath2)" fill="rgb(178,142,107)" width="1" height="344" stroke="none"/>
    </g>
    <g font-size="13px" stroke-linecap="butt" transform="matrix(1,0,0,1,-248,107)" text-rendering="geometricPrecision" font-family="sans-serif" shape-rendering="geometricPrecision" font-weight="bold" stroke-miterlimit="1.45">
      <text x="335.9456" xml:space="preserve" y="144.6517" clip-path="url(#clipPath3)" stroke="none">Athlete</text>
    </g>
    <g text-rendering="geometricPrecision" shape-rendering="geometricPrecision" transform="matrix(1,0,0,1,-248,107)">
      <line y2="152" fill="none" x1="264" clip-path="url(#clipPath3)" x2="455" y1="152"/>
      <text stroke-linecap="butt" x="268.75" y="168.9954" clip-path="url(#clipPath3)" font-family="sans-serif" stroke="none" stroke-miterlimit="1.45" xml:space="preserve">identifier: Text</text>
      <text stroke-linecap="butt" x="268.75" y="183.1283" clip-path="url(#clipPath3)" font-family="sans-serif" stroke="none" stroke-miterlimit="1.45" xml:space="preserve">name: Text</text>
      <text stroke-linecap="butt" x="268.75" y="197.2611" clip-path="url(#clipPath3)" font-family="sans-serif" stroke="none" stroke-miterlimit="1.45" xml:space="preserve">alternateName: Text</text>
      <text stroke-linecap="butt" x="268.75" y="211.3939" clip-path="url(#clipPath3)" font-family="sans-serif" stroke="none" stroke-miterlimit="1.45" xml:space="preserve">image: URL</text>
      <text stroke-linecap="butt" x="268.75" y="225.5267" clip-path="url(#clipPath3)" font-family="sans-serif" stroke="none" stroke-miterlimit="1.45" xml:space="preserve">url: URL</text>
      <text stroke-linecap="butt" x="268.75" y="239.6595" clip-path="url(#clipPath3)" font-family="sans-serif" stroke="none" stroke-miterlimit="1.45" xml:space="preserve">nationality: Country</text>
      <text stroke-linecap="butt" x="268.75" y="253.7923" clip-path="url(#clipPath3)" font-family="sans-serif" stroke="none" stroke-miterlimit="1.45" xml:space="preserve">coach: Person</text>
      <text stroke-linecap="butt" x="268.75" y="267.9251" clip-path="url(#clipPath3)" font-family="sans-serif" stroke="none" stroke-miterlimit="1.45" xml:space="preserve">sponsor: Agent</text>
      <text stroke-linecap="butt" x="268.75" y="282.058" clip-path="url(#clipPath3)" font-family="sans-serif" stroke="none" stroke-miterlimit="1.45" xml:space="preserve">bestPerformance: Performance</text>
      <text stroke-linecap="butt" x="268.75" y="296.1908" clip-path="url(#clipPath3)" font-family="sans-serif" stroke="none" stroke-miterlimit="1.45" xml:space="preserve">familyName: Text</text>
      <text stroke-linecap="butt" x="268.75" y="310.3236" clip-path="url(#clipPath3)" font-family="sans-serif" stroke="none" stroke-miterlimit="1.45" xml:space="preserve">givenName: Text</text>
      <text stroke-linecap="butt" x="268.75" y="324.4564" clip-path="url(#clipPath3)" font-family="sans-serif" stroke="none" stroke-miterlimit="1.45" xml:space="preserve">previousFamilyName: Text</text>
      <text stroke-linecap="butt" x="268.75" y="338.5892" clip-path="url(#clipPath3)" font-family="sans-serif" stroke="none" stroke-miterlimit="1.45" xml:space="preserve">previousGivenName: Text</text>
      <text stroke-linecap="butt" x="268.75" y="352.722" clip-path="url(#clipPath3)" font-family="sans-serif" stroke="none" stroke-miterlimit="1.45" xml:space="preserve">award: Text</text>
      <text stroke-linecap="butt" x="268.75" y="366.8548" clip-path="url(#clipPath3)" font-family="sans-serif" stroke="none" stroke-miterlimit="1.45" xml:space="preserve">gender: GenderType</text>
      <text stroke-linecap="butt" x="268.75" y="380.9876" clip-path="url(#clipPath3)" font-family="sans-serif" stroke="none" stroke-miterlimit="1.45" xml:space="preserve">height: Distance</text>
      <text stroke-linecap="butt" x="268.75" y="395.1205" clip-path="url(#clipPath3)" font-family="sans-serif" stroke="none" stroke-miterlimit="1.45" xml:space="preserve">weight: Mass</text>
      <text stroke-linecap="butt" x="268.75" y="409.2533" clip-path="url(#clipPath3)" font-family="sans-serif" stroke="none" stroke-miterlimit="1.45" xml:space="preserve">dateOfBirth: Date</text>
      <text stroke-linecap="butt" x="268.75" y="423.3861" clip-path="url(#clipPath3)" font-family="sans-serif" stroke="none" stroke-miterlimit="1.45" xml:space="preserve">dateOfDeath: Date</text>
      <text stroke-linecap="butt" x="268.75" y="437.5189" clip-path="url(#clipPath3)" font-family="sans-serif" stroke="none" stroke-miterlimit="1.45" xml:space="preserve">address: PostalAddress</text>
      <text stroke-linecap="butt" x="268.75" y="451.6517" clip-path="url(#clipPath3)" font-family="sans-serif" stroke="none" stroke-miterlimit="1.45" xml:space="preserve">email: Text</text>
      <text stroke-linecap="butt" x="268.75" y="465.7845" clip-path="url(#clipPath3)" font-family="sans-serif" stroke="none" stroke-miterlimit="1.45" xml:space="preserve">birthPlace: Text</text>
      <line y2="473" fill="none" x1="264" clip-path="url(#clipPath3)" x2="455" y1="473"/>
      <rect x="483" y="406" clip-path="url(#clipPath2)" fill="rgb(255,204,153)" width="141" height="176" stroke="none"/>
      <rect x="482" y="405" clip-path="url(#clipPath2)" fill="rgb(255,255,218)" width="1" height="178" stroke="none"/>
      <rect x="483" y="405" clip-path="url(#clipPath2)" fill="rgb(255,255,218)" width="141" height="1" stroke="none"/>
      <rect x="483" y="582" clip-path="url(#clipPath2)" fill="rgb(178,142,107)" width="142" height="1" stroke="none"/>
      <rect x="624" y="405" clip-path="url(#clipPath2)" fill="rgb(178,142,107)" width="1" height="177" stroke="none"/>
    </g>
    <g font-size="13px" stroke-linecap="butt" transform="matrix(1,0,0,1,-248,107)" text-rendering="geometricPrecision" font-family="sans-serif" shape-rendering="geometricPrecision" font-weight="bold" stroke-miterlimit="1.45">
      <text x="512.2539" xml:space="preserve" y="423.3167" clip-path="url(#clipPath4)" stroke="none">Sports Team</text>
    </g>
    <g text-rendering="geometricPrecision" shape-rendering="geometricPrecision" transform="matrix(1,0,0,1,-248,107)">
      <line y2="431" fill="none" x1="483" clip-path="url(#clipPath4)" x2="624" y1="431"/>
      <text stroke-linecap="butt" x="487.75" y="447.6604" clip-path="url(#clipPath4)" font-family="sans-serif" stroke="none" stroke-miterlimit="1.45" xml:space="preserve">identifier: Text</text>
      <text stroke-linecap="butt" x="487.75" y="461.7932" clip-path="url(#clipPath4)" font-family="sans-serif" stroke="none" stroke-miterlimit="1.45" xml:space="preserve">name: Text</text>
      <text stroke-linecap="butt" x="487.75" y="475.926" clip-path="url(#clipPath4)" font-family="sans-serif" stroke="none" stroke-miterlimit="1.45" xml:space="preserve">alternateName: Text</text>
      <text stroke-linecap="butt" x="487.75" y="490.0588" clip-path="url(#clipPath4)" font-family="sans-serif" stroke="none" stroke-miterlimit="1.45" xml:space="preserve">image: URL</text>
      <text stroke-linecap="butt" x="487.75" y="504.1917" clip-path="url(#clipPath4)" font-family="sans-serif" stroke="none" stroke-miterlimit="1.45" xml:space="preserve">url: URL</text>
      <text stroke-linecap="butt" x="487.75" y="518.3245" clip-path="url(#clipPath4)" font-family="sans-serif" stroke="none" stroke-miterlimit="1.45" xml:space="preserve">nationality: Country</text>
      <text stroke-linecap="butt" x="487.75" y="532.4573" clip-path="url(#clipPath4)" font-family="sans-serif" stroke="none" stroke-miterlimit="1.45" xml:space="preserve">coach: Person</text>
      <text stroke-linecap="butt" x="487.75" y="546.5901" clip-path="url(#clipPath4)" font-family="sans-serif" stroke="none" stroke-miterlimit="1.45" xml:space="preserve">sponsor: Agent</text>
      <text stroke-linecap="butt" x="487.75" y="560.7229" clip-path="url(#clipPath4)" font-family="sans-serif" stroke="none" stroke-miterlimit="1.45" xml:space="preserve">record: Performance</text>
      <text stroke-linecap="butt" x="487.75" y="574.8557" clip-path="url(#clipPath4)" font-family="sans-serif" stroke="none" stroke-miterlimit="1.45" xml:space="preserve">logo: Text</text>
      <line y2="582" fill="none" x1="483" clip-path="url(#clipPath4)" x2="624" y1="582"/>
      <rect x="709" y="160" clip-path="url(#clipPath2)" fill="rgb(255,204,153)" width="141" height="159" stroke="none"/>
      <rect x="708" y="159" clip-path="url(#clipPath2)" fill="rgb(255,255,218)" width="1" height="161" stroke="none"/>
      <rect x="709" y="159" clip-path="url(#clipPath2)" fill="rgb(255,255,218)" width="141" height="1" stroke="none"/>
      <rect x="709" y="319" clip-path="url(#clipPath2)" fill="rgb(178,142,107)" width="142" height="1" stroke="none"/>
      <rect x="850" y="159" clip-path="url(#clipPath2)" fill="rgb(178,142,107)" width="1" height="160" stroke="none"/>
    </g>
    <g font-size="13px" stroke-linecap="butt" transform="matrix(1,0,0,1,-248,107)" text-rendering="geometricPrecision" font-family="sans-serif" shape-rendering="geometricPrecision" font-weight="bold" stroke-miterlimit="1.45">
      <text x="712.7942" xml:space="preserve" y="176.8204" clip-path="url(#clipPath5)" stroke="none">Sports Organization</text>
    </g>
    <g text-rendering="geometricPrecision" shape-rendering="geometricPrecision" transform="matrix(1,0,0,1,-248,107)">
      <line y2="184" fill="none" x1="709" clip-path="url(#clipPath5)" x2="850" y1="184"/>
      <text stroke-linecap="butt" x="713.5" y="201.1642" clip-path="url(#clipPath5)" font-family="sans-serif" stroke="none" stroke-miterlimit="1.45" xml:space="preserve">identifier: Text</text>
      <text stroke-linecap="butt" x="713.5" y="215.297" clip-path="url(#clipPath5)" font-family="sans-serif" stroke="none" stroke-miterlimit="1.45" xml:space="preserve">name: Text</text>
      <text stroke-linecap="butt" x="713.5" y="229.4298" clip-path="url(#clipPath5)" font-family="sans-serif" stroke="none" stroke-miterlimit="1.45" xml:space="preserve">alternateName: Text</text>
      <text stroke-linecap="butt" x="713.5" y="243.5626" clip-path="url(#clipPath5)" font-family="sans-serif" stroke="none" stroke-miterlimit="1.45" xml:space="preserve">image: URL</text>
      <text stroke-linecap="butt" x="713.5" y="257.6954" clip-path="url(#clipPath5)" font-family="sans-serif" stroke="none" stroke-miterlimit="1.45" xml:space="preserve">email: Text</text>
      <text stroke-linecap="butt" x="713.5" y="271.8282" clip-path="url(#clipPath5)" font-family="sans-serif" stroke="none" stroke-miterlimit="1.45" xml:space="preserve">url: URL</text>
      <text stroke-linecap="butt" x="713.5" y="285.9611" clip-path="url(#clipPath5)" font-family="sans-serif" stroke="none" stroke-miterlimit="1.45" xml:space="preserve">areaServed: Place</text>
      <text stroke-linecap="butt" x="713.5" y="300.0939" clip-path="url(#clipPath5)" font-family="sans-serif" stroke="none" stroke-miterlimit="1.45" xml:space="preserve">address: Location</text>
      <text stroke-linecap="butt" x="713.5" y="314.2267" clip-path="url(#clipPath5)" font-family="sans-serif" stroke="none" stroke-miterlimit="1.45" xml:space="preserve">member: Agent</text>
      <line y2="321" fill="none" x1="709" clip-path="url(#clipPath5)" x2="850" y1="321"/>
      <rect x="651" y="400" clip-path="url(#clipPath2)" fill="rgb(255,204,153)" width="93" height="36" stroke="none"/>
      <rect x="650" y="399" clip-path="url(#clipPath2)" fill="rgb(255,255,218)" width="1" height="38" stroke="none"/>
      <rect x="651" y="399" clip-path="url(#clipPath2)" fill="rgb(255,255,218)" width="93" height="1" stroke="none"/>
      <rect x="651" y="436" clip-path="url(#clipPath2)" fill="rgb(178,142,107)" width="94" height="1" stroke="none"/>
      <rect x="744" y="399" clip-path="url(#clipPath2)" fill="rgb(178,142,107)" width="1" height="37" stroke="none"/>
    </g>
    <g font-size="13px" stroke-linecap="butt" transform="matrix(1,0,0,1,-248,107)" text-rendering="geometricPrecision" font-family="sans-serif" shape-rendering="geometricPrecision" font-weight="bold" stroke-miterlimit="1.45">
      <text x="659.3516" xml:space="preserve" y="417.151" clip-path="url(#clipPath6)" stroke="none">Sports Club</text>
    </g>
    <g fill="rgb(255,204,153)" text-rendering="geometricPrecision" shape-rendering="geometricPrecision" transform="matrix(1,0,0,1,-248,107)" stroke="rgb(255,204,153)">
      <rect x="774" width="170" height="36" y="400" clip-path="url(#clipPath2)" stroke="none"/>
      <rect x="773" y="399" clip-path="url(#clipPath2)" fill="rgb(255,255,218)" width="1" height="38" stroke="none"/>
      <rect x="774" y="399" clip-path="url(#clipPath2)" fill="rgb(255,255,218)" width="170" height="1" stroke="none"/>
      <rect x="774" y="436" clip-path="url(#clipPath2)" fill="rgb(178,142,107)" width="171" height="1" stroke="none"/>
      <rect x="944" y="399" clip-path="url(#clipPath2)" fill="rgb(178,142,107)" width="1" height="37" stroke="none"/>
    </g>
    <g font-size="13px" stroke-linecap="butt" transform="matrix(1,0,0,1,-248,107)" text-rendering="geometricPrecision" font-family="sans-serif" shape-rendering="geometricPrecision" font-weight="bold" stroke-miterlimit="1.45">
      <text x="782.8264" xml:space="preserve" y="417.151" clip-path="url(#clipPath7)" stroke="none">Sports Governing Body</text>
    </g>
    <g fill="rgb(255,204,153)" text-rendering="geometricPrecision" shape-rendering="geometricPrecision" transform="matrix(1,0,0,1,-248,107)" stroke="rgb(255,204,153)">
      <rect x="499" width="141" height="36" y="-90" clip-path="url(#clipPath2)" stroke="none"/>
      <rect x="498" y="-91" clip-path="url(#clipPath2)" fill="rgb(255,255,218)" width="1" height="38" stroke="none"/>
      <rect x="499" y="-91" clip-path="url(#clipPath2)" fill="rgb(255,255,218)" width="141" height="1" stroke="none"/>
      <rect x="499" y="-54" clip-path="url(#clipPath2)" fill="rgb(178,142,107)" width="142" height="1" stroke="none"/>
      <rect x="640" y="-91" clip-path="url(#clipPath2)" fill="rgb(178,142,107)" width="1" height="37" stroke="none"/>
    </g>
    <g font-size="13px" stroke-linecap="butt" transform="matrix(1,0,0,1,-248,107)" text-rendering="geometricPrecision" font-family="sans-serif" shape-rendering="geometricPrecision" font-weight="bold" stroke-miterlimit="1.45">
      <text x="550.2144" xml:space="preserve" y="-73.6011" clip-path="url(#clipPath8)" stroke="none">Agent</text>
    </g>
    <g fill="rgb(255,204,153)" text-rendering="geometricPrecision" shape-rendering="geometricPrecision" transform="matrix(1,0,0,1,-248,107)" stroke="rgb(255,204,153)">
      <rect x="289" width="141" height="36" y="24" clip-path="url(#clipPath2)" stroke="none"/>
      <rect x="288" y="23" clip-path="url(#clipPath2)" fill="rgb(255,255,218)" width="1" height="38" stroke="none"/>
      <rect x="289" y="23" clip-path="url(#clipPath2)" fill="rgb(255,255,218)" width="141" height="1" stroke="none"/>
      <rect x="289" y="60" clip-path="url(#clipPath2)" fill="rgb(178,142,107)" width="142" height="1" stroke="none"/>
      <rect x="430" y="23" clip-path="url(#clipPath2)" fill="rgb(178,142,107)" width="1" height="37" stroke="none"/>
    </g>
    <g font-size="13px" stroke-linecap="butt" transform="matrix(1,0,0,1,-248,107)" text-rendering="geometricPrecision" font-family="sans-serif" shape-rendering="geometricPrecision" font-weight="bold" stroke-miterlimit="1.45">
      <text x="337.1548" xml:space="preserve" y="40.6468" clip-path="url(#clipPath9)" stroke="none">Person</text>
    </g>
    <g fill="rgb(255,204,153)" text-rendering="geometricPrecision" shape-rendering="geometricPrecision" transform="matrix(1,0,0,1,-248,107)" stroke="rgb(255,204,153)">
      <rect x="709" width="141" height="36" y="22" clip-path="url(#clipPath2)" stroke="none"/>
      <rect x="708" y="21" clip-path="url(#clipPath2)" fill="rgb(255,255,218)" width="1" height="38" stroke="none"/>
      <rect x="709" y="21" clip-path="url(#clipPath2)" fill="rgb(255,255,218)" width="141" height="1" stroke="none"/>
      <rect x="709" y="58" clip-path="url(#clipPath2)" fill="rgb(178,142,107)" width="142" height="1" stroke="none"/>
      <rect x="850" y="21" clip-path="url(#clipPath2)" fill="rgb(178,142,107)" width="1" height="37" stroke="none"/>
    </g>
    <g font-size="13px" stroke-linecap="butt" transform="matrix(1,0,0,1,-248,107)" text-rendering="geometricPrecision" font-family="sans-serif" shape-rendering="geometricPrecision" font-weight="bold" stroke-miterlimit="1.45">
      <text x="736.3726" xml:space="preserve" y="39.3989" clip-path="url(#clipPath10)" stroke="none">Organization</text>
    </g>
    <g text-rendering="geometricPrecision" stroke-miterlimit="1.45" stroke-width="2" shape-rendering="geometricPrecision" transform="matrix(1,0,0,1,-248,107)" stroke-linecap="butt">
      <path fill="none" d="M380 481.8866 L380 520 L473.7663 520" clip-path="url(#clipPath2)"/>
      <path d="M380 472.8866 L374.375 486.3866 L380 483.0116 L385.625 486.3866 Z" clip-path="url(#clipPath2)" stroke="none"/>
      <path d="M482.7663 520 L469.2663 514.375 L472.6413 520 L469.2663 525.625 Z" clip-path="url(#clipPath2)" stroke="none"/>
      <text x="329.577" y="491.366" clip-path="url(#clipPath2)" font-family="sans-serif" stroke="none" stroke-width="1" xml:space="preserve">captain</text>
      <text x="330.8104" y="505.4988" clip-path="url(#clipPath2)" font-family="sans-serif" stroke="none" stroke-width="1" xml:space="preserve">athlete</text>
      <text x="414.9395" y="502.907" clip-path="url(#clipPath2)" font-family="sans-serif" stroke="none" stroke-width="1" xml:space="preserve">memberOf</text>
      <path fill="none" d="M554.25 396.7394 L554.25 240 L699.4886 240" clip-path="url(#clipPath2)"/>
      <path d="M554.25 405.7394 L559.875 392.2394 L554.25 395.6144 L548.625 392.2394 Z" clip-path="url(#clipPath2)" stroke="none"/>
      <path d="M708.4886 240 L694.9886 234.375 L698.3636 240 L694.9886 245.625 Z" clip-path="url(#clipPath2)" stroke="none"/>
      <text x="632.3466" y="267.4347" clip-path="url(#clipPath2)" font-family="sans-serif" stroke="none" stroke-width="1" xml:space="preserve">memberOf</text>
      <text x="495.665" y="395.8895" clip-path="url(#clipPath2)" font-family="sans-serif" stroke="none" stroke-width="1" xml:space="preserve">member</text>
      <path fill="none" d="M831 159.251 L831 138.7521 L872.75 138.7521 L872.75 178.7521 L860.5391 178.7521" clip-path="url(#clipPath2)"/>
      <path d="M851.5391 178.7521 L865.0391 184.3771 L861.6641 178.7521 L865.0391 173.1271 Z" clip-path="url(#clipPath2)" stroke="none"/>
      <text x="871.7627" y="199.259" clip-path="url(#clipPath2)" font-family="sans-serif" stroke="none" stroke-width="1" xml:space="preserve">memberOf</text>
      <path fill="none" d="M456.2592 210.1456 L699.5056 210.1456" clip-path="url(#clipPath2)"/>
      <path d="M708.5056 210.1456 L695.0056 204.5206 L698.3806 210.1456 L695.0056 215.7706 Z" clip-path="url(#clipPath2)" stroke="none"/>
      <text x="646.2402" y="184.6808" clip-path="url(#clipPath2)" font-family="sans-serif" stroke="none" stroke-width="1" xml:space="preserve">affiliation</text>
      <path fill="none" d="M599 405.7324 L599 360 L780 360 L780 337.653" clip-path="url(#clipPath2)"/>
      <path fill="white" d="M780 320.778 L773.25 338.778 L786.75 338.778 Z" clip-path="url(#clipPath2)" stroke="none"/>
      <path fill="none" d="M780 320.778 L773.25 338.778 L786.75 338.778 Z" stroke-width="1" clip-path="url(#clipPath2)"/>
      <path fill="none" d="M697.9233 399.5601 L697.25 360 L780 360 L780 337.653" clip-path="url(#clipPath2)"/>
      <path fill="white" d="M780 320.778 L773.25 338.778 L786.75 338.778 Z" clip-path="url(#clipPath2)" stroke="none"/>
      <path fill="none" d="M780 320.778 L773.25 338.778 L786.75 338.778 Z" stroke-width="1" clip-path="url(#clipPath2)"/>
      <text x="808.3583" y="335.2872" clip-path="url(#clipPath2)" font-family="sans-serif" stroke="none" stroke-width="1" xml:space="preserve">subClassOf</text>
      <path fill="none" d="M861.25 399.5568 L861.25 360 L780 360 L780 337.653" clip-path="url(#clipPath2)"/>
      <path fill="white" d="M780 320.778 L773.25 338.778 L786.75 338.778 Z" clip-path="url(#clipPath2)" stroke="none"/>
      <path fill="none" d="M780 320.778 L773.25 338.778 L786.75 338.778 Z" stroke-width="1" clip-path="url(#clipPath2)"/>
      <path fill="none" d="M360 127.0935 L360 90 L360 78.289" clip-path="url(#clipPath2)"/>
      <path fill="white" d="M360 61.414 L353.25 79.414 L366.75 79.414 Z" clip-path="url(#clipPath2)" stroke="none"/>
      <path fill="none" d="M360 61.414 L353.25 79.414 L366.75 79.414 Z" stroke-width="1" clip-path="url(#clipPath2)"/>
      <text x="389.2578" y="81.0436" clip-path="url(#clipPath2)" font-family="sans-serif" stroke="none" stroke-width="1" xml:space="preserve">subClassOf</text>
      <path fill="none" d="M360 23.0631 L360 0 L570 0 L570 -35.9648" clip-path="url(#clipPath2)"/>
      <path fill="white" d="M570 -52.8398 L563.25 -34.8398 L576.75 -34.8398 Z" clip-path="url(#clipPath2)" stroke="none"/>
      <path fill="none" d="M570 -52.8398 L563.25 -34.8398 L576.75 -34.8398 Z" stroke-width="1" clip-path="url(#clipPath2)"/>
      <path fill="none" d="M780 159.2048 L780 77.066" clip-path="url(#clipPath2)"/>
      <path fill="white" d="M780 60.191 L773.25 78.191 L786.75 78.191 Z" clip-path="url(#clipPath2)" stroke="none"/>
      <path fill="none" d="M780 60.191 L773.25 78.191 L786.75 78.191 Z" stroke-width="1" clip-path="url(#clipPath2)"/>
      <text x="685.2578" y="77.2459" clip-path="url(#clipPath2)" font-family="sans-serif" stroke="none" stroke-width="1" xml:space="preserve">subClassOf</text>
      <path fill="none" d="M780 21.8213 L780 0 L570 0 L570 -35.9726" clip-path="url(#clipPath2)"/>
      <path fill="white" d="M570 -52.8476 L563.25 -34.8476 L576.75 -34.8476 Z" clip-path="url(#clipPath2)" stroke="none"/>
      <path fill="none" d="M570 -52.8476 L563.25 -34.8476 L576.75 -34.8476 Z" stroke-width="1" clip-path="url(#clipPath2)"/>
      <text x="591.2578" y="-25.4648" clip-path="url(#clipPath2)" font-family="sans-serif" stroke="none" stroke-width="1" xml:space="preserve">subClassOf</text>
    </g>
  </g>
</svg>
