<?xml version="1.0" encoding="UTF-8"?><svg xmlns="http://www.w3.org/2000/svg" xmlns:xlink="http://www.w3.org/1999/xlink" fill-opacity="1" color-rendering="auto" color-interpolation="auto" text-rendering="auto" stroke="black" stroke-linecap="square" width="1481" stroke-miterlimit="10" shape-rendering="auto" stroke-opacity="1" fill="black" stroke-dasharray="none" font-weight="normal" stroke-width="1" height="809" font-family="'Dialog'" font-style="normal" stroke-linejoin="miter" font-size="12px" stroke-dashoffset="0" image-rendering="auto">
  <!--Generated by ySVG 2.5-->
  <defs id="genericDefs"/>
  <g>
    <defs id="defs1">
      <clipPath clipPathUnits="userSpaceOnUse" id="clipPath1">
        <path d="M0 0 L1481 0 L1481 809 L0 809 L0 0 Z"/>
      </clipPath>
      <clipPath clipPathUnits="userSpaceOnUse" id="clipPath2">
        <path d="M122 -454 L1603 -454 L1603 355 L122 355 L122 -454 Z"/>
      </clipPath>
      <clipPath clipPathUnits="userSpaceOnUse" id="clipPath3">
        <path d="M1191 75 L1191 180 L1391 180 L1391 75 Z"/>
      </clipPath>
      <clipPath clipPathUnits="userSpaceOnUse" id="clipPath4">
        <path d="M1427 269 L1427 333 L1586 333 L1586 269 Z"/>
      </clipPath>
      <clipPath clipPathUnits="userSpaceOnUse" id="clipPath5">
        <path d="M1211 269 L1211 321 L1370 321 L1370 269 Z"/>
      </clipPath>
      <clipPath clipPathUnits="userSpaceOnUse" id="clipPath6">
        <path d="M996 269 L996 321 L1155 321 L1155 269 Z"/>
      </clipPath>
      <clipPath clipPathUnits="userSpaceOnUse" id="clipPath7">
        <path d="M1142 -217 L1142 -57 L1424 -57 L1424 -217 Z"/>
      </clipPath>
      <clipPath clipPathUnits="userSpaceOnUse" id="clipPath8">
        <path d="M868 -425 L868 -348 L1048 -348 L1048 -425 Z"/>
      </clipPath>
      <clipPath clipPathUnits="userSpaceOnUse" id="clipPath9">
        <path d="M137 -74 L137 63 L304 63 L304 -74 Z"/>
      </clipPath>
      <clipPath clipPathUnits="userSpaceOnUse" id="clipPath10">
        <path d="M391 -252 L391 70 L651 70 L651 -252 Z"/>
      </clipPath>
      <clipPath clipPathUnits="userSpaceOnUse" id="clipPath11">
        <path d="M1393 -425 L1393 -247 L1536 -247 L1536 -425 Z"/>
      </clipPath>
      <clipPath clipPathUnits="userSpaceOnUse" id="clipPath12">
        <path d="M437 -415 L437 -327 L603 -327 L603 -415 Z"/>
      </clipPath>
      <clipPath clipPathUnits="userSpaceOnUse" id="clipPath13">
        <path d="M1100 -425 L1100 -313 L1341 -313 L1341 -425 Z"/>
      </clipPath>
      <clipPath clipPathUnits="userSpaceOnUse" id="clipPath14">
        <path d="M531 271 L531 299 L714 299 L714 271 Z"/>
      </clipPath>
      <clipPath clipPathUnits="userSpaceOnUse" id="clipPath15">
        <path d="M303 251 L303 339 L488 339 L488 251 Z"/>
      </clipPath>
      <clipPath clipPathUnits="userSpaceOnUse" id="clipPath16">
        <path d="M428 166 L428 194 L613 194 L613 166 Z"/>
      </clipPath>
      <clipPath clipPathUnits="userSpaceOnUse" id="clipPath17">
        <path d="M788 -21 L788 91 L1048 91 L1048 -21 Z"/>
      </clipPath>
    </defs>
    <g fill="white" text-rendering="geometricPrecision" shape-rendering="geometricPrecision" transform="translate(-122,454)" stroke="white">
      <rect x="122" width="1481" height="809" y="-454" clip-path="url(#clipPath2)" stroke="none"/>
    </g>
    <g text-rendering="geometricPrecision" stroke-miterlimit="1.45" stroke-dasharray="6,2" shape-rendering="geometricPrecision" transform="matrix(1,0,0,1,-122,454)" stroke-linecap="butt">
      <rect fill="none" x="809.0888" width="738.5981" height="204.5059" y="-438.9438" clip-path="url(#clipPath2)"/>
    </g>
    <g fill="rgb(255,153,153)" text-rendering="geometricPrecision" shape-rendering="geometricPrecision" transform="matrix(1,0,0,1,-122,454)" stroke="rgb(255,153,153)">
      <rect x="1192" width="198" height="103" y="76" clip-path="url(#clipPath2)" stroke="none"/>
      <rect x="1191" y="75" clip-path="url(#clipPath2)" fill="rgb(255,218,218)" width="1" height="105" stroke="none"/>
      <rect x="1192" y="75" clip-path="url(#clipPath2)" fill="rgb(255,218,218)" width="198" height="1" stroke="none"/>
      <rect x="1192" y="179" clip-path="url(#clipPath2)" fill="rgb(178,107,107)" width="199" height="1" stroke="none"/>
      <rect x="1390" y="75" clip-path="url(#clipPath2)" fill="rgb(178,107,107)" width="1" height="104" stroke="none"/>
    </g>
    <g font-size="13px" stroke-linecap="butt" transform="matrix(1,0,0,1,-122,454)" text-rendering="geometricPrecision" font-family="sans-serif" shape-rendering="geometricPrecision" font-weight="bold" stroke-miterlimit="1.45">
      <text x="1249.6372" xml:space="preserve" y="93.1348" clip-path="url(#clipPath3)" stroke="none">Performance</text>
    </g>
    <g text-rendering="geometricPrecision" shape-rendering="geometricPrecision" transform="matrix(1,0,0,1,-122,454)">
      <line y2="100" fill="none" x1="1192" clip-path="url(#clipPath3)" x2="1390" y1="100"/>
      <text stroke-linecap="butt" x="1196.8491" y="117.4785" clip-path="url(#clipPath3)" font-family="sans-serif" stroke="none" stroke-miterlimit="1.45" xml:space="preserve">identifier: Text</text>
      <text stroke-linecap="butt" x="1196.8491" y="131.6113" clip-path="url(#clipPath3)" font-family="sans-serif" stroke="none" stroke-miterlimit="1.45" xml:space="preserve">discipline: Discipline</text>
      <text stroke-linecap="butt" x="1196.8491" y="145.7442" clip-path="url(#clipPath3)" font-family="sans-serif" stroke="none" stroke-miterlimit="1.45" xml:space="preserve">windAssistance: Text</text>
      <text stroke-linecap="butt" x="1196.8491" y="159.877" clip-path="url(#clipPath3)" font-family="sans-serif" stroke="none" stroke-miterlimit="1.45" xml:space="preserve">recordOrBest: RecordOrBest</text>
      <text stroke-linecap="butt" x="1196.8491" y="174.0098" clip-path="url(#clipPath3)" font-family="sans-serif" stroke="none" stroke-miterlimit="1.45" xml:space="preserve">agent: Agent</text>
      <line y2="181" fill="none" x1="1192" clip-path="url(#clipPath3)" x2="1390" y1="181"/>
      <rect x="1428" y="270" clip-path="url(#clipPath2)" fill="rgb(255,153,153)" width="157" height="62" stroke="none"/>
      <rect x="1427" y="269" clip-path="url(#clipPath2)" fill="rgb(255,218,218)" width="1" height="64" stroke="none"/>
      <rect x="1428" y="269" clip-path="url(#clipPath2)" fill="rgb(255,218,218)" width="157" height="1" stroke="none"/>
      <rect x="1428" y="332" clip-path="url(#clipPath2)" fill="rgb(178,107,107)" width="158" height="1" stroke="none"/>
      <rect x="1585" y="269" clip-path="url(#clipPath2)" fill="rgb(178,107,107)" width="1" height="63" stroke="none"/>
    </g>
    <g font-size="13px" stroke-linecap="butt" transform="matrix(1,0,0,1,-122,454)" text-rendering="geometricPrecision" font-family="sans-serif" shape-rendering="geometricPrecision" font-weight="bold" stroke-miterlimit="1.45">
      <text x="1448.4373" xml:space="preserve" y="286.79" clip-path="url(#clipPath4)" stroke="none">TimePerformance</text>
    </g>
    <g text-rendering="geometricPrecision" shape-rendering="geometricPrecision" transform="matrix(1,0,0,1,-122,454)">
      <line y2="294" fill="none" x1="1428" clip-path="url(#clipPath4)" x2="1586" y1="294"/>
      <text stroke-linecap="butt" x="1432.4844" y="311.1338" clip-path="url(#clipPath4)" font-family="sans-serif" stroke="none" stroke-miterlimit="1.45" xml:space="preserve">time: Duration</text>
      <text stroke-linecap="butt" x="1432.4844" y="325.2666" clip-path="url(#clipPath4)" font-family="sans-serif" stroke="none" stroke-miterlimit="1.45" xml:space="preserve">reactionTime: Duration</text>
      <line y2="332" fill="none" x1="1428" clip-path="url(#clipPath4)" x2="1586" y1="332"/>
      <rect x="1212" y="270" clip-path="url(#clipPath2)" fill="rgb(255,153,153)" width="157" height="50" stroke="none"/>
      <rect x="1211" y="269" clip-path="url(#clipPath2)" fill="rgb(255,218,218)" width="1" height="52" stroke="none"/>
      <rect x="1212" y="269" clip-path="url(#clipPath2)" fill="rgb(255,218,218)" width="157" height="1" stroke="none"/>
      <rect x="1212" y="320" clip-path="url(#clipPath2)" fill="rgb(178,107,107)" width="158" height="1" stroke="none"/>
      <rect x="1369" y="269" clip-path="url(#clipPath2)" fill="rgb(178,107,107)" width="1" height="51" stroke="none"/>
    </g>
    <g font-size="13px" stroke-linecap="butt" transform="matrix(1,0,0,1,-122,454)" text-rendering="geometricPrecision" font-family="sans-serif" shape-rendering="geometricPrecision" font-weight="bold" stroke-miterlimit="1.45">
      <text x="1220.7014" xml:space="preserve" y="286.79" clip-path="url(#clipPath5)" stroke="none">DistancePerformance</text>
    </g>
    <g text-rendering="geometricPrecision" shape-rendering="geometricPrecision" transform="matrix(1,0,0,1,-122,454)">
      <line y2="294" fill="none" x1="1212" clip-path="url(#clipPath5)" x2="1370" y1="294"/>
      <text stroke-linecap="butt" x="1216.9741" y="311.1338" clip-path="url(#clipPath5)" font-family="sans-serif" stroke="none" stroke-miterlimit="1.45" xml:space="preserve">distance: Distance</text>
      <line y2="318" fill="none" x1="1212" clip-path="url(#clipPath5)" x2="1370" y1="318"/>
      <rect x="997" y="270" clip-path="url(#clipPath2)" fill="rgb(255,153,153)" width="157" height="50" stroke="none"/>
      <rect x="996" y="269" clip-path="url(#clipPath2)" fill="rgb(255,218,218)" width="1" height="52" stroke="none"/>
      <rect x="997" y="269" clip-path="url(#clipPath2)" fill="rgb(255,218,218)" width="157" height="1" stroke="none"/>
      <rect x="997" y="320" clip-path="url(#clipPath2)" fill="rgb(178,107,107)" width="158" height="1" stroke="none"/>
      <rect x="1154" y="269" clip-path="url(#clipPath2)" fill="rgb(178,107,107)" width="1" height="51" stroke="none"/>
    </g>
    <g font-size="13px" stroke-linecap="butt" transform="matrix(1,0,0,1,-122,454)" text-rendering="geometricPrecision" font-family="sans-serif" shape-rendering="geometricPrecision" font-weight="bold" stroke-miterlimit="1.45">
      <text x="1013.2972" xml:space="preserve" y="286.79" clip-path="url(#clipPath6)" stroke="none">PointsPerformance</text>
    </g>
    <g text-rendering="geometricPrecision" shape-rendering="geometricPrecision" transform="matrix(1,0,0,1,-122,454)">
      <line y2="294" fill="none" x1="997" clip-path="url(#clipPath6)" x2="1155" y1="294"/>
      <text stroke-linecap="butt" x="1001.4639" y="311.1338" clip-path="url(#clipPath6)" font-family="sans-serif" stroke="none" stroke-miterlimit="1.45" xml:space="preserve">scorePoints: Number</text>
      <line y2="318" fill="none" x1="997" clip-path="url(#clipPath6)" x2="1155" y1="318"/>
      <rect x="1143" y="-216" clip-path="url(#clipPath2)" fill="rgb(255,153,153)" width="280" height="158" stroke="none"/>
      <rect x="1142" y="-217" clip-path="url(#clipPath2)" fill="rgb(255,218,218)" width="1" height="160" stroke="none"/>
      <rect x="1143" y="-217" clip-path="url(#clipPath2)" fill="rgb(255,218,218)" width="280" height="1" stroke="none"/>
      <rect x="1143" y="-58" clip-path="url(#clipPath2)" fill="rgb(178,107,107)" width="281" height="1" stroke="none"/>
      <rect x="1423" y="-217" clip-path="url(#clipPath2)" fill="rgb(178,107,107)" width="1" height="159" stroke="none"/>
    </g>
    <g font-size="13px" stroke-linecap="butt" transform="matrix(1,0,0,1,-122,454)" text-rendering="geometricPrecision" font-family="sans-serif" shape-rendering="geometricPrecision" font-weight="bold" stroke-miterlimit="1.45">
      <text x="1262.4465" xml:space="preserve" y="-200.1225" clip-path="url(#clipPath7)" stroke="none">Result</text>
    </g>
    <g text-rendering="geometricPrecision" shape-rendering="geometricPrecision" transform="matrix(1,0,0,1,-122,454)">
      <line y2="-192" fill="none" x1="1143" clip-path="url(#clipPath7)" x2="1423" y1="-192"/>
      <text stroke-linecap="butt" x="1147.1249" y="-175.7787" clip-path="url(#clipPath7)" font-family="sans-serif" stroke="none" stroke-miterlimit="1.45" xml:space="preserve">rank: Number</text>
      <text stroke-linecap="butt" x="1147.1249" y="-161.6459" clip-path="url(#clipPath7)" font-family="sans-serif" stroke="none" stroke-miterlimit="1.45" xml:space="preserve">competitionFeature: CompetitionFeatureType</text>
      <text stroke-linecap="butt" x="1147.1249" y="-147.5131" clip-path="url(#clipPath7)" font-family="sans-serif" stroke="none" stroke-miterlimit="1.45" xml:space="preserve">protestStatus: ProtestStatusType</text>
      <text stroke-linecap="butt" x="1147.1249" y="-133.3803" clip-path="url(#clipPath7)" font-family="sans-serif" stroke="none" stroke-miterlimit="1.45" xml:space="preserve">startingOrder: Number</text>
      <text stroke-linecap="butt" x="1147.1249" y="-119.2475" clip-path="url(#clipPath7)" font-family="sans-serif" stroke="none" stroke-miterlimit="1.45" xml:space="preserve">trackLane: Number</text>
      <text stroke-linecap="butt" x="1147.1249" y="-105.1147" clip-path="url(#clipPath7)" font-family="sans-serif" stroke="none" stroke-miterlimit="1.45" xml:space="preserve">timestamp: DateTime</text>
      <text stroke-linecap="butt" x="1147.1249" y="-90.9819" clip-path="url(#clipPath7)" font-family="sans-serif" stroke="none" stroke-miterlimit="1.45" xml:space="preserve">recordOrBest: RecordOrBest</text>
      <text stroke-linecap="butt" x="1147.1249" y="-76.849" clip-path="url(#clipPath7)" font-family="sans-serif" stroke="none" stroke-miterlimit="1.45" xml:space="preserve">status: ResultStatus</text>
      <text stroke-linecap="butt" x="1147.1249" y="-62.7162" clip-path="url(#clipPath7)" font-family="sans-serif" stroke="none" stroke-miterlimit="1.45" xml:space="preserve">award: Award</text>
      <line y2="-55" fill="none" x1="1143" clip-path="url(#clipPath7)" x2="1423" y1="-55"/>
      <rect x="869" y="-424" clip-path="url(#clipPath2)" fill="silver" width="178" height="75" stroke="none"/>
      <rect x="868" y="-425" clip-path="url(#clipPath2)" fill="white" width="1" height="77" stroke="none"/>
      <rect x="869" y="-425" clip-path="url(#clipPath2)" fill="white" width="178" height="1" stroke="none"/>
      <rect x="869" y="-349" clip-path="url(#clipPath2)" fill="rgb(134,134,134)" width="179" height="1" stroke="none"/>
      <rect x="1047" y="-425" clip-path="url(#clipPath2)" fill="rgb(134,134,134)" width="1" height="76" stroke="none"/>
    </g>
    <g font-size="13px" stroke-linecap="butt" transform="matrix(1,0,0,1,-122,454)" text-rendering="geometricPrecision" font-family="sans-serif" shape-rendering="geometricPrecision" font-weight="bold" stroke-miterlimit="1.45">
      <text x="890.8415" xml:space="preserve" y="-408.1225" clip-path="url(#clipPath8)" stroke="none">QualificationCriteria</text>
    </g>
    <g text-rendering="geometricPrecision" shape-rendering="geometricPrecision" transform="matrix(1,0,0,1,-122,454)">
      <line y2="-400" fill="none" x1="869" clip-path="url(#clipPath8)" x2="1047" y1="-400"/>
      <text stroke-linecap="butt" x="873.8027" y="-383.7787" clip-path="url(#clipPath8)" font-family="sans-serif" stroke="none" stroke-miterlimit="1.45" xml:space="preserve">description: Text</text>
      <text stroke-linecap="butt" x="873.8027" y="-369.6459" clip-path="url(#clipPath8)" font-family="sans-serif" stroke="none" stroke-miterlimit="1.45" xml:space="preserve">byPlaceOrStandard: Number</text>
      <text stroke-linecap="butt" x="873.8027" y="-355.5131" clip-path="url(#clipPath8)" font-family="sans-serif" stroke="none" stroke-miterlimit="1.45" xml:space="preserve">byPerformance: Number</text>
      <line y2="-347" fill="none" x1="869" clip-path="url(#clipPath8)" x2="1047" y1="-347"/>
      <rect x="138" y="-73" clip-path="url(#clipPath2)" fill="rgb(255,255,153)" width="165" height="135" stroke="none"/>
      <rect x="137" y="-74" clip-path="url(#clipPath2)" fill="rgb(255,255,218)" width="1" height="137" stroke="none"/>
      <rect x="138" y="-74" clip-path="url(#clipPath2)" fill="rgb(255,255,218)" width="165" height="1" stroke="none"/>
      <rect x="138" y="62" clip-path="url(#clipPath2)" fill="rgb(178,178,107)" width="166" height="1" stroke="none"/>
      <rect x="303" y="-74" clip-path="url(#clipPath2)" fill="rgb(178,178,107)" width="1" height="136" stroke="none"/>
    </g>
    <g font-size="13px" stroke-linecap="butt" transform="matrix(1,0,0,1,-122,454)" text-rendering="geometricPrecision" font-family="sans-serif" shape-rendering="geometricPrecision" font-weight="bold" stroke-miterlimit="1.45">
      <text x="191.0989" xml:space="preserve" y="-57.4215" clip-path="url(#clipPath9)" stroke="none">Category</text>
    </g>
    <g text-rendering="geometricPrecision" shape-rendering="geometricPrecision" transform="matrix(1,0,0,1,-122,454)">
      <line y2="-49" fill="none" x1="138" clip-path="url(#clipPath9)" x2="303" y1="-49"/>
      <text stroke-linecap="butt" x="142.4171" y="-33.0777" clip-path="url(#clipPath9)" font-family="sans-serif" stroke="none" stroke-miterlimit="1.45" xml:space="preserve">identifier: Text</text>
      <text stroke-linecap="butt" x="142.4171" y="-18.9449" clip-path="url(#clipPath9)" font-family="sans-serif" stroke="none" stroke-miterlimit="1.45" xml:space="preserve">name: Text</text>
      <text stroke-linecap="butt" x="142.4171" y="-4.8121" clip-path="url(#clipPath9)" font-family="sans-serif" stroke="none" stroke-miterlimit="1.45" xml:space="preserve">alternateName: Text</text>
      <text stroke-linecap="butt" x="142.4171" y="9.3207" clip-path="url(#clipPath9)" font-family="sans-serif" stroke="none" stroke-miterlimit="1.45" xml:space="preserve">description: Text</text>
      <text stroke-linecap="butt" x="142.4171" y="23.4535" clip-path="url(#clipPath9)" font-family="sans-serif" stroke="none" stroke-miterlimit="1.45" xml:space="preserve">gender: Gender</text>
      <text stroke-linecap="butt" x="142.4171" y="37.5863" clip-path="url(#clipPath9)" font-family="sans-serif" stroke="none" stroke-miterlimit="1.45" xml:space="preserve">ageRange: AgeRange</text>
      <text stroke-linecap="butt" x="142.4171" y="51.7192" clip-path="url(#clipPath9)" font-family="sans-serif" stroke="none" stroke-miterlimit="1.45" xml:space="preserve">recognizedBy: Federation </text>
      <line y2="59" fill="none" x1="138" clip-path="url(#clipPath9)" x2="303" y1="59"/>
      <rect x="392" y="-251" clip-path="url(#clipPath2)" fill="rgb(255,255,153)" width="258" height="320" stroke="none"/>
      <rect x="391" y="-252" clip-path="url(#clipPath2)" fill="rgb(255,255,218)" width="1" height="322" stroke="none"/>
      <rect x="392" y="-252" clip-path="url(#clipPath2)" fill="rgb(255,255,218)" width="258" height="1" stroke="none"/>
      <rect x="392" y="69" clip-path="url(#clipPath2)" fill="rgb(178,178,107)" width="259" height="1" stroke="none"/>
      <rect x="650" y="-252" clip-path="url(#clipPath2)" fill="rgb(178,178,107)" width="1" height="321" stroke="none"/>
    </g>
    <g font-size="13px" stroke-linecap="butt" transform="matrix(1,0,0,1,-122,454)" text-rendering="geometricPrecision" font-family="sans-serif" shape-rendering="geometricPrecision" font-weight="bold" stroke-miterlimit="1.45">
      <text x="479.9578" xml:space="preserve" y="-235.2359" clip-path="url(#clipPath10)" stroke="none">Competition</text>
    </g>
    <g text-rendering="geometricPrecision" shape-rendering="geometricPrecision" transform="matrix(1,0,0,1,-122,454)">
      <line y2="-227" fill="none" x1="392" clip-path="url(#clipPath10)" x2="650" y1="-227"/>
      <text stroke-linecap="butt" x="396.0125" y="-210.8922" clip-path="url(#clipPath10)" font-family="sans-serif" stroke="none" stroke-miterlimit="1.45" xml:space="preserve">identifier: Text</text>
      <text stroke-linecap="butt" x="396.0125" y="-196.7594" clip-path="url(#clipPath10)" font-family="sans-serif" stroke="none" stroke-miterlimit="1.45" xml:space="preserve">name: Text</text>
      <text stroke-linecap="butt" x="396.0125" y="-182.6265" clip-path="url(#clipPath10)" font-family="sans-serif" stroke="none" stroke-miterlimit="1.45" xml:space="preserve">alternateName: Text</text>
      <text stroke-linecap="butt" x="396.0125" y="-168.4937" clip-path="url(#clipPath10)" font-family="sans-serif" stroke="none" stroke-miterlimit="1.45" xml:space="preserve">description: Text</text>
      <text stroke-linecap="butt" x="396.0125" y="-154.3609" clip-path="url(#clipPath10)" font-family="sans-serif" stroke="none" stroke-miterlimit="1.45" xml:space="preserve">url: URL</text>
      <text stroke-linecap="butt" x="396.0125" y="-140.2281" clip-path="url(#clipPath10)" font-family="sans-serif" stroke="none" stroke-miterlimit="1.45" xml:space="preserve">image: URL</text>
      <text stroke-linecap="butt" x="396.0125" y="-126.0953" clip-path="url(#clipPath10)" font-family="sans-serif" stroke="none" stroke-miterlimit="1.45" xml:space="preserve">startDate: DateTime</text>
      <text stroke-linecap="butt" x="396.0125" y="-111.9625" clip-path="url(#clipPath10)" font-family="sans-serif" stroke="none" stroke-miterlimit="1.45" xml:space="preserve">endDate: DateTime</text>
      <text stroke-linecap="butt" x="396.0125" y="-97.8297" clip-path="url(#clipPath10)" font-family="sans-serif" stroke="none" stroke-miterlimit="1.45" xml:space="preserve">status: EventStatus</text>
      <text stroke-linecap="butt" x="396.0125" y="-83.6969" clip-path="url(#clipPath10)" font-family="sans-serif" stroke="none" stroke-miterlimit="1.45" xml:space="preserve">organizer: Agent</text>
      <text stroke-linecap="butt" x="396.0125" y="-69.564" clip-path="url(#clipPath10)" font-family="sans-serif" stroke="none" stroke-miterlimit="1.45" xml:space="preserve">contributor: Agent</text>
      <text stroke-linecap="butt" x="396.0125" y="-55.4312" clip-path="url(#clipPath10)" font-family="sans-serif" stroke="none" stroke-miterlimit="1.45" xml:space="preserve">sponsor: Agent</text>
      <text stroke-linecap="butt" x="396.0125" y="-41.2984" clip-path="url(#clipPath10)" font-family="sans-serif" stroke="none" stroke-miterlimit="1.45" xml:space="preserve">attendee: Person</text>
      <text stroke-linecap="butt" x="396.0125" y="-27.1656" clip-path="url(#clipPath10)" font-family="sans-serif" stroke="none" stroke-miterlimit="1.45" xml:space="preserve">entryRequirements: Text</text>
      <text stroke-linecap="butt" x="396.0125" y="-13.0328" clip-path="url(#clipPath10)" font-family="sans-serif" stroke="none" stroke-miterlimit="1.45" xml:space="preserve">sportsDiscipline: SportsDiscipline</text>
      <text stroke-linecap="butt" x="396.0125" y="1.1" clip-path="url(#clipPath10)" font-family="sans-serif" stroke="none" stroke-miterlimit="1.45" xml:space="preserve">location: Place</text>
      <text stroke-linecap="butt" x="396.0125" y="15.2328" clip-path="url(#clipPath10)" font-family="sans-serif" stroke="none" stroke-miterlimit="1.45" xml:space="preserve">stage: Competition</text>
      <text stroke-linecap="butt" x="396.0125" y="29.3656" clip-path="url(#clipPath10)" font-family="sans-serif" stroke="none" stroke-miterlimit="1.45" xml:space="preserve">round: Competition</text>
      <text stroke-linecap="butt" x="396.0125" y="43.4985" clip-path="url(#clipPath10)" font-family="sans-serif" stroke="none" stroke-miterlimit="1.45" xml:space="preserve">qualificationCriteria: QualificationCriteria</text>
      <text stroke-linecap="butt" x="396.0125" y="57.6313" clip-path="url(#clipPath10)" font-family="sans-serif" stroke="none" stroke-miterlimit="1.45" xml:space="preserve">starter: Agent</text>
      <line y2="65" fill="none" x1="392" clip-path="url(#clipPath10)" x2="650" y1="65"/>
      <rect x="1394" y="-424" clip-path="url(#clipPath2)" fill="silver" width="141" height="176" stroke="none"/>
      <rect x="1393" y="-425" clip-path="url(#clipPath2)" fill="white" width="1" height="178" stroke="none"/>
      <rect x="1394" y="-425" clip-path="url(#clipPath2)" fill="white" width="141" height="1" stroke="none"/>
      <rect x="1394" y="-248" clip-path="url(#clipPath2)" fill="rgb(134,134,134)" width="142" height="1" stroke="none"/>
      <rect x="1535" y="-425" clip-path="url(#clipPath2)" fill="rgb(134,134,134)" width="1" height="177" stroke="none"/>
    </g>
    <g font-size="13px" stroke-linecap="butt" transform="matrix(1,0,0,1,-122,454)" text-rendering="geometricPrecision" font-family="sans-serif" shape-rendering="geometricPrecision" font-weight="bold" stroke-miterlimit="1.45">
      <text x="1447.7744" xml:space="preserve" y="-408.1225" clip-path="url(#clipPath11)" stroke="none">Place</text>
    </g>
    <g text-rendering="geometricPrecision" shape-rendering="geometricPrecision" transform="matrix(1,0,0,1,-122,454)">
      <line y2="-400" fill="none" x1="1394" clip-path="url(#clipPath11)" x2="1535" y1="-400"/>
      <text stroke-linecap="butt" x="1398.4639" y="-383.7787" clip-path="url(#clipPath11)" font-family="sans-serif" stroke="none" stroke-miterlimit="1.45" xml:space="preserve">identifier: Text</text>
      <text stroke-linecap="butt" x="1398.4639" y="-369.6459" clip-path="url(#clipPath11)" font-family="sans-serif" stroke="none" stroke-miterlimit="1.45" xml:space="preserve">name: Text</text>
      <text stroke-linecap="butt" x="1398.4639" y="-355.5131" clip-path="url(#clipPath11)" font-family="sans-serif" stroke="none" stroke-miterlimit="1.45" xml:space="preserve">description: Text</text>
      <text stroke-linecap="butt" x="1398.4639" y="-341.3803" clip-path="url(#clipPath11)" font-family="sans-serif" stroke="none" stroke-miterlimit="1.45" xml:space="preserve">address: PostalAddress</text>
      <text stroke-linecap="butt" x="1398.4639" y="-327.2475" clip-path="url(#clipPath11)" font-family="sans-serif" stroke="none" stroke-miterlimit="1.45" xml:space="preserve">url: URL</text>
      <text stroke-linecap="butt" x="1398.4639" y="-313.1147" clip-path="url(#clipPath11)" font-family="sans-serif" stroke="none" stroke-miterlimit="1.45" xml:space="preserve">image: URL</text>
      <text stroke-linecap="butt" x="1398.4639" y="-298.9818" clip-path="url(#clipPath11)" font-family="sans-serif" stroke="none" stroke-miterlimit="1.45" xml:space="preserve">geo: Text</text>
      <text stroke-linecap="butt" x="1398.4639" y="-284.849" clip-path="url(#clipPath11)" font-family="sans-serif" stroke="none" stroke-miterlimit="1.45" xml:space="preserve">map: URL</text>
      <text stroke-linecap="butt" x="1398.4639" y="-270.7162" clip-path="url(#clipPath11)" font-family="sans-serif" stroke="none" stroke-miterlimit="1.45" xml:space="preserve">telephone: Text</text>
      <text stroke-linecap="butt" x="1398.4639" y="-256.5834" clip-path="url(#clipPath11)" font-family="sans-serif" stroke="none" stroke-miterlimit="1.45" xml:space="preserve">faxNumber: Text</text>
      <line y2="-249" fill="none" x1="1394" clip-path="url(#clipPath11)" x2="1535" y1="-249"/>
      <rect x="438" y="-414" clip-path="url(#clipPath2)" fill="rgb(255,255,153)" width="164" height="86" stroke="none"/>
      <rect x="437" y="-415" clip-path="url(#clipPath2)" fill="rgb(255,255,218)" width="1" height="88" stroke="none"/>
      <rect x="438" y="-415" clip-path="url(#clipPath2)" fill="rgb(255,255,218)" width="164" height="1" stroke="none"/>
      <rect x="438" y="-328" clip-path="url(#clipPath2)" fill="rgb(178,178,107)" width="165" height="1" stroke="none"/>
      <rect x="602" y="-415" clip-path="url(#clipPath2)" fill="rgb(178,178,107)" width="1" height="87" stroke="none"/>
    </g>
    <g font-size="13px" stroke-linecap="butt" transform="matrix(1,0,0,1,-122,454)" text-rendering="geometricPrecision" font-family="sans-serif" shape-rendering="geometricPrecision" font-weight="bold" stroke-miterlimit="1.45">
      <text x="459.8833" xml:space="preserve" y="-397.4363" clip-path="url(#clipPath12)" stroke="none">CompetitionSeries</text>
    </g>
    <g text-rendering="geometricPrecision" shape-rendering="geometricPrecision" transform="matrix(1,0,0,1,-122,454)">
      <line y2="-389" fill="none" x1="438" clip-path="url(#clipPath12)" x2="603" y1="-389"/>
      <text stroke-linecap="butt" x="442.8533" y="-373.0925" clip-path="url(#clipPath12)" font-family="sans-serif" stroke="none" stroke-miterlimit="1.45" xml:space="preserve">identifier: Text</text>
      <text stroke-linecap="butt" x="442.8533" y="-358.9597" clip-path="url(#clipPath12)" font-family="sans-serif" stroke="none" stroke-miterlimit="1.45" xml:space="preserve">name: Text</text>
      <text stroke-linecap="butt" x="442.8533" y="-344.8269" clip-path="url(#clipPath12)" font-family="sans-serif" stroke="none" stroke-miterlimit="1.45" xml:space="preserve">alternateName: Text</text>
      <text stroke-linecap="butt" x="442.8533" y="-330.6941" clip-path="url(#clipPath12)" font-family="sans-serif" stroke="none" stroke-miterlimit="1.45" xml:space="preserve">description: Text</text>
      <line y2="-323" fill="none" x1="438" clip-path="url(#clipPath12)" x2="603" y1="-323"/>
      <rect x="1101" y="-424" clip-path="url(#clipPath2)" fill="silver" width="239" height="110" stroke="none"/>
      <rect x="1100" y="-425" clip-path="url(#clipPath2)" fill="white" width="1" height="112" stroke="none"/>
      <rect x="1101" y="-425" clip-path="url(#clipPath2)" fill="white" width="239" height="1" stroke="none"/>
      <rect x="1101" y="-314" clip-path="url(#clipPath2)" fill="rgb(134,134,134)" width="240" height="1" stroke="none"/>
      <rect x="1340" y="-425" clip-path="url(#clipPath2)" fill="rgb(134,134,134)" width="1" height="111" stroke="none"/>
    </g>
    <g font-size="13px" stroke-linecap="butt" transform="matrix(1,0,0,1,-122,454)" text-rendering="geometricPrecision" font-family="sans-serif" shape-rendering="geometricPrecision" font-weight="bold" stroke-miterlimit="1.45">
      <text x="1177.7153" xml:space="preserve" y="-408.1225" clip-path="url(#clipPath13)" stroke="none">Timekeeping</text>
    </g>
    <g text-rendering="geometricPrecision" shape-rendering="geometricPrecision" transform="matrix(1,0,0,1,-122,454)">
      <line y2="-400" fill="none" x1="1101" clip-path="url(#clipPath13)" x2="1340" y1="-400"/>
      <text stroke-linecap="butt" x="1105.5328" y="-383.7787" clip-path="url(#clipPath13)" font-family="sans-serif" stroke="none" stroke-miterlimit="1.45" xml:space="preserve">identifier: Text</text>
      <text stroke-linecap="butt" x="1105.5328" y="-369.6459" clip-path="url(#clipPath13)" font-family="sans-serif" stroke="none" stroke-miterlimit="1.45" xml:space="preserve">timekeepingType: TimekeepingType</text>
      <text stroke-linecap="butt" x="1105.5328" y="-355.5131" clip-path="url(#clipPath13)" font-family="sans-serif" stroke="none" stroke-miterlimit="1.45" xml:space="preserve">name: Text</text>
      <text stroke-linecap="butt" x="1105.5328" y="-341.3803" clip-path="url(#clipPath13)" font-family="sans-serif" stroke="none" stroke-miterlimit="1.45" xml:space="preserve">description: Text</text>
      <text stroke-linecap="butt" x="1105.5328" y="-327.2475" clip-path="url(#clipPath13)" font-family="sans-serif" stroke="none" stroke-miterlimit="1.45" xml:space="preserve">instrument: Text</text>
      <line y2="-319" fill="none" x1="1101" clip-path="url(#clipPath13)" x2="1340" y1="-319"/>
      <rect x="532" y="272" clip-path="url(#clipPath2)" fill="rgb(255,255,153)" width="181" height="26" stroke="none"/>
      <rect x="531" y="271" clip-path="url(#clipPath2)" fill="rgb(255,255,218)" width="1" height="28" stroke="none"/>
      <rect x="532" y="271" clip-path="url(#clipPath2)" fill="rgb(255,255,218)" width="181" height="1" stroke="none"/>
      <rect x="532" y="298" clip-path="url(#clipPath2)" fill="rgb(178,178,107)" width="182" height="1" stroke="none"/>
      <rect x="713" y="271" clip-path="url(#clipPath2)" fill="rgb(178,178,107)" width="1" height="27" stroke="none"/>
    </g>
    <g font-size="13px" stroke-linecap="butt" transform="matrix(1,0,0,1,-122,454)" text-rendering="geometricPrecision" font-family="sans-serif" shape-rendering="geometricPrecision" font-weight="bold" stroke-miterlimit="1.45">
      <text x="552.4544" xml:space="preserve" y="288.6802" clip-path="url(#clipPath14)" stroke="none">UnitFieldCompetition</text>
    </g>
    <g fill="rgb(255,255,153)" text-rendering="geometricPrecision" shape-rendering="geometricPrecision" transform="matrix(1,0,0,1,-122,454)" stroke="rgb(255,255,153)">
      <rect x="304" width="183" height="86" y="252" clip-path="url(#clipPath2)" stroke="none"/>
      <rect x="303" y="251" clip-path="url(#clipPath2)" fill="rgb(255,255,218)" width="1" height="88" stroke="none"/>
      <rect x="304" y="251" clip-path="url(#clipPath2)" fill="rgb(255,255,218)" width="183" height="1" stroke="none"/>
      <rect x="304" y="338" clip-path="url(#clipPath2)" fill="rgb(178,178,107)" width="184" height="1" stroke="none"/>
      <rect x="487" y="251" clip-path="url(#clipPath2)" fill="rgb(178,178,107)" width="1" height="87" stroke="none"/>
    </g>
    <g font-size="13px" stroke-linecap="butt" transform="matrix(1,0,0,1,-122,454)" text-rendering="geometricPrecision" font-family="sans-serif" shape-rendering="geometricPrecision" font-weight="bold" stroke-miterlimit="1.45">
      <text x="367.2049" xml:space="preserve" y="269.04" clip-path="url(#clipPath15)" stroke="none">UnitRace</text>
    </g>
    <g text-rendering="geometricPrecision" shape-rendering="geometricPrecision" transform="matrix(1,0,0,1,-122,454)">
      <line y2="276" fill="none" x1="304" clip-path="url(#clipPath15)" x2="488" y1="276"/>
      <text stroke-linecap="butt" x="308.6155" y="293.3838" clip-path="url(#clipPath15)" font-family="sans-serif" stroke="none" stroke-miterlimit="1.45" xml:space="preserve">startPoint: Place</text>
      <text stroke-linecap="butt" x="308.6155" y="307.5166" clip-path="url(#clipPath15)" font-family="sans-serif" stroke="none" stroke-miterlimit="1.45" xml:space="preserve">finishPoint: Place</text>
      <text stroke-linecap="butt" x="308.6155" y="321.6494" clip-path="url(#clipPath15)" font-family="sans-serif" stroke="none" stroke-miterlimit="1.45" xml:space="preserve">course: GeoShape</text>
      <text stroke-linecap="butt" x="308.6155" y="335.7822" clip-path="url(#clipPath15)" font-family="sans-serif" stroke="none" stroke-miterlimit="1.45" xml:space="preserve">timekeeping: Timekeeping</text>
      <line y2="343" fill="none" x1="304" clip-path="url(#clipPath15)" x2="488" y1="343"/>
      <rect x="429" y="167" clip-path="url(#clipPath2)" fill="rgb(255,255,153)" width="183" height="26" stroke="none"/>
      <rect x="428" y="166" clip-path="url(#clipPath2)" fill="rgb(255,255,218)" width="1" height="28" stroke="none"/>
      <rect x="429" y="166" clip-path="url(#clipPath2)" fill="rgb(255,255,218)" width="183" height="1" stroke="none"/>
      <rect x="429" y="193" clip-path="url(#clipPath2)" fill="rgb(178,178,107)" width="184" height="1" stroke="none"/>
      <rect x="612" y="166" clip-path="url(#clipPath2)" fill="rgb(178,178,107)" width="1" height="27" stroke="none"/>
    </g>
    <g font-size="13px" stroke-linecap="butt" transform="matrix(1,0,0,1,-122,454)" text-rendering="geometricPrecision" font-family="sans-serif" shape-rendering="geometricPrecision" font-weight="bold" stroke-miterlimit="1.45">
      <text x="466.1548" xml:space="preserve" y="183.7321" clip-path="url(#clipPath16)" stroke="none">UnitCompetition</text>
    </g>
    <g fill="rgb(204,255,204)" text-rendering="geometricPrecision" shape-rendering="geometricPrecision" transform="matrix(1,0,0,1,-122,454)" stroke="rgb(204,255,204)">
      <rect x="789" width="258" height="110" y="-20" clip-path="url(#clipPath2)" stroke="none"/>
      <rect x="788" y="-21" clip-path="url(#clipPath2)" fill="white" width="1" height="112" stroke="none"/>
      <rect x="789" y="-21" clip-path="url(#clipPath2)" fill="white" width="258" height="1" stroke="none"/>
      <rect x="789" y="90" clip-path="url(#clipPath2)" fill="rgb(142,178,142)" width="259" height="1" stroke="none"/>
      <rect x="1047" y="-21" clip-path="url(#clipPath2)" fill="rgb(142,178,142)" width="1" height="111" stroke="none"/>
    </g>
    <g font-size="13px" stroke-linecap="butt" transform="matrix(1,0,0,1,-122,454)" text-rendering="geometricPrecision" font-family="sans-serif" shape-rendering="geometricPrecision" font-weight="bold" stroke-miterlimit="1.45">
      <text x="881.0513" xml:space="preserve" y="-3.5288" clip-path="url(#clipPath17)" stroke="none">Competitor</text>
    </g>
    <g text-rendering="geometricPrecision" shape-rendering="geometricPrecision" transform="matrix(1,0,0,1,-122,454)">
      <line y2="4" fill="none" x1="789" clip-path="url(#clipPath17)" x2="1047" y1="4"/>
      <text stroke-linecap="butt" x="793.6783" y="20.815" clip-path="url(#clipPath17)" font-family="sans-serif" stroke="none" stroke-miterlimit="1.45" xml:space="preserve">bibIdentifier: Text </text>
      <text stroke-linecap="butt" x="793.6783" y="34.9478" clip-path="url(#clipPath17)" font-family="sans-serif" stroke="none" stroke-miterlimit="1.45" xml:space="preserve">transponderIdentifier: Text</text>
      <text stroke-linecap="butt" x="793.6783" y="49.0806" clip-path="url(#clipPath17)" font-family="sans-serif" stroke="none" stroke-miterlimit="1.45" xml:space="preserve">agent: Agent</text>
      <text stroke-linecap="butt" x="793.6783" y="63.2134" clip-path="url(#clipPath17)" font-family="sans-serif" stroke="none" stroke-miterlimit="1.45" xml:space="preserve">competitorStatus: CompetitorStatusType</text>
      <text stroke-linecap="butt" x="793.6783" y="77.3462" clip-path="url(#clipPath17)" font-family="sans-serif" stroke="none" stroke-miterlimit="1.45" xml:space="preserve">disqualificationReason: Text</text>
      <line y2="84" fill="none" x1="789" clip-path="url(#clipPath17)" x2="1047" y1="84"/>
      <path fill="none" stroke-miterlimit="1.45" d="M1427.4775 269.5316 L1306.0155 190.2894" stroke-width="2" clip-path="url(#clipPath2)" stroke-linecap="butt"/>
    </g>
    <g stroke-linecap="butt" transform="matrix(1,0,0,1,-122,454)" fill="white" text-rendering="geometricPrecision" shape-rendering="geometricPrecision" stroke="white" stroke-width="2" stroke-miterlimit="1.45">
      <path d="M1291.8823 181.0689 L1303.2695 196.5574 L1310.646 185.2508 Z" stroke="none" clip-path="url(#clipPath2)"/>
      <path fill="none" d="M1291.8823 181.0689 L1303.2695 196.5574 L1310.646 185.2508 Z" stroke-width="1" clip-path="url(#clipPath2)" stroke="black"/>
      <path fill="none" d="M1291.8491 269.2401 L1291.8491 197.9653" clip-path="url(#clipPath2)" stroke="black"/>
      <path d="M1291.8491 181.0903 L1285.0991 199.0903 L1298.5991 199.0903 Z" clip-path="url(#clipPath2)" stroke="none"/>
      <path fill="none" d="M1291.8491 181.0903 L1285.0991 199.0903 L1298.5991 199.0903 Z" stroke-width="1" clip-path="url(#clipPath2)" stroke="black"/>
      <path fill="none" d="M1125.7705 269.2261 L1276.9042 188.9823" clip-path="url(#clipPath2)" stroke="black"/>
      <path d="M1291.8086 181.0688 L1272.7451 183.548 L1279.0759 195.4716 Z" clip-path="url(#clipPath2)" stroke="none"/>
      <path fill="none" d="M1291.8086 181.0688 L1272.7451 183.548 L1279.0759 195.4716 Z" stroke-width="1" clip-path="url(#clipPath2)" stroke="black"/>
    </g>
    <g text-rendering="geometricPrecision" stroke-miterlimit="1.45" shape-rendering="geometricPrecision" font-family="sans-serif" transform="matrix(1,0,0,1,-122,454)" stroke-linecap="butt">
      <text x="1321.8015" xml:space="preserve" y="182.5308" clip-path="url(#clipPath2)" stroke="none">subClassOf</text>
      <path fill="none" d="M1291.7069 -47.8676 L1291.7069 66.5447" stroke-width="2" clip-path="url(#clipPath2)"/>
      <path d="M1291.7069 -56.8676 L1286.0819 -43.3676 L1291.7069 -46.7426 L1297.3319 -43.3676 Z" stroke-width="2" clip-path="url(#clipPath2)" stroke="none"/>
      <path d="M1291.7069 75.5447 L1297.3319 62.0447 L1291.7069 65.4197 L1286.0819 62.0447 Z" stroke-width="2" clip-path="url(#clipPath2)" stroke="none"/>
      <text x="1308.1608" xml:space="preserve" y="66.0352" clip-path="url(#clipPath2)" stroke="none">performance</text>
      <text x="1305.1483" xml:space="preserve" y="-38.2717" clip-path="url(#clipPath2)" stroke="none">result</text>
      <path fill="none" d="M390.9922 -252.7208 L351.1324 -252.7281 L351.1324 -226.0382 L382.0213 -224.1707" stroke-width="2" clip-path="url(#clipPath2)"/>
      <path d="M391.0049 -223.6276 L377.869 -230.0571 L380.8983 -224.2386 L377.19 -218.8275 Z" stroke-width="2" clip-path="url(#clipPath2)" stroke="none"/>
      <text x="300.7037" xml:space="preserve" y="-274.2997" clip-path="url(#clipPath2)" stroke="none">subEvent</text>
      <text x="289.108" xml:space="preserve" y="-260.1669" clip-path="url(#clipPath2)" stroke="none">superEvent</text>
      <path fill="none" d="M651.129 -147.1118 L1133.1351 -147.0473" stroke-width="2" clip-path="url(#clipPath2)"/>
      <path d="M1142.1351 -147.0461 L1128.6359 -152.6729 L1132.0101 -147.0474 L1128.6344 -141.4229 Z" stroke-width="2" clip-path="url(#clipPath2)" stroke="none"/>
      <text x="1102.0077" xml:space="preserve" y="-158.6539" clip-path="url(#clipPath2)" stroke="none">result</text>
      <path fill="none" d="M391.0487 3.526 L313.9311 1.3258" stroke-width="2" clip-path="url(#clipPath2)"/>
      <path d="M304.9348 1.0691 L318.2688 7.0768 L315.0556 1.3578 L318.5897 -4.1686 Z" stroke-width="2" clip-path="url(#clipPath2)" stroke="none"/>
      <text x="311.9374" xml:space="preserve" y="36.5292" clip-path="url(#clipPath2)" stroke="none">category</text>
      <path fill="none" d="M521.3605 -261.8193 L521.2135 -318.0026" stroke-width="2" clip-path="url(#clipPath2)"/>
      <path d="M521.3841 -252.8194 L526.9738 -266.334 L521.3576 -262.9443 L515.7238 -266.3046 Z" stroke-width="2" clip-path="url(#clipPath2)" stroke="none"/>
      <path d="M521.1899 -327.0026 L515.6003 -313.4879 L521.2164 -316.8776 L526.8503 -313.5173 Z" stroke-width="2" clip-path="url(#clipPath2)" stroke="none"/>
      <text x="570.2927" xml:space="preserve" y="-262.3355" clip-path="url(#clipPath2)" stroke="none">subEvent</text>
      <text x="568.3062" xml:space="preserve" y="-307.2219" clip-path="url(#clipPath2)" stroke="none">superEvent</text>
      <path fill="none" d="M425.2115 251.4526 L490.8912 204.0597" stroke-width="2" clip-path="url(#clipPath2)"/>
    </g>
    <g stroke-linecap="butt" transform="matrix(1,0,0,1,-122,454)" fill="white" text-rendering="geometricPrecision" shape-rendering="geometricPrecision" stroke="white" stroke-width="2" stroke-miterlimit="1.45">
      <path d="M504.5756 194.1853 L486.0291 199.2442 L493.9286 210.1917 Z" stroke="none" clip-path="url(#clipPath2)"/>
      <path fill="none" d="M504.5756 194.1853 L486.0291 199.2442 L493.9286 210.1917 Z" stroke-width="1" clip-path="url(#clipPath2)" stroke="black"/>
      <path fill="none" d="M618.319 271.136 L540.4652 205.0959" clip-path="url(#clipPath2)" stroke="black"/>
      <path d="M527.5964 194.1799 L536.9567 210.9712 L545.6896 200.6762 Z" clip-path="url(#clipPath2)" stroke="none"/>
      <path fill="none" d="M527.5964 194.1799 L536.9567 210.9712 L545.6896 200.6762 Z" stroke-width="1" clip-path="url(#clipPath2)" stroke="black"/>
    </g>
    <g text-rendering="geometricPrecision" stroke-miterlimit="1.45" shape-rendering="geometricPrecision" font-family="sans-serif" transform="matrix(1,0,0,1,-122,454)" stroke-linecap="butt">
      <text x="597.6316" xml:space="preserve" y="215.4301" clip-path="url(#clipPath2)" stroke="none">subClassOf</text>
      <path fill="none" d="M521.0748 166.1322 L521.0748 86.9576" stroke-width="2" clip-path="url(#clipPath2)"/>
    </g>
    <g stroke-linecap="butt" transform="matrix(1,0,0,1,-122,454)" fill="white" text-rendering="geometricPrecision" shape-rendering="geometricPrecision" stroke="white" stroke-width="2" stroke-miterlimit="1.45">
      <path d="M521.0748 70.0826 L514.3248 88.0826 L527.8248 88.0826 Z" stroke="none" clip-path="url(#clipPath2)"/>
      <path fill="none" d="M521.0748 70.0826 L514.3248 88.0826 L527.8248 88.0826 Z" stroke-width="1" clip-path="url(#clipPath2)" stroke="black"/>
    </g>
    <g text-rendering="geometricPrecision" stroke-miterlimit="1.45" shape-rendering="geometricPrecision" font-family="sans-serif" transform="matrix(1,0,0,1,-122,454)" stroke-linecap="butt">
      <text x="525.962" xml:space="preserve" y="88.6821" clip-path="url(#clipPath2)" stroke="none">subClassOf</text>
      <path fill="none" d="M1142.1542 -58.4544 L1057.0327 -20.2792" stroke-width="2" clip-path="url(#clipPath2)"/>
      <path d="M1048.8208 -16.5963 L1063.4406 -16.9882 L1058.0592 -20.7396 L1058.8369 -27.2532 Z" stroke-width="2" clip-path="url(#clipPath2)" stroke="none"/>
      <text x="1038.0615" xml:space="preserve" y="-54.3955" clip-path="url(#clipPath2)" stroke="none">competitor</text>
      <path fill="none" d="M779.6916 35.9674 L660.1454 35.9674" stroke-width="2" clip-path="url(#clipPath2)"/>
      <path d="M788.6916 35.9674 L775.1916 30.3424 L778.5666 35.9674 L775.1916 41.5924 Z" stroke-width="2" clip-path="url(#clipPath2)" stroke="none"/>
      <path d="M651.1454 35.9674 L664.6454 41.5924 L661.2704 35.9674 L664.6454 30.3424 Z" stroke-width="2" clip-path="url(#clipPath2)" stroke="none"/>
      <text x="658.137" xml:space="preserve" y="-19.0638" clip-path="url(#clipPath2)" stroke="none">inCompetition</text>
      <text x="708.0611" xml:space="preserve" y="70.5025" clip-path="url(#clipPath2)" stroke="none">participation</text>
      <path fill="none" d="M1048.7728 67.667 L1183.0912 101.1805" stroke-width="2" clip-path="url(#clipPath2)"/>
      <path d="M1191.8235 103.3593 L1180.0868 94.6334 L1181.9996 100.9081 L1177.3633 105.5488 Z" stroke-width="2" clip-path="url(#clipPath2)" stroke="none"/>
      <text x="1083.3503" xml:space="preserve" y="90.0552" clip-path="url(#clipPath2)" stroke="none">performance</text>
    </g>
  </g>
</svg>
