<?xml version="1.0" encoding="UTF-8"?><svg xmlns="http://www.w3.org/2000/svg" xmlns:xlink="http://www.w3.org/1999/xlink" fill-opacity="1" color-rendering="auto" color-interpolation="auto" text-rendering="auto" stroke="black" stroke-linecap="square" width="1603" stroke-miterlimit="10" shape-rendering="auto" stroke-opacity="1" fill="black" stroke-dasharray="none" font-weight="normal" stroke-width="1" height="780" font-family="'Dialog'" font-style="normal" stroke-linejoin="miter" font-size="12px" stroke-dashoffset="0" image-rendering="auto">
  <!--Generated by ySVG 2.5-->
  <defs id="genericDefs"/>
  <g>
    <defs id="defs1">
      <clipPath clipPathUnits="userSpaceOnUse" id="clipPath1">
        <path d="M0 0 L1603 0 L1603 780 L0 780 L0 0 Z"/>
      </clipPath>
      <clipPath clipPathUnits="userSpaceOnUse" id="clipPath2">
        <path d="M0 -431 L1603 -431 L1603 349 L0 349 L0 -431 Z"/>
      </clipPath>
      <clipPath clipPathUnits="userSpaceOnUse" id="clipPath3">
        <path d="M1191 75 L1191 180 L1391 180 L1391 75 Z"/>
      </clipPath>
      <clipPath clipPathUnits="userSpaceOnUse" id="clipPath4">
        <path d="M1427 269 L1427 333 L1586 333 L1586 269 Z"/>
      </clipPath>
      <clipPath clipPathUnits="userSpaceOnUse" id="clipPath5">
        <path d="M1211 269 L1211 321 L1370 321 L1370 269 Z"/>
      </clipPath>
      <clipPath clipPathUnits="userSpaceOnUse" id="clipPath6">
        <path d="M996 269 L996 321 L1155 321 L1155 269 Z"/>
      </clipPath>
      <clipPath clipPathUnits="userSpaceOnUse" id="clipPath7">
        <path d="M1142 -217 L1142 -57 L1424 -57 L1424 -217 Z"/>
      </clipPath>
      <clipPath clipPathUnits="userSpaceOnUse" id="clipPath8">
        <path d="M15 1 L15 78 L195 78 L195 1 Z"/>
      </clipPath>
      <clipPath clipPathUnits="userSpaceOnUse" id="clipPath9">
        <path d="M15 -170 L15 -33 L182 -33 L182 -170 Z"/>
      </clipPath>
      <clipPath clipPathUnits="userSpaceOnUse" id="clipPath10">
        <path d="M391 -241 L391 48 L651 48 L651 -241 Z"/>
      </clipPath>
      <clipPath clipPathUnits="userSpaceOnUse" id="clipPath11">
        <path d="M437 -415 L437 -327 L603 -327 L603 -415 Z"/>
      </clipPath>
      <clipPath clipPathUnits="userSpaceOnUse" id="clipPath12">
        <path d="M15 186 L15 298 L256 298 L256 186 Z"/>
      </clipPath>
      <clipPath clipPathUnits="userSpaceOnUse" id="clipPath13">
        <path d="M531 228 L531 256 L714 256 L714 228 Z"/>
      </clipPath>
      <clipPath clipPathUnits="userSpaceOnUse" id="clipPath14">
        <path d="M332 208 L332 285 L517 285 L517 208 Z"/>
      </clipPath>
      <clipPath clipPathUnits="userSpaceOnUse" id="clipPath15">
        <path d="M428 114 L428 142 L613 142 L613 114 Z"/>
      </clipPath>
      <clipPath clipPathUnits="userSpaceOnUse" id="clipPath16">
        <path d="M781 -39 L781 73 L1041 73 L1041 -39 Z"/>
      </clipPath>
      <clipPath clipPathUnits="userSpaceOnUse" id="clipPath17">
        <path d="M15 -415 L15 -237 L158 -237 L158 -415 Z"/>
      </clipPath>
    </defs>
    <g fill="white" text-rendering="geometricPrecision" shape-rendering="geometricPrecision" transform="translate(0,431)" stroke="white">
      <rect x="0" width="1603" height="780" y="-431" clip-path="url(#clipPath2)" stroke="none"/>
    </g>
    <g fill="rgb(255,255,153)" text-rendering="geometricPrecision" shape-rendering="geometricPrecision" transform="matrix(1,0,0,1,0,431)" stroke="rgb(255,255,153)">
      <rect x="1192" width="198" height="103" y="76" clip-path="url(#clipPath2)" stroke="none"/>
      <rect x="1191" y="75" clip-path="url(#clipPath2)" fill="rgb(255,255,218)" width="1" height="105" stroke="none"/>
      <rect x="1192" y="75" clip-path="url(#clipPath2)" fill="rgb(255,255,218)" width="198" height="1" stroke="none"/>
      <rect x="1192" y="179" clip-path="url(#clipPath2)" fill="rgb(178,178,107)" width="199" height="1" stroke="none"/>
      <rect x="1390" y="75" clip-path="url(#clipPath2)" fill="rgb(178,178,107)" width="1" height="104" stroke="none"/>
    </g>
    <g font-size="13px" stroke-linecap="butt" transform="matrix(1,0,0,1,0,431)" text-rendering="geometricPrecision" font-family="sans-serif" shape-rendering="geometricPrecision" font-weight="bold" stroke-miterlimit="1.45">
      <text x="1249.6372" xml:space="preserve" y="93.1348" clip-path="url(#clipPath3)" stroke="none">Performance</text>
    </g>
    <g text-rendering="geometricPrecision" shape-rendering="geometricPrecision" transform="matrix(1,0,0,1,0,431)">
      <line y2="100" fill="none" x1="1192" clip-path="url(#clipPath3)" x2="1390" y1="100"/>
      <text stroke-linecap="butt" x="1196.8491" y="117.4785" clip-path="url(#clipPath3)" font-family="sans-serif" stroke="none" stroke-miterlimit="1.45" xml:space="preserve">identifier: Text</text>
      <text stroke-linecap="butt" x="1196.8491" y="131.6113" clip-path="url(#clipPath3)" font-family="sans-serif" stroke="none" stroke-miterlimit="1.45" xml:space="preserve">discipline: Discipline</text>
      <text stroke-linecap="butt" x="1196.8491" y="145.7442" clip-path="url(#clipPath3)" font-family="sans-serif" stroke="none" stroke-miterlimit="1.45" xml:space="preserve">windAssistance: Text</text>
      <text stroke-linecap="butt" x="1196.8491" y="159.877" clip-path="url(#clipPath3)" font-family="sans-serif" stroke="none" stroke-miterlimit="1.45" xml:space="preserve">recordOrBest: RecordOrBest</text>
      <text stroke-linecap="butt" x="1196.8491" y="174.0098" clip-path="url(#clipPath3)" font-family="sans-serif" stroke="none" stroke-miterlimit="1.45" xml:space="preserve">agent: Agent</text>
      <line y2="181" fill="none" x1="1192" clip-path="url(#clipPath3)" x2="1390" y1="181"/>
      <rect x="1428" y="270" clip-path="url(#clipPath2)" fill="rgb(255,255,153)" width="157" height="62" stroke="none"/>
      <rect x="1427" y="269" clip-path="url(#clipPath2)" fill="rgb(255,255,218)" width="1" height="64" stroke="none"/>
      <rect x="1428" y="269" clip-path="url(#clipPath2)" fill="rgb(255,255,218)" width="157" height="1" stroke="none"/>
      <rect x="1428" y="332" clip-path="url(#clipPath2)" fill="rgb(178,178,107)" width="158" height="1" stroke="none"/>
      <rect x="1585" y="269" clip-path="url(#clipPath2)" fill="rgb(178,178,107)" width="1" height="63" stroke="none"/>
    </g>
    <g font-size="13px" stroke-linecap="butt" transform="matrix(1,0,0,1,0,431)" text-rendering="geometricPrecision" font-family="sans-serif" shape-rendering="geometricPrecision" font-weight="bold" stroke-miterlimit="1.45">
      <text x="1448.4373" xml:space="preserve" y="286.79" clip-path="url(#clipPath4)" stroke="none">TimePerformance</text>
    </g>
    <g text-rendering="geometricPrecision" shape-rendering="geometricPrecision" transform="matrix(1,0,0,1,0,431)">
      <line y2="294" fill="none" x1="1428" clip-path="url(#clipPath4)" x2="1586" y1="294"/>
      <text stroke-linecap="butt" x="1432.4844" y="311.1338" clip-path="url(#clipPath4)" font-family="sans-serif" stroke="none" stroke-miterlimit="1.45" xml:space="preserve">time: Duration</text>
      <text stroke-linecap="butt" x="1432.4844" y="325.2666" clip-path="url(#clipPath4)" font-family="sans-serif" stroke="none" stroke-miterlimit="1.45" xml:space="preserve">reactionTime: Duration</text>
      <line y2="332" fill="none" x1="1428" clip-path="url(#clipPath4)" x2="1586" y1="332"/>
      <rect x="1212" y="270" clip-path="url(#clipPath2)" fill="rgb(255,255,153)" width="157" height="50" stroke="none"/>
      <rect x="1211" y="269" clip-path="url(#clipPath2)" fill="rgb(255,255,218)" width="1" height="52" stroke="none"/>
      <rect x="1212" y="269" clip-path="url(#clipPath2)" fill="rgb(255,255,218)" width="157" height="1" stroke="none"/>
      <rect x="1212" y="320" clip-path="url(#clipPath2)" fill="rgb(178,178,107)" width="158" height="1" stroke="none"/>
      <rect x="1369" y="269" clip-path="url(#clipPath2)" fill="rgb(178,178,107)" width="1" height="51" stroke="none"/>
    </g>
    <g font-size="13px" stroke-linecap="butt" transform="matrix(1,0,0,1,0,431)" text-rendering="geometricPrecision" font-family="sans-serif" shape-rendering="geometricPrecision" font-weight="bold" stroke-miterlimit="1.45">
      <text x="1220.7014" xml:space="preserve" y="286.79" clip-path="url(#clipPath5)" stroke="none">DistancePerformance</text>
    </g>
    <g text-rendering="geometricPrecision" shape-rendering="geometricPrecision" transform="matrix(1,0,0,1,0,431)">
      <line y2="294" fill="none" x1="1212" clip-path="url(#clipPath5)" x2="1370" y1="294"/>
      <text stroke-linecap="butt" x="1216.9741" y="311.1338" clip-path="url(#clipPath5)" font-family="sans-serif" stroke="none" stroke-miterlimit="1.45" xml:space="preserve">distance: Distance</text>
      <line y2="318" fill="none" x1="1212" clip-path="url(#clipPath5)" x2="1370" y1="318"/>
      <rect x="997" y="270" clip-path="url(#clipPath2)" fill="rgb(255,255,153)" width="157" height="50" stroke="none"/>
      <rect x="996" y="269" clip-path="url(#clipPath2)" fill="rgb(255,255,218)" width="1" height="52" stroke="none"/>
      <rect x="997" y="269" clip-path="url(#clipPath2)" fill="rgb(255,255,218)" width="157" height="1" stroke="none"/>
      <rect x="997" y="320" clip-path="url(#clipPath2)" fill="rgb(178,178,107)" width="158" height="1" stroke="none"/>
      <rect x="1154" y="269" clip-path="url(#clipPath2)" fill="rgb(178,178,107)" width="1" height="51" stroke="none"/>
    </g>
    <g font-size="13px" stroke-linecap="butt" transform="matrix(1,0,0,1,0,431)" text-rendering="geometricPrecision" font-family="sans-serif" shape-rendering="geometricPrecision" font-weight="bold" stroke-miterlimit="1.45">
      <text x="1013.2972" xml:space="preserve" y="286.79" clip-path="url(#clipPath6)" stroke="none">PointsPerformance</text>
    </g>
    <g text-rendering="geometricPrecision" shape-rendering="geometricPrecision" transform="matrix(1,0,0,1,0,431)">
      <line y2="294" fill="none" x1="997" clip-path="url(#clipPath6)" x2="1155" y1="294"/>
      <text stroke-linecap="butt" x="1001.4639" y="311.1338" clip-path="url(#clipPath6)" font-family="sans-serif" stroke="none" stroke-miterlimit="1.45" xml:space="preserve">scorePoints: Number</text>
      <line y2="318" fill="none" x1="997" clip-path="url(#clipPath6)" x2="1155" y1="318"/>
      <rect x="1143" y="-216" clip-path="url(#clipPath2)" fill="rgb(255,255,153)" width="280" height="158" stroke="none"/>
      <rect x="1142" y="-217" clip-path="url(#clipPath2)" fill="rgb(255,255,218)" width="1" height="160" stroke="none"/>
      <rect x="1143" y="-217" clip-path="url(#clipPath2)" fill="rgb(255,255,218)" width="280" height="1" stroke="none"/>
      <rect x="1143" y="-58" clip-path="url(#clipPath2)" fill="rgb(178,178,107)" width="281" height="1" stroke="none"/>
      <rect x="1423" y="-217" clip-path="url(#clipPath2)" fill="rgb(178,178,107)" width="1" height="159" stroke="none"/>
    </g>
    <g font-size="13px" stroke-linecap="butt" transform="matrix(1,0,0,1,0,431)" text-rendering="geometricPrecision" font-family="sans-serif" shape-rendering="geometricPrecision" font-weight="bold" stroke-miterlimit="1.45">
      <text x="1262.4465" xml:space="preserve" y="-200.1225" clip-path="url(#clipPath7)" stroke="none">Result</text>
    </g>
    <g text-rendering="geometricPrecision" shape-rendering="geometricPrecision" transform="matrix(1,0,0,1,0,431)">
      <line y2="-192" fill="none" x1="1143" clip-path="url(#clipPath7)" x2="1423" y1="-192"/>
      <text stroke-linecap="butt" x="1147.1249" y="-175.7787" clip-path="url(#clipPath7)" font-family="sans-serif" stroke="none" stroke-miterlimit="1.45" xml:space="preserve">rank: Number</text>
      <text stroke-linecap="butt" x="1147.1249" y="-161.6459" clip-path="url(#clipPath7)" font-family="sans-serif" stroke="none" stroke-miterlimit="1.45" xml:space="preserve">competitionFeature: CompetitionFeatureType</text>
      <text stroke-linecap="butt" x="1147.1249" y="-147.5131" clip-path="url(#clipPath7)" font-family="sans-serif" stroke="none" stroke-miterlimit="1.45" xml:space="preserve">protestStatus: ProtestStatusType</text>
      <text stroke-linecap="butt" x="1147.1249" y="-133.3803" clip-path="url(#clipPath7)" font-family="sans-serif" stroke="none" stroke-miterlimit="1.45" xml:space="preserve">startingOrder: Number</text>
      <text stroke-linecap="butt" x="1147.1249" y="-119.2475" clip-path="url(#clipPath7)" font-family="sans-serif" stroke="none" stroke-miterlimit="1.45" xml:space="preserve">trackLane: Number</text>
      <text stroke-linecap="butt" x="1147.1249" y="-105.1147" clip-path="url(#clipPath7)" font-family="sans-serif" stroke="none" stroke-miterlimit="1.45" xml:space="preserve">timestamp: DateTime</text>
      <text stroke-linecap="butt" x="1147.1249" y="-90.9819" clip-path="url(#clipPath7)" font-family="sans-serif" stroke="none" stroke-miterlimit="1.45" xml:space="preserve">recordOrBest: RecordOrBest</text>
      <text stroke-linecap="butt" x="1147.1249" y="-76.849" clip-path="url(#clipPath7)" font-family="sans-serif" stroke="none" stroke-miterlimit="1.45" xml:space="preserve">status: ResultStatus</text>
      <text stroke-linecap="butt" x="1147.1249" y="-62.7162" clip-path="url(#clipPath7)" font-family="sans-serif" stroke="none" stroke-miterlimit="1.45" xml:space="preserve">award: Award</text>
      <line y2="-55" fill="none" x1="1143" clip-path="url(#clipPath7)" x2="1423" y1="-55"/>
      <rect x="16" y="2" clip-path="url(#clipPath2)" fill="rgb(255,255,153)" width="178" height="75" stroke="none"/>
      <rect x="15" y="1" clip-path="url(#clipPath2)" fill="rgb(255,255,218)" width="1" height="77" stroke="none"/>
      <rect x="16" y="1" clip-path="url(#clipPath2)" fill="rgb(255,255,218)" width="178" height="1" stroke="none"/>
      <rect x="16" y="77" clip-path="url(#clipPath2)" fill="rgb(178,178,107)" width="179" height="1" stroke="none"/>
      <rect x="194" y="1" clip-path="url(#clipPath2)" fill="rgb(178,178,107)" width="1" height="76" stroke="none"/>
    </g>
    <g font-size="13px" stroke-linecap="butt" transform="matrix(1,0,0,1,0,431)" text-rendering="geometricPrecision" font-family="sans-serif" shape-rendering="geometricPrecision" font-weight="bold" stroke-miterlimit="1.45">
      <text x="37.0813" xml:space="preserve" y="19.5603" clip-path="url(#clipPath8)" stroke="none">QualificationCriteria</text>
    </g>
    <g text-rendering="geometricPrecision" shape-rendering="geometricPrecision" transform="matrix(1,0,0,1,0,431)">
      <line y2="27" fill="none" x1="16" clip-path="url(#clipPath8)" x2="194" y1="27"/>
      <text stroke-linecap="butt" x="20.0425" y="43.9041" clip-path="url(#clipPath8)" font-family="sans-serif" stroke="none" stroke-miterlimit="1.45" xml:space="preserve">description: Text</text>
      <text stroke-linecap="butt" x="20.0425" y="58.0369" clip-path="url(#clipPath8)" font-family="sans-serif" stroke="none" stroke-miterlimit="1.45" xml:space="preserve">byPlaceOrStandard: Number</text>
      <text stroke-linecap="butt" x="20.0425" y="72.1697" clip-path="url(#clipPath8)" font-family="sans-serif" stroke="none" stroke-miterlimit="1.45" xml:space="preserve">byPerformance: Number</text>
      <line y2="79" fill="none" x1="16" clip-path="url(#clipPath8)" x2="194" y1="79"/>
      <rect x="16" y="-169" clip-path="url(#clipPath2)" fill="rgb(255,255,153)" width="165" height="135" stroke="none"/>
      <rect x="15" y="-170" clip-path="url(#clipPath2)" fill="rgb(255,255,218)" width="1" height="137" stroke="none"/>
      <rect x="16" y="-170" clip-path="url(#clipPath2)" fill="rgb(255,255,218)" width="165" height="1" stroke="none"/>
      <rect x="16" y="-34" clip-path="url(#clipPath2)" fill="rgb(178,178,107)" width="166" height="1" stroke="none"/>
      <rect x="181" y="-170" clip-path="url(#clipPath2)" fill="rgb(178,178,107)" width="1" height="136" stroke="none"/>
    </g>
    <g font-size="13px" stroke-linecap="butt" transform="matrix(1,0,0,1,0,431)" text-rendering="geometricPrecision" font-family="sans-serif" shape-rendering="geometricPrecision" font-weight="bold" stroke-miterlimit="1.45">
      <text x="68.7243" xml:space="preserve" y="-153.0727" clip-path="url(#clipPath9)" stroke="none">Category</text>
    </g>
    <g text-rendering="geometricPrecision" shape-rendering="geometricPrecision" transform="matrix(1,0,0,1,0,431)">
      <line y2="-145" fill="none" x1="16" clip-path="url(#clipPath9)" x2="181" y1="-145"/>
      <text stroke-linecap="butt" x="20.0425" y="-128.729" clip-path="url(#clipPath9)" font-family="sans-serif" stroke="none" stroke-miterlimit="1.45" xml:space="preserve">identifier: Text</text>
      <text stroke-linecap="butt" x="20.0425" y="-114.5962" clip-path="url(#clipPath9)" font-family="sans-serif" stroke="none" stroke-miterlimit="1.45" xml:space="preserve">name: Text</text>
      <text stroke-linecap="butt" x="20.0425" y="-100.4633" clip-path="url(#clipPath9)" font-family="sans-serif" stroke="none" stroke-miterlimit="1.45" xml:space="preserve">alternateName: Text</text>
      <text stroke-linecap="butt" x="20.0425" y="-86.3305" clip-path="url(#clipPath9)" font-family="sans-serif" stroke="none" stroke-miterlimit="1.45" xml:space="preserve">description: Text</text>
      <text stroke-linecap="butt" x="20.0425" y="-72.1977" clip-path="url(#clipPath9)" font-family="sans-serif" stroke="none" stroke-miterlimit="1.45" xml:space="preserve">gender: Gender</text>
      <text stroke-linecap="butt" x="20.0425" y="-58.0649" clip-path="url(#clipPath9)" font-family="sans-serif" stroke="none" stroke-miterlimit="1.45" xml:space="preserve">ageRange: AgeRange</text>
      <text stroke-linecap="butt" x="20.0425" y="-43.9321" clip-path="url(#clipPath9)" font-family="sans-serif" stroke="none" stroke-miterlimit="1.45" xml:space="preserve">recognizedBy: Federation </text>
      <line y2="-36" fill="none" x1="16" clip-path="url(#clipPath9)" x2="181" y1="-36"/>
      <rect x="392" y="-240" clip-path="url(#clipPath2)" fill="rgb(255,255,153)" width="258" height="287" stroke="none"/>
      <rect x="391" y="-241" clip-path="url(#clipPath2)" fill="rgb(255,255,218)" width="1" height="289" stroke="none"/>
      <rect x="392" y="-241" clip-path="url(#clipPath2)" fill="rgb(255,255,218)" width="258" height="1" stroke="none"/>
      <rect x="392" y="47" clip-path="url(#clipPath2)" fill="rgb(178,178,107)" width="259" height="1" stroke="none"/>
      <rect x="650" y="-241" clip-path="url(#clipPath2)" fill="rgb(178,178,107)" width="1" height="288" stroke="none"/>
    </g>
    <g font-size="13px" stroke-linecap="butt" transform="matrix(1,0,0,1,0,431)" text-rendering="geometricPrecision" font-family="sans-serif" shape-rendering="geometricPrecision" font-weight="bold" stroke-miterlimit="1.45">
      <text x="479.9578" xml:space="preserve" y="-224.3585" clip-path="url(#clipPath10)" stroke="none">Competition</text>
    </g>
    <g text-rendering="geometricPrecision" shape-rendering="geometricPrecision" transform="matrix(1,0,0,1,0,431)">
      <line y2="-216" fill="none" x1="392" clip-path="url(#clipPath10)" x2="650" y1="-216"/>
      <text stroke-linecap="butt" x="396.0125" y="-200.0147" clip-path="url(#clipPath10)" font-family="sans-serif" stroke="none" stroke-miterlimit="1.45" xml:space="preserve">identifier: Text</text>
      <text stroke-linecap="butt" x="396.0125" y="-185.8819" clip-path="url(#clipPath10)" font-family="sans-serif" stroke="none" stroke-miterlimit="1.45" xml:space="preserve">name: Text</text>
      <text stroke-linecap="butt" x="396.0125" y="-171.7491" clip-path="url(#clipPath10)" font-family="sans-serif" stroke="none" stroke-miterlimit="1.45" xml:space="preserve">alternateName: Text</text>
      <text stroke-linecap="butt" x="396.0125" y="-157.6163" clip-path="url(#clipPath10)" font-family="sans-serif" stroke="none" stroke-miterlimit="1.45" xml:space="preserve">description: Text</text>
      <text stroke-linecap="butt" x="396.0125" y="-143.4835" clip-path="url(#clipPath10)" font-family="sans-serif" stroke="none" stroke-miterlimit="1.45" xml:space="preserve">url: URL</text>
      <text stroke-linecap="butt" x="396.0125" y="-129.3507" clip-path="url(#clipPath10)" font-family="sans-serif" stroke="none" stroke-miterlimit="1.45" xml:space="preserve">image: URL</text>
      <text stroke-linecap="butt" x="396.0125" y="-115.2179" clip-path="url(#clipPath10)" font-family="sans-serif" stroke="none" stroke-miterlimit="1.45" xml:space="preserve">startDate: DateTime</text>
      <text stroke-linecap="butt" x="396.0125" y="-101.0851" clip-path="url(#clipPath10)" font-family="sans-serif" stroke="none" stroke-miterlimit="1.45" xml:space="preserve">endDate: DateTime</text>
      <text stroke-linecap="butt" x="396.0125" y="-86.9522" clip-path="url(#clipPath10)" font-family="sans-serif" stroke="none" stroke-miterlimit="1.45" xml:space="preserve">status: EventStatus</text>
      <text stroke-linecap="butt" x="396.0125" y="-72.8194" clip-path="url(#clipPath10)" font-family="sans-serif" stroke="none" stroke-miterlimit="1.45" xml:space="preserve">organizer: Agent</text>
      <text stroke-linecap="butt" x="396.0125" y="-58.6866" clip-path="url(#clipPath10)" font-family="sans-serif" stroke="none" stroke-miterlimit="1.45" xml:space="preserve">contributor: Agent</text>
      <text stroke-linecap="butt" x="396.0125" y="-44.5538" clip-path="url(#clipPath10)" font-family="sans-serif" stroke="none" stroke-miterlimit="1.45" xml:space="preserve">sponsor: Agent</text>
      <text stroke-linecap="butt" x="396.0125" y="-30.421" clip-path="url(#clipPath10)" font-family="sans-serif" stroke="none" stroke-miterlimit="1.45" xml:space="preserve">attendee: Person</text>
      <text stroke-linecap="butt" x="396.0125" y="-16.2882" clip-path="url(#clipPath10)" font-family="sans-serif" stroke="none" stroke-miterlimit="1.45" xml:space="preserve">entryRequirements: Text</text>
      <text stroke-linecap="butt" x="396.0125" y="-2.1554" clip-path="url(#clipPath10)" font-family="sans-serif" stroke="none" stroke-miterlimit="1.45" xml:space="preserve">sportsDiscipline: SportsDiscipline</text>
      <text stroke-linecap="butt" x="396.0125" y="11.9774" clip-path="url(#clipPath10)" font-family="sans-serif" stroke="none" stroke-miterlimit="1.45" xml:space="preserve">stage: Competition</text>
      <text stroke-linecap="butt" x="396.0125" y="26.1103" clip-path="url(#clipPath10)" font-family="sans-serif" stroke="none" stroke-miterlimit="1.45" xml:space="preserve">round: Competition</text>
      <text stroke-linecap="butt" x="396.0125" y="40.2431" clip-path="url(#clipPath10)" font-family="sans-serif" stroke="none" stroke-miterlimit="1.45" xml:space="preserve">starter: Agent</text>
      <line y2="47" fill="none" x1="392" clip-path="url(#clipPath10)" x2="650" y1="47"/>
      <rect x="438" y="-414" clip-path="url(#clipPath2)" fill="rgb(255,255,153)" width="164" height="86" stroke="none"/>
      <rect x="437" y="-415" clip-path="url(#clipPath2)" fill="rgb(255,255,218)" width="1" height="88" stroke="none"/>
      <rect x="438" y="-415" clip-path="url(#clipPath2)" fill="rgb(255,255,218)" width="164" height="1" stroke="none"/>
      <rect x="438" y="-328" clip-path="url(#clipPath2)" fill="rgb(178,178,107)" width="165" height="1" stroke="none"/>
      <rect x="602" y="-415" clip-path="url(#clipPath2)" fill="rgb(178,178,107)" width="1" height="87" stroke="none"/>
    </g>
    <g font-size="13px" stroke-linecap="butt" transform="matrix(1,0,0,1,0,431)" text-rendering="geometricPrecision" font-family="sans-serif" shape-rendering="geometricPrecision" font-weight="bold" stroke-miterlimit="1.45">
      <text x="459.8833" xml:space="preserve" y="-397.4363" clip-path="url(#clipPath11)" stroke="none">CompetitionSeries</text>
    </g>
    <g text-rendering="geometricPrecision" shape-rendering="geometricPrecision" transform="matrix(1,0,0,1,0,431)">
      <line y2="-389" fill="none" x1="438" clip-path="url(#clipPath11)" x2="603" y1="-389"/>
      <text stroke-linecap="butt" x="442.8533" y="-373.0925" clip-path="url(#clipPath11)" font-family="sans-serif" stroke="none" stroke-miterlimit="1.45" xml:space="preserve">identifier: Text</text>
      <text stroke-linecap="butt" x="442.8533" y="-358.9597" clip-path="url(#clipPath11)" font-family="sans-serif" stroke="none" stroke-miterlimit="1.45" xml:space="preserve">name: Text</text>
      <text stroke-linecap="butt" x="442.8533" y="-344.8269" clip-path="url(#clipPath11)" font-family="sans-serif" stroke="none" stroke-miterlimit="1.45" xml:space="preserve">alternateName: Text</text>
      <text stroke-linecap="butt" x="442.8533" y="-330.6941" clip-path="url(#clipPath11)" font-family="sans-serif" stroke="none" stroke-miterlimit="1.45" xml:space="preserve">description: Text</text>
      <line y2="-323" fill="none" x1="438" clip-path="url(#clipPath11)" x2="603" y1="-323"/>
      <rect x="16" y="187" clip-path="url(#clipPath2)" fill="rgb(255,255,153)" width="239" height="110" stroke="none"/>
      <rect x="15" y="186" clip-path="url(#clipPath2)" fill="rgb(255,255,218)" width="1" height="112" stroke="none"/>
      <rect x="16" y="186" clip-path="url(#clipPath2)" fill="rgb(255,255,218)" width="239" height="1" stroke="none"/>
      <rect x="16" y="297" clip-path="url(#clipPath2)" fill="rgb(178,178,107)" width="240" height="1" stroke="none"/>
      <rect x="255" y="186" clip-path="url(#clipPath2)" fill="rgb(178,178,107)" width="1" height="111" stroke="none"/>
    </g>
    <g font-size="13px" stroke-linecap="butt" transform="matrix(1,0,0,1,0,431)" text-rendering="geometricPrecision" font-family="sans-serif" shape-rendering="geometricPrecision" font-weight="bold" stroke-miterlimit="1.45">
      <text x="92.225" xml:space="preserve" y="203.6178" clip-path="url(#clipPath12)" stroke="none">Timekeeping</text>
    </g>
    <g text-rendering="geometricPrecision" shape-rendering="geometricPrecision" transform="matrix(1,0,0,1,0,431)">
      <line y2="211" fill="none" x1="16" clip-path="url(#clipPath12)" x2="255" y1="211"/>
      <text stroke-linecap="butt" x="20.0425" y="227.9615" clip-path="url(#clipPath12)" font-family="sans-serif" stroke="none" stroke-miterlimit="1.45" xml:space="preserve">identifier: Text</text>
      <text stroke-linecap="butt" x="20.0425" y="242.0943" clip-path="url(#clipPath12)" font-family="sans-serif" stroke="none" stroke-miterlimit="1.45" xml:space="preserve">timekeepingType: TimekeepingType</text>
      <text stroke-linecap="butt" x="20.0425" y="256.2271" clip-path="url(#clipPath12)" font-family="sans-serif" stroke="none" stroke-miterlimit="1.45" xml:space="preserve">name: Text</text>
      <text stroke-linecap="butt" x="20.0425" y="270.36" clip-path="url(#clipPath12)" font-family="sans-serif" stroke="none" stroke-miterlimit="1.45" xml:space="preserve">description: Text</text>
      <text stroke-linecap="butt" x="20.0425" y="284.4928" clip-path="url(#clipPath12)" font-family="sans-serif" stroke="none" stroke-miterlimit="1.45" xml:space="preserve">instrument: Text</text>
      <line y2="292" fill="none" x1="16" clip-path="url(#clipPath12)" x2="255" y1="292"/>
      <rect x="532" y="229" clip-path="url(#clipPath2)" fill="rgb(255,255,153)" width="181" height="26" stroke="none"/>
      <rect x="531" y="228" clip-path="url(#clipPath2)" fill="rgb(255,255,218)" width="1" height="28" stroke="none"/>
      <rect x="532" y="228" clip-path="url(#clipPath2)" fill="rgb(255,255,218)" width="181" height="1" stroke="none"/>
      <rect x="532" y="255" clip-path="url(#clipPath2)" fill="rgb(178,178,107)" width="182" height="1" stroke="none"/>
      <rect x="713" y="228" clip-path="url(#clipPath2)" fill="rgb(178,178,107)" width="1" height="27" stroke="none"/>
    </g>
    <g font-size="13px" stroke-linecap="butt" transform="matrix(1,0,0,1,0,431)" text-rendering="geometricPrecision" font-family="sans-serif" shape-rendering="geometricPrecision" font-weight="bold" stroke-miterlimit="1.45">
      <text x="552.4544" xml:space="preserve" y="246.149" clip-path="url(#clipPath13)" stroke="none">UnitFieldCompetition</text>
    </g>
    <g fill="rgb(255,255,153)" text-rendering="geometricPrecision" shape-rendering="geometricPrecision" transform="matrix(1,0,0,1,0,431)" stroke="rgb(255,255,153)">
      <rect x="333" width="183" height="75" y="209" clip-path="url(#clipPath2)" stroke="none"/>
      <rect x="332" y="208" clip-path="url(#clipPath2)" fill="rgb(255,255,218)" width="1" height="77" stroke="none"/>
      <rect x="333" y="208" clip-path="url(#clipPath2)" fill="rgb(255,255,218)" width="183" height="1" stroke="none"/>
      <rect x="333" y="284" clip-path="url(#clipPath2)" fill="rgb(178,178,107)" width="184" height="1" stroke="none"/>
      <rect x="516" y="208" clip-path="url(#clipPath2)" fill="rgb(178,178,107)" width="1" height="76" stroke="none"/>
    </g>
    <g font-size="13px" stroke-linecap="butt" transform="matrix(1,0,0,1,0,431)" text-rendering="geometricPrecision" font-family="sans-serif" shape-rendering="geometricPrecision" font-weight="bold" stroke-miterlimit="1.45">
      <text x="396.2049" xml:space="preserve" y="226.5088" clip-path="url(#clipPath14)" stroke="none">UnitRace</text>
    </g>
    <g text-rendering="geometricPrecision" shape-rendering="geometricPrecision" transform="matrix(1,0,0,1,0,431)">
      <line y2="234" fill="none" x1="333" clip-path="url(#clipPath14)" x2="517" y1="234"/>
      <text stroke-linecap="butt" x="337.6155" y="250.8526" clip-path="url(#clipPath14)" font-family="sans-serif" stroke="none" stroke-miterlimit="1.45" xml:space="preserve">startPoint: Place</text>
      <text stroke-linecap="butt" x="337.6155" y="264.9854" clip-path="url(#clipPath14)" font-family="sans-serif" stroke="none" stroke-miterlimit="1.45" xml:space="preserve">finishPoint: Place</text>
      <text stroke-linecap="butt" x="337.6155" y="279.1182" clip-path="url(#clipPath14)" font-family="sans-serif" stroke="none" stroke-miterlimit="1.45" xml:space="preserve">course: GeoShape</text>
      <line y2="286" fill="none" x1="333" clip-path="url(#clipPath14)" x2="517" y1="286"/>
      <rect x="429" y="115" clip-path="url(#clipPath2)" fill="rgb(255,255,153)" width="183" height="26" stroke="none"/>
      <rect x="428" y="114" clip-path="url(#clipPath2)" fill="rgb(255,255,218)" width="1" height="28" stroke="none"/>
      <rect x="429" y="114" clip-path="url(#clipPath2)" fill="rgb(255,255,218)" width="183" height="1" stroke="none"/>
      <rect x="429" y="141" clip-path="url(#clipPath2)" fill="rgb(178,178,107)" width="184" height="1" stroke="none"/>
      <rect x="612" y="114" clip-path="url(#clipPath2)" fill="rgb(178,178,107)" width="1" height="27" stroke="none"/>
    </g>
    <g font-size="13px" stroke-linecap="butt" transform="matrix(1,0,0,1,0,431)" text-rendering="geometricPrecision" font-family="sans-serif" shape-rendering="geometricPrecision" font-weight="bold" stroke-miterlimit="1.45">
      <text x="466.1548" xml:space="preserve" y="131.8848" clip-path="url(#clipPath15)" stroke="none">UnitCompetition</text>
    </g>
    <g fill="rgb(255,255,153)" text-rendering="geometricPrecision" shape-rendering="geometricPrecision" transform="matrix(1,0,0,1,0,431)" stroke="rgb(255,255,153)">
      <rect x="782" width="258" height="110" y="-38" clip-path="url(#clipPath2)" stroke="none"/>
      <rect x="781" y="-39" clip-path="url(#clipPath2)" fill="rgb(255,255,218)" width="1" height="112" stroke="none"/>
      <rect x="782" y="-39" clip-path="url(#clipPath2)" fill="rgb(255,255,218)" width="258" height="1" stroke="none"/>
      <rect x="782" y="72" clip-path="url(#clipPath2)" fill="rgb(178,178,107)" width="259" height="1" stroke="none"/>
      <rect x="1040" y="-39" clip-path="url(#clipPath2)" fill="rgb(178,178,107)" width="1" height="111" stroke="none"/>
    </g>
    <g font-size="13px" stroke-linecap="butt" transform="matrix(1,0,0,1,0,431)" text-rendering="geometricPrecision" font-family="sans-serif" shape-rendering="geometricPrecision" font-weight="bold" stroke-miterlimit="1.45">
      <text x="874.2559" xml:space="preserve" y="-22.1649" clip-path="url(#clipPath16)" stroke="none">Competitor</text>
    </g>
    <g text-rendering="geometricPrecision" shape-rendering="geometricPrecision" transform="matrix(1,0,0,1,0,431)">
      <line y2="-14" fill="none" x1="782" clip-path="url(#clipPath16)" x2="1041" y1="-14"/>
      <text stroke-linecap="butt" x="786.8829" y="2.1789" clip-path="url(#clipPath16)" font-family="sans-serif" stroke="none" stroke-miterlimit="1.45" xml:space="preserve">bibIdentifier: Text </text>
      <text stroke-linecap="butt" x="786.8829" y="16.3117" clip-path="url(#clipPath16)" font-family="sans-serif" stroke="none" stroke-miterlimit="1.45" xml:space="preserve">transponderIdentifier: Text</text>
      <text stroke-linecap="butt" x="786.8829" y="30.4445" clip-path="url(#clipPath16)" font-family="sans-serif" stroke="none" stroke-miterlimit="1.45" xml:space="preserve">agent: Agent</text>
      <text stroke-linecap="butt" x="786.8829" y="44.5773" clip-path="url(#clipPath16)" font-family="sans-serif" stroke="none" stroke-miterlimit="1.45" xml:space="preserve">competitorStatus: CompetitorStatusType</text>
      <text stroke-linecap="butt" x="786.8829" y="58.7101" clip-path="url(#clipPath16)" font-family="sans-serif" stroke="none" stroke-miterlimit="1.45" xml:space="preserve">disqualificationReason: Text</text>
      <line y2="66" fill="none" x1="782" clip-path="url(#clipPath16)" x2="1041" y1="66"/>
      <rect x="16" y="-414" clip-path="url(#clipPath2)" fill="rgb(255,255,153)" width="141" height="176" stroke="none"/>
      <rect x="15" y="-415" clip-path="url(#clipPath2)" fill="rgb(255,255,218)" width="1" height="178" stroke="none"/>
      <rect x="16" y="-415" clip-path="url(#clipPath2)" fill="rgb(255,255,218)" width="141" height="1" stroke="none"/>
      <rect x="16" y="-238" clip-path="url(#clipPath2)" fill="rgb(178,178,107)" width="142" height="1" stroke="none"/>
      <rect x="157" y="-415" clip-path="url(#clipPath2)" fill="rgb(178,178,107)" width="1" height="177" stroke="none"/>
    </g>
    <g font-size="13px" stroke-linecap="butt" transform="matrix(1,0,0,1,0,431)" text-rendering="geometricPrecision" font-family="sans-serif" shape-rendering="geometricPrecision" font-weight="bold" stroke-miterlimit="1.45">
      <text x="69.3531" xml:space="preserve" y="-397.4363" clip-path="url(#clipPath17)" stroke="none">Place</text>
    </g>
    <g text-rendering="geometricPrecision" shape-rendering="geometricPrecision" transform="matrix(1,0,0,1,0,431)">
      <line y2="-389" fill="none" x1="16" clip-path="url(#clipPath17)" x2="157" y1="-389"/>
      <text stroke-linecap="butt" x="20.0425" y="-373.0925" clip-path="url(#clipPath17)" font-family="sans-serif" stroke="none" stroke-miterlimit="1.45" xml:space="preserve">identifier: Text</text>
      <text stroke-linecap="butt" x="20.0425" y="-358.9597" clip-path="url(#clipPath17)" font-family="sans-serif" stroke="none" stroke-miterlimit="1.45" xml:space="preserve">name: Text</text>
      <text stroke-linecap="butt" x="20.0425" y="-344.8269" clip-path="url(#clipPath17)" font-family="sans-serif" stroke="none" stroke-miterlimit="1.45" xml:space="preserve">description: Text</text>
      <text stroke-linecap="butt" x="20.0425" y="-330.6941" clip-path="url(#clipPath17)" font-family="sans-serif" stroke="none" stroke-miterlimit="1.45" xml:space="preserve">address: PostalAddress</text>
      <text stroke-linecap="butt" x="20.0425" y="-316.5613" clip-path="url(#clipPath17)" font-family="sans-serif" stroke="none" stroke-miterlimit="1.45" xml:space="preserve">url: URL</text>
      <text stroke-linecap="butt" x="20.0425" y="-302.4285" clip-path="url(#clipPath17)" font-family="sans-serif" stroke="none" stroke-miterlimit="1.45" xml:space="preserve">image: URL</text>
      <text stroke-linecap="butt" x="20.0425" y="-288.2957" clip-path="url(#clipPath17)" font-family="sans-serif" stroke="none" stroke-miterlimit="1.45" xml:space="preserve">geo: Text</text>
      <text stroke-linecap="butt" x="20.0425" y="-274.1628" clip-path="url(#clipPath17)" font-family="sans-serif" stroke="none" stroke-miterlimit="1.45" xml:space="preserve">map: URL</text>
      <text stroke-linecap="butt" x="20.0425" y="-260.03" clip-path="url(#clipPath17)" font-family="sans-serif" stroke="none" stroke-miterlimit="1.45" xml:space="preserve">telephone: Text</text>
      <text stroke-linecap="butt" x="20.0425" y="-245.8972" clip-path="url(#clipPath17)" font-family="sans-serif" stroke="none" stroke-miterlimit="1.45" xml:space="preserve">faxNumber: Text</text>
      <line y2="-238" fill="none" x1="16" clip-path="url(#clipPath17)" x2="157" y1="-238"/>
      <path fill="none" stroke-miterlimit="1.45" d="M1427.4775 269.5316 L1306.0155 190.2894" stroke-width="2" clip-path="url(#clipPath2)" stroke-linecap="butt"/>
    </g>
    <g stroke-linecap="butt" transform="matrix(1,0,0,1,0,431)" fill="white" text-rendering="geometricPrecision" shape-rendering="geometricPrecision" stroke="white" stroke-width="2" stroke-miterlimit="1.45">
      <path d="M1291.8823 181.0689 L1303.2695 196.5574 L1310.646 185.2508 Z" stroke="none" clip-path="url(#clipPath2)"/>
      <path fill="none" d="M1291.8823 181.0689 L1303.2695 196.5574 L1310.646 185.2508 Z" stroke-width="1" clip-path="url(#clipPath2)" stroke="black"/>
      <path fill="none" d="M1291.8491 269.2401 L1291.8491 197.9653" clip-path="url(#clipPath2)" stroke="black"/>
      <path d="M1291.8491 181.0903 L1285.0991 199.0903 L1298.5991 199.0903 Z" clip-path="url(#clipPath2)" stroke="none"/>
      <path fill="none" d="M1291.8491 181.0903 L1285.0991 199.0903 L1298.5991 199.0903 Z" stroke-width="1" clip-path="url(#clipPath2)" stroke="black"/>
      <path fill="none" d="M1125.7705 269.2261 L1276.9042 188.9823" clip-path="url(#clipPath2)" stroke="black"/>
      <path d="M1291.8086 181.0688 L1272.7451 183.548 L1279.0759 195.4716 Z" clip-path="url(#clipPath2)" stroke="none"/>
      <path fill="none" d="M1291.8086 181.0688 L1272.7451 183.548 L1279.0759 195.4716 Z" stroke-width="1" clip-path="url(#clipPath2)" stroke="black"/>
    </g>
    <g text-rendering="geometricPrecision" stroke-miterlimit="1.45" shape-rendering="geometricPrecision" font-family="sans-serif" transform="matrix(1,0,0,1,0,431)" stroke-linecap="butt">
      <text x="1321.8015" xml:space="preserve" y="182.5308" clip-path="url(#clipPath2)" stroke="none">subClassOf</text>
      <path fill="none" d="M1291.7069 -47.8676 L1291.7069 66.5447" stroke-width="2" clip-path="url(#clipPath2)"/>
      <path d="M1291.7069 -56.8676 L1286.0819 -43.3676 L1291.7069 -46.7426 L1297.3319 -43.3676 Z" stroke-width="2" clip-path="url(#clipPath2)" stroke="none"/>
      <path d="M1291.7069 75.5447 L1297.3319 62.0447 L1291.7069 65.4197 L1286.0819 62.0447 Z" stroke-width="2" clip-path="url(#clipPath2)" stroke="none"/>
      <text x="1308.1608" xml:space="preserve" y="66.0352" clip-path="url(#clipPath2)" stroke="none">performance</text>
      <text x="1305.1483" xml:space="preserve" y="-38.2717" clip-path="url(#clipPath2)" stroke="none">result</text>
      <path fill="none" d="M390.9922 -241.8489 L351.1324 -241.8506 L351.1324 -215.1608 L382.0058 -214.7106" stroke-width="2" clip-path="url(#clipPath2)"/>
      <path d="M391.0049 -214.5794 L377.5883 -220.4006 L380.881 -214.727 L377.4243 -209.1518 Z" stroke-width="2" clip-path="url(#clipPath2)" stroke="none"/>
      <text x="300.7037" xml:space="preserve" y="-263.4223" clip-path="url(#clipPath2)" stroke="none">subEvent</text>
      <text x="289.108" xml:space="preserve" y="-249.2894" clip-path="url(#clipPath2)" stroke="none">superEvent</text>
      <path fill="none" d="M651.129 -147.0407 L1133.1351 -147.0407" stroke-width="2" clip-path="url(#clipPath2)"/>
      <path d="M1142.1351 -147.0407 L1128.6351 -152.6657 L1132.0101 -147.0407 L1128.6351 -141.4157 Z" stroke-width="2" clip-path="url(#clipPath2)" stroke="none"/>
      <text x="1102.0077" xml:space="preserve" y="-158.6429" clip-path="url(#clipPath2)" stroke="none">result</text>
      <path fill="none" d="M390.9959 -96.9845 L191.5564 -96.9845" stroke-width="2" clip-path="url(#clipPath2)"/>
      <path d="M182.5564 -96.9845 L196.0564 -91.3595 L192.6814 -96.9845 L196.0564 -102.6095 Z" stroke-width="2" clip-path="url(#clipPath2)" stroke="none"/>
      <text x="189.5628" xml:space="preserve" y="-62.4493" clip-path="url(#clipPath2)" stroke="none">category</text>
      <path fill="none" d="M391.0018 40.8988 L204.068 40.8774" stroke-width="2" clip-path="url(#clipPath2)"/>
      <path d="M195.068 40.8764 L208.5674 46.5029 L205.193 40.8776 L208.5687 35.2529 Z" stroke-width="2" clip-path="url(#clipPath2)" stroke="none"/>
      <text x="202.0425" xml:space="preserve" y="75.4189" clip-path="url(#clipPath2)" stroke="none">qualificationCriteria</text>
      <path fill="none" d="M521.3668 -250.9346 L521.2037 -317.9835" stroke-width="2" clip-path="url(#clipPath2)"/>
      <path d="M521.3887 -241.9347 L526.9808 -255.4483 L521.3641 -252.0596 L515.7309 -255.4209 Z" stroke-width="2" clip-path="url(#clipPath2)" stroke="none"/>
      <path d="M521.1818 -326.9835 L515.5897 -313.4698 L521.2065 -316.8585 L526.8397 -313.4972 Z" stroke-width="2" clip-path="url(#clipPath2)" stroke="none"/>
      <text x="570.2998" xml:space="preserve" y="-251.4581" clip-path="url(#clipPath2)" stroke="none">subEvent</text>
      <text x="568.2958" xml:space="preserve" y="-306.9429" clip-path="url(#clipPath2)" stroke="none">superEvent</text>
      <path fill="none" d="M332.6018 247.8146 L265.2217 247.8146" stroke-width="2" clip-path="url(#clipPath2)"/>
      <path d="M256.2217 247.8146 L269.7217 253.4396 L266.3467 247.8146 L269.7217 242.1896 Z" stroke-width="2" clip-path="url(#clipPath2)" stroke="none"/>
      <text x="257.8387" xml:space="preserve" y="222.3497" clip-path="url(#clipPath2)" stroke="none">timekeeping</text>
      <path fill="none" d="M440.4029 208.9306 L492.866 154.4892" stroke-width="2" clip-path="url(#clipPath2)"/>
    </g>
    <g stroke-linecap="butt" transform="matrix(1,0,0,1,0,431)" fill="white" text-rendering="geometricPrecision" shape-rendering="geometricPrecision" stroke="white" stroke-width="2" stroke-miterlimit="1.45">
      <path d="M504.5756 142.338 L487.2249 150.6154 L496.9458 159.9831 Z" stroke="none" clip-path="url(#clipPath2)"/>
      <path fill="none" d="M504.5756 142.338 L487.2249 150.6154 L496.9458 159.9831 Z" stroke-width="1" clip-path="url(#clipPath2)" stroke="black"/>
      <path fill="none" d="M619.5226 228.5636 L538.1818 153.7248" clip-path="url(#clipPath2)" stroke="black"/>
      <path d="M525.7633 142.2991 L534.4393 159.4539 L543.58 149.5191 Z" clip-path="url(#clipPath2)" stroke="none"/>
      <path fill="none" d="M525.7633 142.2991 L534.4393 159.4539 L543.58 149.5191 Z" stroke-width="1" clip-path="url(#clipPath2)" stroke="black"/>
    </g>
    <g text-rendering="geometricPrecision" stroke-miterlimit="1.45" shape-rendering="geometricPrecision" font-family="sans-serif" transform="matrix(1,0,0,1,0,431)" stroke-linecap="butt">
      <text x="599.7439" xml:space="preserve" y="172.0039" clip-path="url(#clipPath2)" stroke="none">subClassOf</text>
      <path fill="none" d="M521.0748 114.3162 L521.0748 64.8626" stroke-width="2" clip-path="url(#clipPath2)"/>
    </g>
    <g stroke-linecap="butt" transform="matrix(1,0,0,1,0,431)" fill="white" text-rendering="geometricPrecision" shape-rendering="geometricPrecision" stroke="white" stroke-width="2" stroke-miterlimit="1.45">
      <path d="M521.0748 47.9876 L514.3248 65.9876 L527.8248 65.9876 Z" stroke="none" clip-path="url(#clipPath2)"/>
      <path fill="none" d="M521.0748 47.9876 L514.3248 65.9876 L527.8248 65.9876 Z" stroke-width="1" clip-path="url(#clipPath2)" stroke="black"/>
    </g>
    <g text-rendering="geometricPrecision" stroke-miterlimit="1.45" shape-rendering="geometricPrecision" font-family="sans-serif" transform="matrix(1,0,0,1,0,431)" stroke-linecap="butt">
      <text x="525.962" xml:space="preserve" y="66.5595" clip-path="url(#clipPath2)" stroke="none">subClassOf</text>
      <path fill="none" d="M1142.1604 -62.507 L1050.5273 -31.687" stroke-width="2" clip-path="url(#clipPath2)"/>
      <path d="M1041.9969 -28.8179 L1056.5858 -27.7901 L1051.5936 -32.0457 L1052.9994 -38.4531 Z" stroke-width="2" clip-path="url(#clipPath2)" stroke="none"/>
      <text x="1036.02" xml:space="preserve" y="-64.6339" clip-path="url(#clipPath2)" stroke="none">competitor</text>
      <path fill="none" d="M772.8745 17.3313 L660.1248 17.3313" stroke-width="2" clip-path="url(#clipPath2)"/>
      <path d="M781.8745 17.3313 L768.3745 11.7063 L771.7495 17.3313 L768.3745 22.9563 Z" stroke-width="2" clip-path="url(#clipPath2)" stroke="none"/>
      <path d="M651.1248 17.3313 L664.6248 22.9563 L661.2498 17.3313 L664.6248 11.7063 Z" stroke-width="2" clip-path="url(#clipPath2)" stroke="none"/>
      <text x="658.137" xml:space="preserve" y="-37.6999" clip-path="url(#clipPath2)" stroke="none">inCompetition</text>
      <text x="701.2657" xml:space="preserve" y="51.8665" clip-path="url(#clipPath2)" stroke="none">participation</text>
      <path fill="none" d="M1042.027 54.8439 L1183.2189 96.3683" stroke-width="2" clip-path="url(#clipPath2)"/>
      <path d="M1191.8531 98.9077 L1180.4888 89.7022 L1182.1395 96.0509 L1177.3146 100.4951 Z" stroke-width="2" clip-path="url(#clipPath2)" stroke="none"/>
      <text x="1134.1296" xml:space="preserve" y="66.0352" clip-path="url(#clipPath2)" stroke="none">performance</text>
      <path fill="none" d="M391.0386 -165.52 L165.9822 -284.136" stroke-width="2" clip-path="url(#clipPath2)"/>
      <path d="M158.0203 -288.3323 L167.3404 -277.0617 L166.9774 -283.6115 L172.5858 -287.014 Z" stroke-width="2" clip-path="url(#clipPath2)" stroke="none"/>
      <text x="180.8268" xml:space="preserve" y="-293.4641" clip-path="url(#clipPath2)" stroke="none">location</text>
    </g>
  </g>
</svg>
