<?xml version="1.0" encoding="UTF-8"?><svg xmlns="http://www.w3.org/2000/svg" xmlns:xlink="http://www.w3.org/1999/xlink" fill-opacity="1" color-rendering="auto" color-interpolation="auto" text-rendering="auto" stroke="black" stroke-linecap="square" width="1792" stroke-miterlimit="10" shape-rendering="auto" stroke-opacity="1" fill="black" stroke-dasharray="none" font-weight="normal" stroke-width="1" height="577" font-family="'Dialog'" font-style="normal" stroke-linejoin="miter" font-size="12px" stroke-dashoffset="0" image-rendering="auto">
  <!--Generated by ySVG 2.5-->
  <defs id="genericDefs"/>
  <g>
    <defs id="defs1">
      <clipPath clipPathUnits="userSpaceOnUse" id="clipPath1">
        <path d="M0 0 L1792 0 L1792 577 L0 577 L0 0 Z"/>
      </clipPath>
      <clipPath clipPathUnits="userSpaceOnUse" id="clipPath2">
        <path d="M-55 430 L1737 430 L1737 1007 L-55 1007 L-55 430 Z"/>
      </clipPath>
    </defs>
    <g fill="white" text-rendering="geometricPrecision" shape-rendering="geometricPrecision" transform="translate(55,-430)" stroke="white">
      <rect x="-55" width="1792" height="577" y="430" clip-path="url(#clipPath2)" stroke="none"/>
    </g>
    <g fill="rgb(255,255,153)" text-rendering="geometricPrecision" shape-rendering="geometricPrecision" transform="matrix(1,0,0,1,55,-430)" stroke="rgb(255,255,153)">
      <ellipse rx="115.25" ry="35" clip-path="url(#clipPath2)" cx="825.8457" cy="480" stroke="none"/>
    </g>
    <g font-size="13px" stroke-linecap="butt" transform="matrix(1,0,0,1,55,-430)" text-rendering="geometricPrecision" font-family="sans-serif" shape-rendering="geometricPrecision" stroke-miterlimit="1.45">
      <text x="723.7595" xml:space="preserve" y="477.2578" clip-path="url(#clipPath2)" stroke="none">Jaffa Ekiden Maraton Relay 2017</text>
      <text x="776.5942" xml:space="preserve" y="492.5684" clip-path="url(#clipPath2)" stroke="none">&lt;Competition&gt;</text>
      <ellipse rx="115.25" fill="none" ry="35" clip-path="url(#clipPath2)" cx="825.8457" cy="480"/>
    </g>
    <g fill="rgb(255,255,153)" text-rendering="geometricPrecision" shape-rendering="geometricPrecision" transform="matrix(1,0,0,1,55,-430)" stroke="rgb(255,255,153)">
      <ellipse rx="105.25" ry="35" clip-path="url(#clipPath2)" cx="299" cy="662.5959" stroke="none"/>
    </g>
    <g font-size="13px" stroke-linecap="butt" transform="matrix(1,0,0,1,55,-430)" text-rendering="geometricPrecision" font-family="sans-serif" shape-rendering="geometricPrecision" stroke-miterlimit="1.45">
      <text x="204.7119" xml:space="preserve" y="659.8537" clip-path="url(#clipPath2)" stroke="none">Jaffa Ekiden Senior Open Race</text>
      <text x="249.7485" xml:space="preserve" y="675.1642" clip-path="url(#clipPath2)" stroke="none">&lt;Competition&gt;</text>
      <ellipse rx="105.25" fill="none" ry="35" clip-path="url(#clipPath2)" cx="299" cy="662.5959"/>
    </g>
    <g fill="rgb(255,255,153)" text-rendering="geometricPrecision" shape-rendering="geometricPrecision" transform="matrix(1,0,0,1,55,-430)" stroke="rgb(255,255,153)">
      <ellipse rx="76.25" ry="29.5" clip-path="url(#clipPath2)" cx="549.5" cy="662.5959" stroke="none"/>
    </g>
    <g font-size="13px" stroke-linecap="butt" transform="matrix(1,0,0,1,55,-430)" text-rendering="geometricPrecision" font-family="sans-serif" shape-rendering="geometricPrecision" stroke-miterlimit="1.45">
      <text x="512.4932" xml:space="preserve" y="659.8537" clip-path="url(#clipPath2)" stroke="none">SEN - Leg 1</text>
      <text x="480.4788" xml:space="preserve" y="675.1642" clip-path="url(#clipPath2)" stroke="none">&lt;TimedCompetition&gt;</text>
      <ellipse rx="76.25" fill="none" ry="29.5" clip-path="url(#clipPath2)" cx="549.5" cy="662.5959"/>
    </g>
    <g fill="rgb(255,255,153)" text-rendering="geometricPrecision" shape-rendering="geometricPrecision" transform="matrix(1,0,0,1,55,-430)" stroke="rgb(255,255,153)">
      <ellipse rx="76.25" ry="29.5" clip-path="url(#clipPath2)" cx="549.5" cy="760.861" stroke="none"/>
    </g>
    <g font-size="13px" stroke-linecap="butt" transform="matrix(1,0,0,1,55,-430)" text-rendering="geometricPrecision" font-family="sans-serif" shape-rendering="geometricPrecision" stroke-miterlimit="1.45">
      <text x="512.4932" xml:space="preserve" y="758.1188" clip-path="url(#clipPath2)" stroke="none">SEN - Leg 2</text>
      <text x="480.4788" xml:space="preserve" y="773.4294" clip-path="url(#clipPath2)" stroke="none">&lt;TimedCompetition&gt;</text>
      <ellipse rx="76.25" fill="none" ry="29.5" clip-path="url(#clipPath2)" cx="549.5" cy="760.861"/>
    </g>
    <g fill="rgb(255,255,153)" text-rendering="geometricPrecision" shape-rendering="geometricPrecision" transform="matrix(1,0,0,1,55,-430)" stroke="rgb(255,255,153)">
      <ellipse rx="76.25" ry="29.5" clip-path="url(#clipPath2)" cx="549.5" cy="859.1261" stroke="none"/>
    </g>
    <g font-size="13px" stroke-linecap="butt" transform="matrix(1,0,0,1,55,-430)" text-rendering="geometricPrecision" font-family="sans-serif" shape-rendering="geometricPrecision" stroke-miterlimit="1.45">
      <text x="512.4932" xml:space="preserve" y="856.384" clip-path="url(#clipPath2)" stroke="none">SEN - Leg 3</text>
      <text x="480.4788" xml:space="preserve" y="871.6945" clip-path="url(#clipPath2)" stroke="none">&lt;TimedCompetition&gt;</text>
      <ellipse rx="76.25" fill="none" ry="29.5" clip-path="url(#clipPath2)" cx="549.5" cy="859.1261"/>
    </g>
    <g fill="rgb(255,255,153)" text-rendering="geometricPrecision" shape-rendering="geometricPrecision" transform="matrix(1,0,0,1,55,-430)" stroke="rgb(255,255,153)">
      <ellipse rx="76.25" ry="29.5" clip-path="url(#clipPath2)" cx="549.5" cy="950.1918" stroke="none"/>
    </g>
    <g font-size="13px" stroke-linecap="butt" transform="matrix(1,0,0,1,55,-430)" text-rendering="geometricPrecision" font-family="sans-serif" shape-rendering="geometricPrecision" stroke-miterlimit="1.45">
      <text x="512.4932" xml:space="preserve" y="947.4496" clip-path="url(#clipPath2)" stroke="none">SEN - Leg 6</text>
      <text x="480.4788" xml:space="preserve" y="962.7601" clip-path="url(#clipPath2)" stroke="none">&lt;TimedCompetition&gt;</text>
      <ellipse rx="76.25" fill="none" ry="29.5" clip-path="url(#clipPath2)" cx="549.5" cy="950.1918"/>
    </g>
    <g fill="rgb(255,255,153)" text-rendering="geometricPrecision" shape-rendering="geometricPrecision" transform="matrix(1,0,0,1,55,-430)" stroke="rgb(255,255,153)">
      <ellipse rx="76.25" ry="29.5" clip-path="url(#clipPath2)" cx="48.5" cy="740.3459" stroke="none"/>
    </g>
    <g font-size="13px" stroke-linecap="butt" transform="matrix(1,0,0,1,55,-430)" text-rendering="geometricPrecision" font-family="sans-serif" shape-rendering="geometricPrecision" stroke-miterlimit="1.45">
      <text x="-2.2908" xml:space="preserve" y="737.6037" clip-path="url(#clipPath2)" stroke="none">SEN Men's Open</text>
      <text x="9.9253" xml:space="preserve" y="752.9142" clip-path="url(#clipPath2)" stroke="none">&lt;Category&gt;</text>
      <ellipse rx="76.25" fill="none" ry="29.5" clip-path="url(#clipPath2)" cx="48.5" cy="740.3459"/>
    </g>
    <g fill="rgb(255,255,153)" text-rendering="geometricPrecision" shape-rendering="geometricPrecision" transform="matrix(1,0,0,1,55,-430)" stroke="rgb(255,255,153)">
      <ellipse rx="76.25" ry="29.5" clip-path="url(#clipPath2)" cx="48.5" cy="662.5959" stroke="none"/>
    </g>
    <g font-size="13px" stroke-linecap="butt" transform="matrix(1,0,0,1,55,-430)" text-rendering="geometricPrecision" font-family="sans-serif" shape-rendering="geometricPrecision" stroke-miterlimit="1.45">
      <text x="-7.8069" xml:space="preserve" y="659.8537" clip-path="url(#clipPath2)" stroke="none">Ekiden Relay Race</text>
      <text x="-37.4473" xml:space="preserve" y="675.1642" clip-path="url(#clipPath2)" stroke="none">&lt;MediumOrLongDistance&gt;</text>
      <ellipse rx="76.25" fill="none" ry="29.5" clip-path="url(#clipPath2)" cx="48.5" cy="662.5959"/>
    </g>
    <g fill="rgb(255,153,153)" text-rendering="geometricPrecision" shape-rendering="geometricPrecision" transform="matrix(1,0,0,1,55,-430)" stroke="rgb(255,153,153)">
      <ellipse rx="76.25" ry="29.5" clip-path="url(#clipPath2)" cx="309.5" cy="950.1918" stroke="none"/>
    </g>
    <g font-size="13px" stroke-linecap="butt" transform="matrix(1,0,0,1,55,-430)" text-rendering="geometricPrecision" font-family="sans-serif" shape-rendering="geometricPrecision" stroke-miterlimit="1.45">
      <text x="244.0144" xml:space="preserve" y="947.4496" clip-path="url(#clipPath2)" stroke="none">Men's Open - Teams</text>
      <text x="265.3743" xml:space="preserve" y="962.7601" clip-path="url(#clipPath2)" stroke="none">&lt;ResultsList&gt;</text>
      <ellipse rx="76.25" fill="none" ry="29.5" clip-path="url(#clipPath2)" cx="309.5" cy="950.1918"/>
    </g>
    <g fill="rgb(255,153,153)" text-rendering="geometricPrecision" shape-rendering="geometricPrecision" transform="matrix(1,0,0,1,55,-430)" stroke="rgb(255,153,153)">
      <ellipse rx="76.25" ry="29.5" clip-path="url(#clipPath2)" cx="129.5" cy="950.1918" stroke="none"/>
    </g>
    <g font-size="13px" stroke-linecap="butt" transform="matrix(1,0,0,1,55,-430)" text-rendering="geometricPrecision" font-family="sans-serif" shape-rendering="geometricPrecision" stroke-miterlimit="1.45">
      <text x="64.0144" xml:space="preserve" y="947.4496" clip-path="url(#clipPath2)" stroke="none">Men's Open - Teams</text>
      <text x="93.4644" xml:space="preserve" y="962.7601" clip-path="url(#clipPath2)" stroke="none">&lt;StartList&gt;</text>
      <ellipse rx="76.25" fill="none" ry="29.5" clip-path="url(#clipPath2)" cx="129.5" cy="950.1918"/>
    </g>
    <g fill="rgb(255,153,153)" text-rendering="geometricPrecision" shape-rendering="geometricPrecision" transform="matrix(1,0,0,1,55,-430)" stroke="rgb(255,153,153)">
      <ellipse rx="64.75" ry="22.5" clip-path="url(#clipPath2)" cx="759.5" cy="662.5959" stroke="none"/>
    </g>
    <g font-size="13px" stroke-linecap="butt" transform="matrix(1,0,0,1,55,-430)" text-rendering="geometricPrecision" font-family="sans-serif" shape-rendering="geometricPrecision" stroke-miterlimit="1.45">
      <text x="704.3167" xml:space="preserve" y="659.8537" clip-path="url(#clipPath2)" stroke="none">S1 SEN - Athletes</text>
      <text x="715.3743" xml:space="preserve" y="675.1642" clip-path="url(#clipPath2)" stroke="none">&lt;ResultsList&gt;</text>
      <ellipse rx="64.75" fill="none" ry="22.5" clip-path="url(#clipPath2)" cx="759.5" cy="662.5959"/>
    </g>
    <g fill="rgb(255,153,153)" text-rendering="geometricPrecision" shape-rendering="geometricPrecision" transform="matrix(1,0,0,1,55,-430)" stroke="rgb(255,153,153)">
      <ellipse rx="64.75" ry="22.5" clip-path="url(#clipPath2)" cx="759.5" cy="764.8459" stroke="none"/>
    </g>
    <g font-size="13px" stroke-linecap="butt" transform="matrix(1,0,0,1,55,-430)" text-rendering="geometricPrecision" font-family="sans-serif" shape-rendering="geometricPrecision" stroke-miterlimit="1.45">
      <text x="704.3167" xml:space="preserve" y="762.1037" clip-path="url(#clipPath2)" stroke="none">S2 SEN - Athletes</text>
      <text x="715.3743" xml:space="preserve" y="777.4142" clip-path="url(#clipPath2)" stroke="none">&lt;ResultsList&gt;</text>
      <ellipse rx="64.75" fill="none" ry="22.5" clip-path="url(#clipPath2)" cx="759.5" cy="764.8459"/>
    </g>
    <g fill="rgb(255,153,153)" text-rendering="geometricPrecision" shape-rendering="geometricPrecision" transform="matrix(1,0,0,1,55,-430)" stroke="rgb(255,153,153)">
      <ellipse rx="64.75" ry="22.5" clip-path="url(#clipPath2)" cx="759.5" cy="866.8459" stroke="none"/>
    </g>
    <g font-size="13px" stroke-linecap="butt" transform="matrix(1,0,0,1,55,-430)" text-rendering="geometricPrecision" font-family="sans-serif" shape-rendering="geometricPrecision" stroke-miterlimit="1.45">
      <text x="704.3167" xml:space="preserve" y="864.1037" clip-path="url(#clipPath2)" stroke="none">S3 SEN - Athletes</text>
      <text x="715.3743" xml:space="preserve" y="879.4142" clip-path="url(#clipPath2)" stroke="none">&lt;ResultsList&gt;</text>
      <ellipse rx="64.75" fill="none" ry="22.5" clip-path="url(#clipPath2)" cx="759.5" cy="866.8459"/>
    </g>
    <g fill="rgb(255,153,153)" text-rendering="geometricPrecision" shape-rendering="geometricPrecision" transform="matrix(1,0,0,1,55,-430)" stroke="rgb(255,153,153)">
      <ellipse rx="64.75" ry="22.5" clip-path="url(#clipPath2)" cx="759.5" cy="968.8459" stroke="none"/>
    </g>
    <g font-size="13px" stroke-linecap="butt" transform="matrix(1,0,0,1,55,-430)" text-rendering="geometricPrecision" font-family="sans-serif" shape-rendering="geometricPrecision" stroke-miterlimit="1.45">
      <text x="704.3167" xml:space="preserve" y="966.1037" clip-path="url(#clipPath2)" stroke="none">S6 SEN - Athletes</text>
      <text x="715.3743" xml:space="preserve" y="981.4142" clip-path="url(#clipPath2)" stroke="none">&lt;ResultsList&gt;</text>
      <ellipse rx="64.75" fill="none" ry="22.5" clip-path="url(#clipPath2)" cx="759.5" cy="968.8459"/>
    </g>
    <g fill="rgb(255,255,153)" text-rendering="geometricPrecision" shape-rendering="geometricPrecision" transform="matrix(1,0,0,1,55,-430)" stroke="rgb(255,255,153)">
      <ellipse rx="105.25" ry="35" clip-path="url(#clipPath2)" cx="1196.1887" cy="662.5959" stroke="none"/>
    </g>
    <g font-size="13px" stroke-linecap="butt" transform="matrix(1,0,0,1,55,-430)" text-rendering="geometricPrecision" font-family="sans-serif" shape-rendering="geometricPrecision" stroke-miterlimit="1.45">
      <text x="1121.8196" xml:space="preserve" y="659.8537" clip-path="url(#clipPath2)" stroke="none">Jaffa Ekiden Junior Race</text>
      <text x="1146.9373" xml:space="preserve" y="675.1642" clip-path="url(#clipPath2)" stroke="none">&lt;Competition&gt;</text>
      <ellipse rx="105.25" fill="none" ry="35" clip-path="url(#clipPath2)" cx="1196.1887" cy="662.5959"/>
    </g>
    <g fill="rgb(255,255,153)" text-rendering="geometricPrecision" shape-rendering="geometricPrecision" transform="matrix(1,0,0,1,55,-430)" stroke="rgb(255,255,153)">
      <ellipse rx="76.25" ry="29.5" clip-path="url(#clipPath2)" cx="1446.6887" cy="662.5959" stroke="none"/>
    </g>
    <g font-size="13px" stroke-linecap="butt" transform="matrix(1,0,0,1,55,-430)" text-rendering="geometricPrecision" font-family="sans-serif" shape-rendering="geometricPrecision" stroke-miterlimit="1.45">
      <text x="1415.3757" xml:space="preserve" y="659.8537" clip-path="url(#clipPath2)" stroke="none">JR - Leg 1</text>
      <text x="1377.6675" xml:space="preserve" y="675.1642" clip-path="url(#clipPath2)" stroke="none">&lt;TimedCompetition&gt;</text>
      <ellipse rx="76.25" fill="none" ry="29.5" clip-path="url(#clipPath2)" cx="1446.6887" cy="662.5959"/>
    </g>
    <g fill="rgb(255,255,153)" text-rendering="geometricPrecision" shape-rendering="geometricPrecision" transform="matrix(1,0,0,1,55,-430)" stroke="rgb(255,255,153)">
      <ellipse rx="76.25" ry="29.5" clip-path="url(#clipPath2)" cx="1446.6887" cy="760.861" stroke="none"/>
    </g>
    <g font-size="13px" stroke-linecap="butt" transform="matrix(1,0,0,1,55,-430)" text-rendering="geometricPrecision" font-family="sans-serif" shape-rendering="geometricPrecision" stroke-miterlimit="1.45">
      <text x="1415.3757" xml:space="preserve" y="758.1188" clip-path="url(#clipPath2)" stroke="none">JR - Leg 2</text>
      <text x="1377.6675" xml:space="preserve" y="773.4294" clip-path="url(#clipPath2)" stroke="none">&lt;TimedCompetition&gt;</text>
      <ellipse rx="76.25" fill="none" ry="29.5" clip-path="url(#clipPath2)" cx="1446.6887" cy="760.861"/>
    </g>
    <g fill="rgb(255,255,153)" text-rendering="geometricPrecision" shape-rendering="geometricPrecision" transform="matrix(1,0,0,1,55,-430)" stroke="rgb(255,255,153)">
      <ellipse rx="76.25" ry="29.5" clip-path="url(#clipPath2)" cx="1446.6887" cy="859.1261" stroke="none"/>
    </g>
    <g font-size="13px" stroke-linecap="butt" transform="matrix(1,0,0,1,55,-430)" text-rendering="geometricPrecision" font-family="sans-serif" shape-rendering="geometricPrecision" stroke-miterlimit="1.45">
      <text x="1415.3757" xml:space="preserve" y="856.384" clip-path="url(#clipPath2)" stroke="none">JR - Leg 3</text>
      <text x="1377.6675" xml:space="preserve" y="871.6945" clip-path="url(#clipPath2)" stroke="none">&lt;TimedCompetition&gt;</text>
      <ellipse rx="76.25" fill="none" ry="29.5" clip-path="url(#clipPath2)" cx="1446.6887" cy="859.1261"/>
    </g>
    <g fill="rgb(255,255,153)" text-rendering="geometricPrecision" shape-rendering="geometricPrecision" transform="matrix(1,0,0,1,55,-430)" stroke="rgb(255,255,153)">
      <ellipse rx="76.25" ry="29.5" clip-path="url(#clipPath2)" cx="1446.6887" cy="950.1918" stroke="none"/>
    </g>
    <g font-size="13px" stroke-linecap="butt" transform="matrix(1,0,0,1,55,-430)" text-rendering="geometricPrecision" font-family="sans-serif" shape-rendering="geometricPrecision" stroke-miterlimit="1.45">
      <text x="1415.3757" xml:space="preserve" y="947.4496" clip-path="url(#clipPath2)" stroke="none">JR - Leg 4</text>
      <text x="1377.6675" xml:space="preserve" y="962.7601" clip-path="url(#clipPath2)" stroke="none">&lt;TimedCompetition&gt;</text>
      <ellipse rx="76.25" fill="none" ry="29.5" clip-path="url(#clipPath2)" cx="1446.6887" cy="950.1918"/>
    </g>
    <g fill="rgb(255,255,153)" text-rendering="geometricPrecision" shape-rendering="geometricPrecision" transform="matrix(1,0,0,1,55,-430)" stroke="rgb(255,255,153)">
      <ellipse rx="76.25" ry="29.5" clip-path="url(#clipPath2)" cx="945.6887" cy="740.3459" stroke="none"/>
    </g>
    <g font-size="13px" stroke-linecap="butt" transform="matrix(1,0,0,1,55,-430)" text-rendering="geometricPrecision" font-family="sans-serif" shape-rendering="geometricPrecision" stroke-miterlimit="1.45">
      <text x="912.8523" xml:space="preserve" y="737.6037" clip-path="url(#clipPath2)" stroke="none">U18 Men's</text>
      <text x="907.114" xml:space="preserve" y="752.9142" clip-path="url(#clipPath2)" stroke="none">&lt;Category&gt;</text>
      <ellipse rx="76.25" fill="none" ry="29.5" clip-path="url(#clipPath2)" cx="945.6887" cy="740.3459"/>
    </g>
    <g fill="rgb(255,255,153)" text-rendering="geometricPrecision" shape-rendering="geometricPrecision" transform="matrix(1,0,0,1,55,-430)" stroke="rgb(255,255,153)">
      <ellipse rx="76.25" ry="29.5" clip-path="url(#clipPath2)" cx="945.6887" cy="662.5959" stroke="none"/>
    </g>
    <g font-size="13px" stroke-linecap="butt" transform="matrix(1,0,0,1,55,-430)" text-rendering="geometricPrecision" font-family="sans-serif" shape-rendering="geometricPrecision" stroke-miterlimit="1.45">
      <text x="876.4517" xml:space="preserve" y="659.8537" clip-path="url(#clipPath2)" stroke="none">4x1.1 mile Relay Race</text>
      <text x="859.7415" xml:space="preserve" y="675.1642" clip-path="url(#clipPath2)" stroke="none">&lt;MediumOrLongDistance&gt;</text>
      <ellipse rx="76.25" fill="none" ry="29.5" clip-path="url(#clipPath2)" cx="945.6887" cy="662.5959"/>
    </g>
    <g fill="rgb(255,153,153)" text-rendering="geometricPrecision" shape-rendering="geometricPrecision" transform="matrix(1,0,0,1,55,-430)" stroke="rgb(255,153,153)">
      <ellipse rx="76.25" ry="29.5" clip-path="url(#clipPath2)" cx="1206.6887" cy="950.1918" stroke="none"/>
    </g>
    <g font-size="13px" stroke-linecap="butt" transform="matrix(1,0,0,1,55,-430)" text-rendering="geometricPrecision" font-family="sans-serif" shape-rendering="geometricPrecision" stroke-miterlimit="1.45">
      <text x="1165.3083" xml:space="preserve" y="947.4496" clip-path="url(#clipPath2)" stroke="none">Junior Teams</text>
      <text x="1162.563" xml:space="preserve" y="962.7601" clip-path="url(#clipPath2)" stroke="none">&lt;ResultsList&gt;</text>
      <ellipse rx="76.25" fill="none" ry="29.5" clip-path="url(#clipPath2)" cx="1206.6887" cy="950.1918"/>
    </g>
    <g fill="rgb(255,153,153)" text-rendering="geometricPrecision" shape-rendering="geometricPrecision" transform="matrix(1,0,0,1,55,-430)" stroke="rgb(255,153,153)">
      <ellipse rx="76.25" ry="29.5" clip-path="url(#clipPath2)" cx="1026.6887" cy="950.1918" stroke="none"/>
    </g>
    <g font-size="13px" stroke-linecap="butt" transform="matrix(1,0,0,1,55,-430)" text-rendering="geometricPrecision" font-family="sans-serif" shape-rendering="geometricPrecision" stroke-miterlimit="1.45">
      <text x="985.3083" xml:space="preserve" y="947.4496" clip-path="url(#clipPath2)" stroke="none">Junior Teams</text>
      <text x="990.6531" xml:space="preserve" y="962.7601" clip-path="url(#clipPath2)" stroke="none">&lt;StartList&gt;</text>
      <ellipse rx="76.25" fill="none" ry="29.5" clip-path="url(#clipPath2)" cx="1026.6887" cy="950.1918"/>
    </g>
    <g fill="rgb(255,153,153)" text-rendering="geometricPrecision" shape-rendering="geometricPrecision" transform="matrix(1,0,0,1,55,-430)" stroke="rgb(255,153,153)">
      <ellipse rx="64.75" ry="22.5" clip-path="url(#clipPath2)" cx="1656.6887" cy="662.5959" stroke="none"/>
    </g>
    <g font-size="13px" stroke-linecap="butt" transform="matrix(1,0,0,1,55,-430)" text-rendering="geometricPrecision" font-family="sans-serif" shape-rendering="geometricPrecision" stroke-miterlimit="1.45">
      <text x="1607.1992" xml:space="preserve" y="659.8537" clip-path="url(#clipPath2)" stroke="none">S1 JR - Athletes</text>
      <text x="1612.563" xml:space="preserve" y="675.1642" clip-path="url(#clipPath2)" stroke="none">&lt;ResultsList&gt;</text>
      <ellipse rx="64.75" fill="none" ry="22.5" clip-path="url(#clipPath2)" cx="1656.6887" cy="662.5959"/>
    </g>
    <g fill="rgb(255,153,153)" text-rendering="geometricPrecision" shape-rendering="geometricPrecision" transform="matrix(1,0,0,1,55,-430)" stroke="rgb(255,153,153)">
      <ellipse rx="64.75" ry="22.5" clip-path="url(#clipPath2)" cx="1656.6887" cy="764.8459" stroke="none"/>
    </g>
    <g font-size="13px" stroke-linecap="butt" transform="matrix(1,0,0,1,55,-430)" text-rendering="geometricPrecision" font-family="sans-serif" shape-rendering="geometricPrecision" stroke-miterlimit="1.45">
      <text x="1607.1992" xml:space="preserve" y="762.1037" clip-path="url(#clipPath2)" stroke="none">S2 JR - Athletes</text>
      <text x="1612.563" xml:space="preserve" y="777.4142" clip-path="url(#clipPath2)" stroke="none">&lt;ResultsList&gt;</text>
      <ellipse rx="64.75" fill="none" ry="22.5" clip-path="url(#clipPath2)" cx="1656.6887" cy="764.8459"/>
    </g>
    <g fill="rgb(255,153,153)" text-rendering="geometricPrecision" shape-rendering="geometricPrecision" transform="matrix(1,0,0,1,55,-430)" stroke="rgb(255,153,153)">
      <ellipse rx="64.75" ry="22.5" clip-path="url(#clipPath2)" cx="1656.6887" cy="866.8459" stroke="none"/>
    </g>
    <g font-size="13px" stroke-linecap="butt" transform="matrix(1,0,0,1,55,-430)" text-rendering="geometricPrecision" font-family="sans-serif" shape-rendering="geometricPrecision" stroke-miterlimit="1.45">
      <text x="1607.1992" xml:space="preserve" y="864.1037" clip-path="url(#clipPath2)" stroke="none">S3 JR - Athletes</text>
      <text x="1612.563" xml:space="preserve" y="879.4142" clip-path="url(#clipPath2)" stroke="none">&lt;ResultsList&gt;</text>
      <ellipse rx="64.75" fill="none" ry="22.5" clip-path="url(#clipPath2)" cx="1656.6887" cy="866.8459"/>
    </g>
    <g fill="rgb(255,153,153)" text-rendering="geometricPrecision" shape-rendering="geometricPrecision" transform="matrix(1,0,0,1,55,-430)" stroke="rgb(255,153,153)">
      <ellipse rx="64.75" ry="22.5" clip-path="url(#clipPath2)" cx="1656.6887" cy="968.8459" stroke="none"/>
    </g>
    <g font-size="13px" stroke-linecap="butt" transform="matrix(1,0,0,1,55,-430)" text-rendering="geometricPrecision" font-family="sans-serif" shape-rendering="geometricPrecision" stroke-miterlimit="1.45">
      <text x="1607.1992" xml:space="preserve" y="966.1037" clip-path="url(#clipPath2)" stroke="none">S6 JR - Athletes</text>
      <text x="1612.563" xml:space="preserve" y="981.4142" clip-path="url(#clipPath2)" stroke="none">&lt;ResultsList&gt;</text>
      <ellipse rx="64.75" fill="none" ry="22.5" clip-path="url(#clipPath2)" cx="1656.6887" cy="968.8459"/>
      <path fill="none" d="M749.8926 506.3241 L379.4275 634.7211" clip-path="url(#clipPath2)"/>
      <path d="M371.8686 637.3408 L384.8443 638.1355 L380.3724 634.3936 L381.5696 628.6869 Z" stroke="none" clip-path="url(#clipPath2)"/>
      <text x="388.521" xml:space="preserve" font-size="12px" y="595.2642" clip-path="url(#clipPath2)" stroke="none">subEvent</text>
      <path fill="none" d="M404.25 662.5959 L465.25 662.5959" clip-path="url(#clipPath2)"/>
      <path d="M473.25 662.5959 L461.25 657.5959 L464.25 662.5959 L461.25 667.5959 Z" stroke="none" clip-path="url(#clipPath2)"/>
      <text x="413.7969" xml:space="preserve" font-size="12px" y="637.131" clip-path="url(#clipPath2)" stroke="none">subEvent</text>
      <path fill="none" d="M367.0588 689.2938 L488.5099 736.9361" clip-path="url(#clipPath2)"/>
      <path d="M495.9574 739.8575 L486.6121 730.8207 L487.579 736.5709 L482.9603 740.1301 Z" stroke="none" clip-path="url(#clipPath2)"/>
      <text x="413.7969" xml:space="preserve" font-size="12px" y="722.4512" clip-path="url(#clipPath2)" stroke="none">subEvent</text>
      <path fill="none" d="M549.5 692.0959 L549.5 723.361" clip-path="url(#clipPath2)"/>
      <path d="M549.5 731.361 L554.5 719.361 L549.5 722.361 L544.5 719.361 Z" stroke="none" clip-path="url(#clipPath2)"/>
      <text x="550.6367" xml:space="preserve" font-size="12px" y="710.6974" clip-path="url(#clipPath2)" stroke="none">nextStage</text>
      <path fill="none" d="M340.0741 694.8207 L509.4823 827.7302" clip-path="url(#clipPath2)"/>
      <path d="M515.7764 832.6682 L509.4215 821.3273 L508.6955 827.1129 L503.249 829.1949 Z" stroke="none" clip-path="url(#clipPath2)"/>
      <text x="424.6789" xml:space="preserve" font-size="12px" y="786.3088" clip-path="url(#clipPath2)" stroke="none">subEvent</text>
      <path fill="none" d="M549.5 790.361 L549.5 821.6262" clip-path="url(#clipPath2)"/>
      <path d="M549.5 829.6262 L554.5 817.6262 L549.5 820.6262 L544.5 817.6262 Z" stroke="none" clip-path="url(#clipPath2)"/>
      <text x="550.6367" xml:space="preserve" font-size="12px" y="814.5287" clip-path="url(#clipPath2)" stroke="none">nextStage</text>
      <path fill="none" d="M328.2819 696.2141 L519.8961 916.2039" clip-path="url(#clipPath2)"/>
      <path d="M525.1505 922.2364 L521.0392 909.9036 L519.2393 915.4498 L513.4985 916.4716 Z" stroke="none" clip-path="url(#clipPath2)"/>
      <text x="395.1153" xml:space="preserve" font-size="12px" y="853.2662" clip-path="url(#clipPath2)" stroke="none">subEvent</text>
      <path fill="none" d="M549.5 888.6262 L549.5 912.6918" clip-path="url(#clipPath2)"/>
      <path d="M549.5 920.6918 L554.5 908.6918 L549.5 911.6918 L544.5 908.6918 Z" stroke="none" clip-path="url(#clipPath2)"/>
      <text x="550.6367" xml:space="preserve" font-size="12px" y="909.1941" clip-path="url(#clipPath2)" stroke="none">nextStage</text>
      <path fill="none" d="M222.0573 686.4773 L115.6163 719.5144" clip-path="url(#clipPath2)"/>
      <path d="M107.9759 721.8858 L120.9187 723.104 L116.5714 719.218 L117.9544 713.5534 Z" stroke="none" clip-path="url(#clipPath2)"/>
      <text x="131.75" xml:space="preserve" font-size="12px" y="711.2855" clip-path="url(#clipPath2)" stroke="none">category</text>
      <path fill="none" d="M193.75 662.5959 L132.75 662.5959" clip-path="url(#clipPath2)"/>
      <path d="M124.75 662.5959 L136.75 667.5959 L133.75 662.5959 L136.75 657.5959 Z" stroke="none" clip-path="url(#clipPath2)"/>
      <text x="130.5615" xml:space="preserve" font-size="12px" y="637.131" clip-path="url(#clipPath2)" stroke="none">discipline</text>
      <path fill="none" d="M300.2777 697.5933 L308.1312 912.7001" clip-path="url(#clipPath2)"/>
      <path d="M308.4231 920.6948 L312.9819 908.5203 L308.0947 911.7007 L302.9886 908.8852 Z" stroke="none" clip-path="url(#clipPath2)"/>
      <text x="317.628" xml:space="preserve" font-size="12px" y="892.4204" clip-path="url(#clipPath2)" stroke="none">results</text>
      <path fill="none" d="M278.7572 696.9424 L150.5133 914.538" clip-path="url(#clipPath2)"/>
      <path d="M146.4513 921.43 L156.8518 913.6307 L151.021 913.6765 L148.2367 908.5532 Z" stroke="none" clip-path="url(#clipPath2)"/>
      <text x="111.5754" xml:space="preserve" font-size="12px" y="886.0945" clip-path="url(#clipPath2)" stroke="none">startList</text>
      <path fill="none" d="M625.75 662.5959 L686.75 662.5959" clip-path="url(#clipPath2)"/>
      <path d="M694.75 662.5959 L682.75 657.5959 L685.75 662.5959 L682.75 667.5959 Z" stroke="none" clip-path="url(#clipPath2)"/>
      <text x="640.6328" xml:space="preserve" font-size="12px" y="667.131" clip-path="url(#clipPath2)" stroke="none">results</text>
      <path fill="none" d="M625.6584 762.3062 L686.8478 763.4673" clip-path="url(#clipPath2)"/>
      <path d="M694.8463 763.619 L682.9433 758.3923 L685.848 763.4483 L682.7537 768.3905 Z" stroke="none" clip-path="url(#clipPath2)"/>
      <text x="640.6328" xml:space="preserve" font-size="12px" y="767.4977" clip-path="url(#clipPath2)" stroke="none">results</text>
      <path fill="none" d="M625.4081 861.9166 L687.1147 864.1849" clip-path="url(#clipPath2)"/>
      <path d="M695.1093 864.4788 L683.3011 859.0414 L686.1154 864.1482 L682.9337 869.0346 Z" stroke="none" clip-path="url(#clipPath2)"/>
      <text x="640.6328" xml:space="preserve" font-size="12px" y="867.7325" clip-path="url(#clipPath2)" stroke="none">results</text>
      <path fill="none" d="M623.8163 956.7932 L688.7986 962.5656" clip-path="url(#clipPath2)"/>
      <path d="M696.7673 963.2734 L685.2567 957.2313 L687.8026 962.4771 L684.3719 967.192 Z" stroke="none" clip-path="url(#clipPath2)"/>
      <text x="640.6328" xml:space="preserve" font-size="12px" y="964.5648" clip-path="url(#clipPath2)" stroke="none">results</text>
      <path fill="none" d="M886.2877 509.8006 L1130.161 630.0413" clip-path="url(#clipPath2)"/>
      <path d="M1137.3363 633.579 L1128.7844 623.7878 L1129.2642 629.5991 L1124.3623 632.757 Z" stroke="none" clip-path="url(#clipPath2)"/>
      <text x="1098.2996" xml:space="preserve" font-size="12px" y="598.3499" clip-path="url(#clipPath2)" stroke="none">subEvent</text>
      <path fill="none" d="M1301.4387 662.5959 L1362.4387 662.5959" clip-path="url(#clipPath2)"/>
      <path d="M1370.4387 662.5959 L1358.4387 657.5959 L1361.4387 662.5959 L1358.4387 667.5959 Z" stroke="none" clip-path="url(#clipPath2)"/>
      <text x="1310.9856" xml:space="preserve" font-size="12px" y="637.131" clip-path="url(#clipPath2)" stroke="none">subEvent</text>
      <path fill="none" d="M1264.2476 689.2938 L1385.6986 736.9361" clip-path="url(#clipPath2)"/>
      <path d="M1393.1461 739.8575 L1383.8008 730.8207 L1384.7677 736.5709 L1380.1489 740.1301 Z" stroke="none" clip-path="url(#clipPath2)"/>
      <text x="1356.2155" xml:space="preserve" font-size="12px" y="707.9681" clip-path="url(#clipPath2)" stroke="none">subEvent</text>
      <path fill="none" d="M1446.6887 692.0959 L1446.6887 723.361" clip-path="url(#clipPath2)"/>
      <path d="M1446.6887 731.361 L1451.6887 719.361 L1446.6887 722.361 L1441.6887 719.361 Z" stroke="none" clip-path="url(#clipPath2)"/>
      <path fill="none" d="M1237.2628 694.8207 L1406.671 827.7302" clip-path="url(#clipPath2)"/>
      <path d="M1412.9651 832.6682 L1406.6102 821.3273 L1405.8843 827.1129 L1400.4376 829.1949 Z" stroke="none" clip-path="url(#clipPath2)"/>
      <text x="1347.6289" xml:space="preserve" font-size="12px" y="806.5198" clip-path="url(#clipPath2)" stroke="none">subEvent</text>
      <path fill="none" d="M1225.4706 696.2141 L1417.0847 916.2039" clip-path="url(#clipPath2)"/>
      <path d="M1422.3391 922.2364 L1418.2279 909.9036 L1416.428 915.4498 L1410.6873 916.4716 Z" stroke="none" clip-path="url(#clipPath2)"/>
      <text x="1342.7308" xml:space="preserve" font-size="12px" y="911.1605" clip-path="url(#clipPath2)" stroke="none">subEvent</text>
      <path fill="none" d="M1119.246 686.4773 L1012.805 719.5144" clip-path="url(#clipPath2)"/>
      <path d="M1005.1646 721.8858 L1018.1074 723.104 L1013.7601 719.218 L1015.1431 713.5534 Z" stroke="none" clip-path="url(#clipPath2)"/>
      <text x="1028.9387" xml:space="preserve" font-size="12px" y="711.2855" clip-path="url(#clipPath2)" stroke="none">category</text>
      <path fill="none" d="M1090.9387 662.5959 L1029.9387 662.5959" clip-path="url(#clipPath2)"/>
      <path d="M1021.9387 662.5959 L1033.9387 667.5959 L1030.9387 662.5959 L1033.9387 657.5959 Z" stroke="none" clip-path="url(#clipPath2)"/>
      <text x="1027.7502" xml:space="preserve" font-size="12px" y="637.131" clip-path="url(#clipPath2)" stroke="none">discipline</text>
      <path fill="none" d="M1197.4664 697.5933 L1205.3199 912.7001" clip-path="url(#clipPath2)"/>
      <path d="M1205.6118 920.6948 L1210.1707 908.5203 L1205.2834 911.7007 L1200.1774 908.8852 Z" stroke="none" clip-path="url(#clipPath2)"/>
      <text x="1214.8168" xml:space="preserve" font-size="12px" y="892.4204" clip-path="url(#clipPath2)" stroke="none">results</text>
      <path fill="none" d="M1175.9459 696.9424 L1047.7019 914.538" clip-path="url(#clipPath2)"/>
      <path d="M1043.64 921.4301 L1054.0404 913.6306 L1048.2097 913.6765 L1045.4253 908.5532 Z" stroke="none" clip-path="url(#clipPath2)"/>
      <text x="1008.764" xml:space="preserve" font-size="12px" y="886.0945" clip-path="url(#clipPath2)" stroke="none">startList</text>
      <path fill="none" d="M1522.9387 662.5959 L1583.9387 662.5959" clip-path="url(#clipPath2)"/>
      <path d="M1591.9387 662.5959 L1579.9387 657.5959 L1582.9387 662.5959 L1579.9387 667.5959 Z" stroke="none" clip-path="url(#clipPath2)"/>
      <text x="1537.8215" xml:space="preserve" font-size="12px" y="667.131" clip-path="url(#clipPath2)" stroke="none">results</text>
      <path fill="none" d="M1522.8472 762.3062 L1584.0365 763.4673" clip-path="url(#clipPath2)"/>
      <path d="M1592.035 763.619 L1580.1321 758.3923 L1583.0366 763.4483 L1579.9424 768.3905 Z" stroke="none" clip-path="url(#clipPath2)"/>
      <text x="1537.8215" xml:space="preserve" font-size="12px" y="767.4977" clip-path="url(#clipPath2)" stroke="none">results</text>
      <path fill="none" d="M1522.5968 861.9166 L1584.3035 864.1849" clip-path="url(#clipPath2)"/>
      <path d="M1592.2981 864.4788 L1580.4899 859.0414 L1583.3042 864.1482 L1580.1226 869.0346 Z" stroke="none" clip-path="url(#clipPath2)"/>
      <text x="1537.8215" xml:space="preserve" font-size="12px" y="867.7325" clip-path="url(#clipPath2)" stroke="none">results</text>
      <path fill="none" d="M1521.005 956.7932 L1585.9873 962.5656" clip-path="url(#clipPath2)"/>
      <path d="M1593.9559 963.2734 L1582.4454 957.2313 L1584.9912 962.4771 L1581.5605 967.192 Z" stroke="none" clip-path="url(#clipPath2)"/>
      <text x="1537.8215" xml:space="preserve" font-size="12px" y="964.5648" clip-path="url(#clipPath2)" stroke="none">results</text>
    </g>
  </g>
</svg>
