<?xml version="1.0" encoding="UTF-8"?><svg xmlns="http://www.w3.org/2000/svg" xmlns:xlink="http://www.w3.org/1999/xlink" fill-opacity="1" color-rendering="auto" color-interpolation="auto" text-rendering="auto" stroke="black" stroke-linecap="square" width="954" stroke-miterlimit="10" shape-rendering="auto" stroke-opacity="1" fill="black" stroke-dasharray="none" font-weight="normal" stroke-width="1" height="727" font-family="'Dialog'" font-style="normal" stroke-linejoin="miter" font-size="12px" stroke-dashoffset="0" image-rendering="auto">
  <!--Generated by ySVG 2.5-->
  <defs id="genericDefs"/>
  <g>
    <defs id="defs1">
      <clipPath clipPathUnits="userSpaceOnUse" id="clipPath1">
        <path d="M0 0 L954 0 L954 727 L0 727 L0 0 Z"/>
      </clipPath>
      <clipPath clipPathUnits="userSpaceOnUse" id="clipPath2">
        <path d="M385 9 L1339 9 L1339 736 L385 736 L385 9 Z"/>
      </clipPath>
    </defs>
    <g fill="white" text-rendering="geometricPrecision" shape-rendering="geometricPrecision" transform="translate(-385,-9)" stroke="white">
      <rect x="385" width="954" height="727" y="9" clip-path="url(#clipPath2)" stroke="none"/>
    </g>
    <g fill="rgb(255,255,153)" text-rendering="geometricPrecision" shape-rendering="geometricPrecision" transform="matrix(1,0,0,1,-385,-9)" stroke="rgb(255,255,153)">
      <ellipse rx="90" ry="30.5" clip-path="url(#clipPath2)" cx="911" cy="54.5" stroke="none"/>
    </g>
    <g font-size="13px" stroke-linecap="butt" transform="matrix(1,0,0,1,-385,-9)" text-rendering="geometricPrecision" font-family="sans-serif" shape-rendering="geometricPrecision" stroke-miterlimit="1.45">
      <text x="830.5815" xml:space="preserve" y="51.7578" clip-path="url(#clipPath2)" stroke="none">European Championships</text>
      <text x="843.1531" xml:space="preserve" y="67.0684" clip-path="url(#clipPath2)" stroke="none">&lt;CompetitionSeries&gt;</text>
      <ellipse rx="90" fill="none" ry="30.5" clip-path="url(#clipPath2)" cx="911" cy="54.5"/>
    </g>
    <g fill="rgb(255,255,153)" text-rendering="geometricPrecision" shape-rendering="geometricPrecision" transform="matrix(1,0,0,1,-385,-9)" stroke="rgb(255,255,153)">
      <ellipse rx="90" ry="30.5" clip-path="url(#clipPath2)" cx="911" cy="150" stroke="none"/>
    </g>
    <g font-size="13px" stroke-linecap="butt" transform="matrix(1,0,0,1,-385,-9)" text-rendering="geometricPrecision" font-family="sans-serif" shape-rendering="geometricPrecision" stroke-miterlimit="1.45">
      <text x="856.1753" xml:space="preserve" y="147.2578" clip-path="url(#clipPath2)" stroke="none">Amsterdam 2016</text>
      <text x="861.7485" xml:space="preserve" y="162.5684" clip-path="url(#clipPath2)" stroke="none">&lt;Competition&gt;</text>
      <ellipse rx="90" fill="none" ry="30.5" clip-path="url(#clipPath2)" cx="911" cy="150"/>
    </g>
    <g fill="rgb(255,255,153)" text-rendering="geometricPrecision" shape-rendering="geometricPrecision" transform="matrix(1,0,0,1,-385,-9)" stroke="rgb(255,255,153)">
      <ellipse rx="90" ry="30.5" clip-path="url(#clipPath2)" cx="911" cy="259.5" stroke="none"/>
    </g>
    <g font-size="13px" stroke-linecap="butt" transform="matrix(1,0,0,1,-385,-9)" text-rendering="geometricPrecision" font-family="sans-serif" shape-rendering="geometricPrecision" stroke-miterlimit="1.45">
      <text x="875.8562" xml:space="preserve" y="256.7578" clip-path="url(#clipPath2)" stroke="none">100m Male</text>
      <text x="861.7485" xml:space="preserve" y="272.0684" clip-path="url(#clipPath2)" stroke="none">&lt;Competition&gt;</text>
      <ellipse rx="90" fill="none" ry="30.5" clip-path="url(#clipPath2)" cx="911" cy="259.5"/>
    </g>
    <g fill="rgb(255,204,153)" text-rendering="geometricPrecision" shape-rendering="geometricPrecision" transform="matrix(1,0,0,1,-385,-9)" stroke="rgb(255,204,153)">
      <ellipse rx="65.5" ry="30.5" clip-path="url(#clipPath2)" cx="466" cy="510" stroke="none"/>
    </g>
    <g font-size="13px" stroke-linecap="butt" transform="matrix(1,0,0,1,-385,-9)" text-rendering="geometricPrecision" font-family="sans-serif" shape-rendering="geometricPrecision" stroke-miterlimit="1.45">
      <text x="408.8647" xml:space="preserve" y="507.2578" clip-path="url(#clipPath2)" stroke="none">100m R1 - Heat 1</text>
      <text x="403.9009" xml:space="preserve" y="522.5684" clip-path="url(#clipPath2)" stroke="none">&lt;UnitCompetition&gt;</text>
      <ellipse rx="65.5" fill="none" ry="30.5" clip-path="url(#clipPath2)" cx="466" cy="510"/>
    </g>
    <g fill="rgb(255,255,153)" text-rendering="geometricPrecision" shape-rendering="geometricPrecision" transform="matrix(1,0,0,1,-385,-9)" stroke="rgb(255,255,153)">
      <ellipse rx="90" ry="30.5" clip-path="url(#clipPath2)" cx="614" cy="395.5" stroke="none"/>
    </g>
    <g font-size="13px" stroke-linecap="butt" transform="matrix(1,0,0,1,-385,-9)" text-rendering="geometricPrecision" font-family="sans-serif" shape-rendering="geometricPrecision" stroke-miterlimit="1.45">
      <text x="567.1162" xml:space="preserve" y="392.7578" clip-path="url(#clipPath2)" stroke="none">100m Round 1</text>
      <text x="583.4043" xml:space="preserve" y="408.0684" clip-path="url(#clipPath2)" stroke="none">&lt;Round&gt;</text>
      <ellipse rx="90" fill="none" ry="30.5" clip-path="url(#clipPath2)" cx="614" cy="395.5"/>
    </g>
    <g fill="rgb(255,255,153)" text-rendering="geometricPrecision" shape-rendering="geometricPrecision" transform="matrix(1,0,0,1,-385,-9)" stroke="rgb(255,255,153)">
      <ellipse rx="90" ry="30.5" clip-path="url(#clipPath2)" cx="911" cy="395.5" stroke="none"/>
    </g>
    <g font-size="13px" stroke-linecap="butt" transform="matrix(1,0,0,1,-385,-9)" text-rendering="geometricPrecision" font-family="sans-serif" shape-rendering="geometricPrecision" stroke-miterlimit="1.45">
      <text x="858.3906" xml:space="preserve" y="392.7578" clip-path="url(#clipPath2)" stroke="none">100m Semifinals</text>
      <text x="880.4043" xml:space="preserve" y="408.0684" clip-path="url(#clipPath2)" stroke="none">&lt;Round&gt;</text>
      <ellipse rx="90" fill="none" ry="30.5" clip-path="url(#clipPath2)" cx="911" cy="395.5"/>
    </g>
    <g fill="rgb(255,204,153)" text-rendering="geometricPrecision" shape-rendering="geometricPrecision" transform="matrix(1,0,0,1,-385,-9)" stroke="rgb(255,204,153)">
      <ellipse rx="65.5" ry="30.5" clip-path="url(#clipPath2)" cx="556" cy="570" stroke="none"/>
    </g>
    <g font-size="13px" stroke-linecap="butt" transform="matrix(1,0,0,1,-385,-9)" text-rendering="geometricPrecision" font-family="sans-serif" shape-rendering="geometricPrecision" stroke-miterlimit="1.45">
      <text x="498.8647" xml:space="preserve" y="567.2578" clip-path="url(#clipPath2)" stroke="none">100m R1 - Heat 2</text>
      <text x="493.9009" xml:space="preserve" y="582.5684" clip-path="url(#clipPath2)" stroke="none">&lt;UnitCompetition&gt;</text>
      <ellipse rx="65.5" fill="none" ry="30.5" clip-path="url(#clipPath2)" cx="556" cy="570"/>
    </g>
    <g fill="rgb(255,204,153)" text-rendering="geometricPrecision" shape-rendering="geometricPrecision" transform="matrix(1,0,0,1,-385,-9)" stroke="rgb(255,204,153)">
      <ellipse rx="65.5" ry="30.5" clip-path="url(#clipPath2)" cx="646" cy="630" stroke="none"/>
    </g>
    <g font-size="13px" stroke-linecap="butt" transform="matrix(1,0,0,1,-385,-9)" text-rendering="geometricPrecision" font-family="sans-serif" shape-rendering="geometricPrecision" stroke-miterlimit="1.45">
      <text x="588.8647" xml:space="preserve" y="627.2578" clip-path="url(#clipPath2)" stroke="none">100m R1 - Heat 3</text>
      <text x="583.9009" xml:space="preserve" y="642.5684" clip-path="url(#clipPath2)" stroke="none">&lt;UnitCompetition&gt;</text>
      <ellipse rx="65.5" fill="none" ry="30.5" clip-path="url(#clipPath2)" cx="646" cy="630"/>
    </g>
    <g fill="rgb(255,204,153)" text-rendering="geometricPrecision" shape-rendering="geometricPrecision" transform="matrix(1,0,0,1,-385,-9)" stroke="rgb(255,204,153)">
      <ellipse rx="65.5" ry="30.5" clip-path="url(#clipPath2)" cx="736" cy="690" stroke="none"/>
    </g>
    <g font-size="13px" stroke-linecap="butt" transform="matrix(1,0,0,1,-385,-9)" text-rendering="geometricPrecision" font-family="sans-serif" shape-rendering="geometricPrecision" stroke-miterlimit="1.45">
      <text x="678.8647" xml:space="preserve" y="687.2578" clip-path="url(#clipPath2)" stroke="none">100m R1 - Heat 4</text>
      <text x="673.9009" xml:space="preserve" y="702.5684" clip-path="url(#clipPath2)" stroke="none">&lt;UnitCompetition&gt;</text>
      <ellipse rx="65.5" fill="none" ry="30.5" clip-path="url(#clipPath2)" cx="736" cy="690"/>
    </g>
    <g fill="rgb(255,204,153)" text-rendering="geometricPrecision" shape-rendering="geometricPrecision" transform="matrix(1,0,0,1,-385,-9)" stroke="rgb(255,204,153)">
      <ellipse rx="65.5" ry="30.5" clip-path="url(#clipPath2)" cx="821" cy="510" stroke="none"/>
    </g>
    <g font-size="13px" stroke-linecap="butt" transform="matrix(1,0,0,1,-385,-9)" text-rendering="geometricPrecision" font-family="sans-serif" shape-rendering="geometricPrecision" stroke-miterlimit="1.45">
      <text x="761.1289" xml:space="preserve" y="507.2578" clip-path="url(#clipPath2)" stroke="none">100m Semi-Heat 1</text>
      <text x="758.9009" xml:space="preserve" y="522.5684" clip-path="url(#clipPath2)" stroke="none">&lt;UnitCompetition&gt;</text>
      <ellipse rx="65.5" fill="none" ry="30.5" clip-path="url(#clipPath2)" cx="821" cy="510"/>
    </g>
    <g fill="rgb(255,204,153)" text-rendering="geometricPrecision" shape-rendering="geometricPrecision" transform="matrix(1,0,0,1,-385,-9)" stroke="rgb(255,204,153)">
      <ellipse rx="65.5" ry="30.5" clip-path="url(#clipPath2)" cx="911" cy="570" stroke="none"/>
    </g>
    <g font-size="13px" stroke-linecap="butt" transform="matrix(1,0,0,1,-385,-9)" text-rendering="geometricPrecision" font-family="sans-serif" shape-rendering="geometricPrecision" stroke-miterlimit="1.45">
      <text x="851.1289" xml:space="preserve" y="567.2578" clip-path="url(#clipPath2)" stroke="none">100m Semi-Heat 2</text>
      <text x="848.9009" xml:space="preserve" y="582.5684" clip-path="url(#clipPath2)" stroke="none">&lt;UnitCompetition&gt;</text>
      <ellipse rx="65.5" fill="none" ry="30.5" clip-path="url(#clipPath2)" cx="911" cy="570"/>
    </g>
    <g fill="rgb(255,204,153)" text-rendering="geometricPrecision" shape-rendering="geometricPrecision" transform="matrix(1,0,0,1,-385,-9)" stroke="rgb(255,204,153)">
      <ellipse rx="65.5" ry="30.5" clip-path="url(#clipPath2)" cx="1001" cy="630" stroke="none"/>
    </g>
    <g font-size="13px" stroke-linecap="butt" transform="matrix(1,0,0,1,-385,-9)" text-rendering="geometricPrecision" font-family="sans-serif" shape-rendering="geometricPrecision" stroke-miterlimit="1.45">
      <text x="941.1289" xml:space="preserve" y="627.2578" clip-path="url(#clipPath2)" stroke="none">100m Semi-Heat 3</text>
      <text x="938.9009" xml:space="preserve" y="642.5684" clip-path="url(#clipPath2)" stroke="none">&lt;UnitCompetition&gt;</text>
      <ellipse rx="65.5" fill="none" ry="30.5" clip-path="url(#clipPath2)" cx="1001" cy="630"/>
    </g>
    <g fill="rgb(255,255,153)" text-rendering="geometricPrecision" shape-rendering="geometricPrecision" transform="matrix(1,0,0,1,-385,-9)" stroke="rgb(255,255,153)">
      <ellipse rx="90" ry="30.5" clip-path="url(#clipPath2)" cx="1208" cy="395.5" stroke="none"/>
    </g>
    <g font-size="13px" stroke-linecap="butt" transform="matrix(1,0,0,1,-385,-9)" text-rendering="geometricPrecision" font-family="sans-serif" shape-rendering="geometricPrecision" stroke-miterlimit="1.45">
      <text x="1172.6785" xml:space="preserve" y="392.7578" clip-path="url(#clipPath2)" stroke="none">100m Final</text>
      <text x="1177.4043" xml:space="preserve" y="408.0684" clip-path="url(#clipPath2)" stroke="none">&lt;Round&gt;</text>
      <ellipse rx="90" fill="none" ry="30.5" clip-path="url(#clipPath2)" cx="1208" cy="395.5"/>
    </g>
    <g fill="rgb(255,204,153)" text-rendering="geometricPrecision" shape-rendering="geometricPrecision" transform="matrix(1,0,0,1,-385,-9)" stroke="rgb(255,204,153)">
      <ellipse rx="65.5" ry="30.5" clip-path="url(#clipPath2)" cx="1208" cy="510" stroke="none"/>
    </g>
    <g font-size="13px" stroke-linecap="butt" transform="matrix(1,0,0,1,-385,-9)" text-rendering="geometricPrecision" font-family="sans-serif" shape-rendering="geometricPrecision" stroke-miterlimit="1.45">
      <text x="1172.6785" xml:space="preserve" y="507.2578" clip-path="url(#clipPath2)" stroke="none">100m Final</text>
      <text x="1145.9009" xml:space="preserve" y="522.5684" clip-path="url(#clipPath2)" stroke="none">&lt;UnitCompetition&gt;</text>
      <ellipse rx="65.5" fill="none" ry="30.5" clip-path="url(#clipPath2)" cx="1208" cy="510"/>
      <path fill="none" d="M911 85 L911 111.5" clip-path="url(#clipPath2)"/>
      <path d="M911 119.5 L916 107.5 L911 110.5 L906 107.5 Z" stroke="none" clip-path="url(#clipPath2)"/>
      <text x="854.7734" xml:space="preserve" font-size="12px" y="103.6016" clip-path="url(#clipPath2)" stroke="none">subEvent</text>
      <path fill="none" d="M911 180.5 L911 221" clip-path="url(#clipPath2)"/>
      <path d="M911 229 L916 217 L911 220 L906 217 Z" stroke="none" clip-path="url(#clipPath2)"/>
      <text x="854.7734" xml:space="preserve" font-size="12px" y="209.2852" clip-path="url(#clipPath2)" stroke="none">subEvent</text>
      <path fill="none" d="M911 290 L911 318 L609 318 L609 357.0374" clip-path="url(#clipPath2)"/>
      <path d="M609 365.0374 L614 353.0374 L609 356.0374 L604 353.0374 Z" stroke="none" clip-path="url(#clipPath2)"/>
      <text x="561.6357" xml:space="preserve" font-size="12px" y="339.002" clip-path="url(#clipPath2)" stroke="none">round</text>
      <path fill="none" d="M614 426 L614 450 L466 450 L466 471.5" clip-path="url(#clipPath2)"/>
      <path d="M466 479.5 L471 467.5 L466 470.5 L461 467.5 Z" stroke="none" clip-path="url(#clipPath2)"/>
      <text x="418.6504" xml:space="preserve" font-size="12px" y="442.252" clip-path="url(#clipPath2)" stroke="none">unitCompetition</text>
      <path fill="none" d="M911 290 L911 357" clip-path="url(#clipPath2)"/>
      <path d="M911 365 L916 353 L911 356 L906 353 Z" stroke="none" clip-path="url(#clipPath2)"/>
      <text x="863.6357" xml:space="preserve" font-size="12px" y="343.585" clip-path="url(#clipPath2)" stroke="none">round</text>
      <path fill="none" d="M614 426 L614 450 L570 450 L570 532.2051" clip-path="url(#clipPath2)"/>
      <path d="M570 540.2051 L575 528.2051 L570 531.2051 L565 528.2051 Z" stroke="none" clip-path="url(#clipPath2)"/>
      <text x="552.6504" xml:space="preserve" font-size="12px" y="513.9688" clip-path="url(#clipPath2)" stroke="none">unitCompetition</text>
      <path fill="none" d="M614 426 L614 450 L646 450 L646 591.5" clip-path="url(#clipPath2)"/>
      <path d="M646 599.5 L651 587.5 L646 590.5 L641 587.5 Z" stroke="none" clip-path="url(#clipPath2)"/>
      <text x="628.6504" xml:space="preserve" font-size="12px" y="589.9688" clip-path="url(#clipPath2)" stroke="none">unitCompetition</text>
      <path fill="none" d="M614 426 L614 450 L736 450 L736 651.5" clip-path="url(#clipPath2)"/>
      <path d="M736 659.5 L741 647.5 L736 650.5 L731 647.5 Z" stroke="none" clip-path="url(#clipPath2)"/>
      <text x="754.6504" xml:space="preserve" font-size="12px" y="648.9688" clip-path="url(#clipPath2)" stroke="none">unitCompetition</text>
      <path fill="none" d="M911 426 L911 450 L821 450 L821 471.5" clip-path="url(#clipPath2)"/>
      <path d="M821 479.5 L826 467.5 L821 470.5 L816 467.5 Z" stroke="none" clip-path="url(#clipPath2)"/>
      <text x="803.6504" xml:space="preserve" font-size="12px" y="469.9688" clip-path="url(#clipPath2)" stroke="none">unitCompetition</text>
      <path fill="none" d="M911 426 L911 531.5" clip-path="url(#clipPath2)"/>
      <path d="M911 539.5 L916 527.5 L911 530.5 L906 527.5 Z" stroke="none" clip-path="url(#clipPath2)"/>
      <text x="893.6504" xml:space="preserve" font-size="12px" y="529.9688" clip-path="url(#clipPath2)" stroke="none">unitCompetition</text>
      <path fill="none" d="M911 426.0232 L911 450 L1001 450 L1001 591.5" clip-path="url(#clipPath2)"/>
      <path d="M1001 599.5 L1006 587.5 L1001 590.5 L996 587.5 Z" stroke="none" clip-path="url(#clipPath2)"/>
      <text x="1024.6504" xml:space="preserve" font-size="12px" y="589.9688" clip-path="url(#clipPath2)" stroke="none">unitCompetition</text>
      <path fill="none" d="M911 290 L911 318 L1208 318 L1208 357" clip-path="url(#clipPath2)"/>
      <path d="M1208 365 L1213 353 L1208 356 L1203 353 Z" stroke="none" clip-path="url(#clipPath2)"/>
      <text x="1220.6357" xml:space="preserve" font-size="12px" y="355.4688" clip-path="url(#clipPath2)" stroke="none">round</text>
      <path fill="none" d="M1208 426 L1208 471.5" clip-path="url(#clipPath2)"/>
      <path d="M1208 479.5 L1213 467.5 L1208 470.5 L1203 467.5 Z" stroke="none" clip-path="url(#clipPath2)"/>
      <text x="1226.6504" xml:space="preserve" font-size="12px" y="467.2852" clip-path="url(#clipPath2)" stroke="none">unitCompetition</text>
    </g>
  </g>
</svg>
