<?xml version="1.0" encoding="UTF-8"?><svg xmlns="http://www.w3.org/2000/svg" xmlns:xlink="http://www.w3.org/1999/xlink" fill-opacity="1" color-rendering="auto" color-interpolation="auto" text-rendering="auto" stroke="black" stroke-linecap="square" width="1082" stroke-miterlimit="10" shape-rendering="auto" stroke-opacity="1" fill="black" stroke-dasharray="none" font-weight="normal" stroke-width="1" height="638" font-family="'Dialog'" font-style="normal" stroke-linejoin="miter" font-size="12px" stroke-dashoffset="0" image-rendering="auto">
  <!--Generated by ySVG 2.5-->
  <defs id="genericDefs"/>
  <g>
    <defs id="defs1">
      <clipPath clipPathUnits="userSpaceOnUse" id="clipPath1">
        <path d="M0 0 L1082 0 L1082 638 L0 638 L0 0 Z"/>
      </clipPath>
      <clipPath clipPathUnits="userSpaceOnUse" id="clipPath2">
        <path d="M159 -118 L1241 -118 L1241 520 L159 520 L159 -118 Z"/>
      </clipPath>
    </defs>
    <g fill="white" text-rendering="geometricPrecision" shape-rendering="geometricPrecision" transform="translate(-159,118)" stroke="white">
      <rect x="159" width="1082" height="638" y="-118" clip-path="url(#clipPath2)" stroke="none"/>
    </g>
    <g fill="rgb(255,255,153)" text-rendering="geometricPrecision" shape-rendering="geometricPrecision" transform="matrix(1,0,0,1,-159,118)" stroke="rgb(255,255,153)">
      <ellipse rx="90" ry="30.5" clip-path="url(#clipPath2)" cx="766" cy="144" stroke="none"/>
    </g>
    <g font-size="13px" stroke-linecap="butt" transform="matrix(1,0,0,1,-159,118)" text-rendering="geometricPrecision" font-family="sans-serif" shape-rendering="geometricPrecision" stroke-miterlimit="1.45">
      <text x="731.1196" xml:space="preserve" y="141.2578" clip-path="url(#clipPath2)" stroke="none">Heptathlon</text>
      <text x="716.7485" xml:space="preserve" y="156.5684" clip-path="url(#clipPath2)" stroke="none">&lt;Competition&gt;</text>
      <ellipse rx="90" fill="none" ry="30.5" clip-path="url(#clipPath2)" cx="766" cy="144"/>
    </g>
    <g fill="rgb(255,255,153)" text-rendering="geometricPrecision" shape-rendering="geometricPrecision" transform="matrix(1,0,0,1,-159,118)" stroke="rgb(255,255,153)">
      <ellipse rx="90" ry="30.5" clip-path="url(#clipPath2)" cx="390" cy="264.5" stroke="none"/>
    </g>
    <g font-size="13px" stroke-linecap="butt" transform="matrix(1,0,0,1,-159,118)" text-rendering="geometricPrecision" font-family="sans-serif" shape-rendering="geometricPrecision" stroke-miterlimit="1.45">
      <text x="345.1697" xml:space="preserve" y="261.7578" clip-path="url(#clipPath2)" stroke="none">100m Hurdles</text>
      <text x="340.7485" xml:space="preserve" y="277.0684" clip-path="url(#clipPath2)" stroke="none">&lt;Competition&gt;</text>
      <ellipse rx="90" fill="none" ry="30.5" clip-path="url(#clipPath2)" cx="390" cy="264.5"/>
    </g>
    <g fill="rgb(255,255,153)" text-rendering="geometricPrecision" shape-rendering="geometricPrecision" transform="matrix(1,0,0,1,-159,118)" stroke="rgb(255,255,153)">
      <ellipse rx="90" ry="30.5" clip-path="url(#clipPath2)" cx="766" cy="264.5" stroke="none"/>
    </g>
    <g font-size="13px" stroke-linecap="butt" transform="matrix(1,0,0,1,-159,118)" text-rendering="geometricPrecision" font-family="sans-serif" shape-rendering="geometricPrecision" stroke-miterlimit="1.45">
      <text x="732.9858" xml:space="preserve" y="261.7578" clip-path="url(#clipPath2)" stroke="none">High Jump</text>
      <text x="716.7485" xml:space="preserve" y="277.0684" clip-path="url(#clipPath2)" stroke="none">&lt;Competition&gt;</text>
      <ellipse rx="90" fill="none" ry="30.5" clip-path="url(#clipPath2)" cx="766" cy="264.5"/>
    </g>
    <g fill="rgb(255,255,153)" text-rendering="geometricPrecision" shape-rendering="geometricPrecision" transform="matrix(1,0,0,1,-159,118)" stroke="rgb(255,255,153)">
      <ellipse rx="90" ry="30.5" clip-path="url(#clipPath2)" cx="1093.9174" cy="264.5" stroke="none"/>
    </g>
    <g font-size="13px" stroke-linecap="butt" transform="matrix(1,0,0,1,-159,118)" text-rendering="geometricPrecision" font-family="sans-serif" shape-rendering="geometricPrecision" stroke-miterlimit="1.45">
      <text x="1075.5187" xml:space="preserve" y="261.7578" clip-path="url(#clipPath2)" stroke="none">800m</text>
      <text x="1044.6659" xml:space="preserve" y="277.0684" clip-path="url(#clipPath2)" stroke="none">&lt;Competition&gt;</text>
      <ellipse rx="90" fill="none" ry="30.5" clip-path="url(#clipPath2)" cx="1093.9174" cy="264.5"/>
    </g>
    <g fill="rgb(255,204,153)" text-rendering="geometricPrecision" shape-rendering="geometricPrecision" transform="matrix(1,0,0,1,-159,118)" stroke="rgb(255,204,153)">
      <ellipse rx="63" ry="25" clip-path="url(#clipPath2)" cx="253.3636" cy="379.5" stroke="none"/>
    </g>
    <g font-size="13px" stroke-linecap="butt" transform="matrix(1,0,0,1,-159,118)" text-rendering="geometricPrecision" font-family="sans-serif" shape-rendering="geometricPrecision" stroke-miterlimit="1.45">
      <text x="201.7286" xml:space="preserve" y="376.7578" clip-path="url(#clipPath2)" stroke="none">100mH - Heat 1</text>
      <text x="222.7679" xml:space="preserve" y="392.0684" clip-path="url(#clipPath2)" stroke="none">&lt;Round&gt;</text>
      <ellipse rx="63" fill="none" ry="25" clip-path="url(#clipPath2)" cx="253.3636" cy="379.5"/>
    </g>
    <g fill="rgb(255,204,153)" text-rendering="geometricPrecision" shape-rendering="geometricPrecision" transform="matrix(1,0,0,1,-159,118)" stroke="rgb(255,204,153)">
      <ellipse rx="63" ry="25" clip-path="url(#clipPath2)" cx="390" cy="379.5" stroke="none"/>
    </g>
    <g font-size="13px" stroke-linecap="butt" transform="matrix(1,0,0,1,-159,118)" text-rendering="geometricPrecision" font-family="sans-serif" shape-rendering="geometricPrecision" stroke-miterlimit="1.45">
      <text x="338.365" xml:space="preserve" y="376.7578" clip-path="url(#clipPath2)" stroke="none">100mH - Heat 2</text>
      <text x="359.4043" xml:space="preserve" y="392.0684" clip-path="url(#clipPath2)" stroke="none">&lt;Round&gt;</text>
      <ellipse rx="63" fill="none" ry="25" clip-path="url(#clipPath2)" cx="390" cy="379.5"/>
    </g>
    <g fill="rgb(255,204,153)" text-rendering="geometricPrecision" shape-rendering="geometricPrecision" transform="matrix(1,0,0,1,-159,118)" stroke="rgb(255,204,153)">
      <ellipse rx="63" ry="25" clip-path="url(#clipPath2)" cx="526.6364" cy="379.5" stroke="none"/>
    </g>
    <g font-size="13px" stroke-linecap="butt" transform="matrix(1,0,0,1,-159,118)" text-rendering="geometricPrecision" font-family="sans-serif" shape-rendering="geometricPrecision" stroke-miterlimit="1.45">
      <text x="475.0013" xml:space="preserve" y="376.7578" clip-path="url(#clipPath2)" stroke="none">100mH - Heat 3</text>
      <text x="496.0406" xml:space="preserve" y="392.0684" clip-path="url(#clipPath2)" stroke="none">&lt;Round&gt;</text>
      <ellipse rx="63" fill="none" ry="25" clip-path="url(#clipPath2)" cx="526.6364" cy="379.5"/>
    </g>
    <g fill="rgb(255,204,153)" text-rendering="geometricPrecision" shape-rendering="geometricPrecision" transform="matrix(1,0,0,1,-159,118)" stroke="rgb(255,204,153)">
      <ellipse rx="63" ry="25" clip-path="url(#clipPath2)" cx="690" cy="379.5" stroke="none"/>
    </g>
    <g font-size="13px" stroke-linecap="butt" transform="matrix(1,0,0,1,-159,118)" text-rendering="geometricPrecision" font-family="sans-serif" shape-rendering="geometricPrecision" stroke-miterlimit="1.45">
      <text x="649.3115" xml:space="preserve" y="376.7578" clip-path="url(#clipPath2)" stroke="none">HJ - Group A</text>
      <text x="659.4043" xml:space="preserve" y="392.0684" clip-path="url(#clipPath2)" stroke="none">&lt;Round&gt;</text>
      <ellipse rx="63" fill="none" ry="25" clip-path="url(#clipPath2)" cx="690" cy="379.5"/>
    </g>
    <g fill="rgb(255,204,153)" text-rendering="geometricPrecision" shape-rendering="geometricPrecision" transform="matrix(1,0,0,1,-159,118)" stroke="rgb(255,204,153)">
      <ellipse rx="63" ry="25" clip-path="url(#clipPath2)" cx="826" cy="379.5" stroke="none"/>
    </g>
    <g font-size="13px" stroke-linecap="butt" transform="matrix(1,0,0,1,-159,118)" text-rendering="geometricPrecision" font-family="sans-serif" shape-rendering="geometricPrecision" stroke-miterlimit="1.45">
      <text x="786.0574" xml:space="preserve" y="376.7578" clip-path="url(#clipPath2)" stroke="none">HJ - Group B</text>
      <text x="795.4043" xml:space="preserve" y="392.0684" clip-path="url(#clipPath2)" stroke="none">&lt;Round&gt;</text>
      <ellipse rx="63" fill="none" ry="25" clip-path="url(#clipPath2)" cx="826" cy="379.5"/>
    </g>
    <g fill="rgb(255,204,153)" text-rendering="geometricPrecision" shape-rendering="geometricPrecision" transform="matrix(1,0,0,1,-159,118)" stroke="rgb(255,204,153)">
      <ellipse rx="63" ry="25" clip-path="url(#clipPath2)" cx="1020" cy="379.5" stroke="none"/>
    </g>
    <g font-size="13px" stroke-linecap="butt" transform="matrix(1,0,0,1,-159,118)" text-rendering="geometricPrecision" font-family="sans-serif" shape-rendering="geometricPrecision" stroke-miterlimit="1.45">
      <text x="973.1416" xml:space="preserve" y="376.7578" clip-path="url(#clipPath2)" stroke="none">800m - Heat 1</text>
      <text x="989.4043" xml:space="preserve" y="392.0684" clip-path="url(#clipPath2)" stroke="none">&lt;Round&gt;</text>
      <ellipse rx="63" fill="none" ry="25" clip-path="url(#clipPath2)" cx="1020" cy="379.5"/>
    </g>
    <g fill="rgb(255,204,153)" text-rendering="geometricPrecision" shape-rendering="geometricPrecision" transform="matrix(1,0,0,1,-159,118)" stroke="rgb(255,204,153)">
      <ellipse rx="63" ry="25" clip-path="url(#clipPath2)" cx="1153.9174" cy="379.5" stroke="none"/>
    </g>
    <g font-size="13px" stroke-linecap="butt" transform="matrix(1,0,0,1,-159,118)" text-rendering="geometricPrecision" font-family="sans-serif" shape-rendering="geometricPrecision" stroke-miterlimit="1.45">
      <text x="1107.059" xml:space="preserve" y="376.7578" clip-path="url(#clipPath2)" stroke="none">800m - Heat 2</text>
      <text x="1123.3217" xml:space="preserve" y="392.0684" clip-path="url(#clipPath2)" stroke="none">&lt;Round&gt;</text>
      <ellipse rx="63" fill="none" ry="25" clip-path="url(#clipPath2)" cx="1153.9174" cy="379.5"/>
    </g>
    <g fill="rgb(255,255,153)" text-rendering="geometricPrecision" shape-rendering="geometricPrecision" transform="matrix(1,0,0,1,-159,118)" stroke="rgb(255,255,153)">
      <ellipse rx="90" ry="30.5" clip-path="url(#clipPath2)" cx="766" cy="-72" stroke="none"/>
    </g>
    <g font-size="13px" stroke-linecap="butt" transform="matrix(1,0,0,1,-159,118)" text-rendering="geometricPrecision" font-family="sans-serif" shape-rendering="geometricPrecision" stroke-miterlimit="1.45">
      <text x="685.5815" xml:space="preserve" y="-74.7422" clip-path="url(#clipPath2)" stroke="none">European Championships</text>
      <text x="698.1531" xml:space="preserve" y="-59.4316" clip-path="url(#clipPath2)" stroke="none">&lt;CompetitionSeries&gt;</text>
      <ellipse rx="90" fill="none" ry="30.5" clip-path="url(#clipPath2)" cx="766" cy="-72"/>
    </g>
    <g fill="rgb(255,255,153)" text-rendering="geometricPrecision" shape-rendering="geometricPrecision" transform="matrix(1,0,0,1,-159,118)" stroke="rgb(255,255,153)">
      <ellipse rx="90" ry="30.5" clip-path="url(#clipPath2)" cx="766" cy="23.5" stroke="none"/>
    </g>
    <g font-size="13px" stroke-linecap="butt" transform="matrix(1,0,0,1,-159,118)" text-rendering="geometricPrecision" font-family="sans-serif" shape-rendering="geometricPrecision" stroke-miterlimit="1.45">
      <text x="711.1753" xml:space="preserve" y="20.7578" clip-path="url(#clipPath2)" stroke="none">Amsterdam 2016</text>
      <text x="716.7485" xml:space="preserve" y="36.0684" clip-path="url(#clipPath2)" stroke="none">&lt;Competition&gt;</text>
      <ellipse rx="90" fill="none" ry="30.5" clip-path="url(#clipPath2)" cx="766" cy="23.5"/>
    </g>
    <g fill="rgb(255,204,153)" text-rendering="geometricPrecision" shape-rendering="geometricPrecision" transform="matrix(1,0,0,1,-159,118)" stroke="rgb(255,204,153)">
      <ellipse rx="63" ry="25" clip-path="url(#clipPath2)" cx="253.3636" cy="480" stroke="none"/>
    </g>
    <g font-size="11px" stroke-linecap="butt" transform="matrix(1,0,0,1,-159,118)" text-rendering="geometricPrecision" font-family="sans-serif" shape-rendering="geometricPrecision" stroke-miterlimit="1.45">
      <text x="209.6725" xml:space="preserve" y="477.6797" clip-path="url(#clipPath2)" stroke="none">100mH - Heat 1</text>
      <text x="184.09" xml:space="preserve" y="490.6348" clip-path="url(#clipPath2)" stroke="none">&lt;UnitTimedCompetition&gt;</text>
      <ellipse rx="63" fill="none" ry="25" clip-path="url(#clipPath2)" cx="253.3636" cy="480"/>
    </g>
    <g fill="rgb(255,204,153)" text-rendering="geometricPrecision" shape-rendering="geometricPrecision" transform="matrix(1,0,0,1,-159,118)" stroke="rgb(255,204,153)">
      <ellipse rx="63" ry="25" clip-path="url(#clipPath2)" cx="390" cy="480" stroke="none"/>
    </g>
    <g font-size="11px" stroke-linecap="butt" transform="matrix(1,0,0,1,-159,118)" text-rendering="geometricPrecision" font-family="sans-serif" shape-rendering="geometricPrecision" stroke-miterlimit="1.45">
      <text x="346.3088" xml:space="preserve" y="477.6797" clip-path="url(#clipPath2)" stroke="none">100mH - Heat 2</text>
      <text x="320.7263" xml:space="preserve" y="490.6348" clip-path="url(#clipPath2)" stroke="none">&lt;UnitTimedCompetition&gt;</text>
      <ellipse rx="63" fill="none" ry="25" clip-path="url(#clipPath2)" cx="390" cy="480"/>
    </g>
    <g fill="rgb(255,204,153)" text-rendering="geometricPrecision" shape-rendering="geometricPrecision" transform="matrix(1,0,0,1,-159,118)" stroke="rgb(255,204,153)">
      <ellipse rx="63" ry="25" clip-path="url(#clipPath2)" cx="526.6364" cy="480" stroke="none"/>
    </g>
    <g font-size="11px" stroke-linecap="butt" transform="matrix(1,0,0,1,-159,118)" text-rendering="geometricPrecision" font-family="sans-serif" shape-rendering="geometricPrecision" stroke-miterlimit="1.45">
      <text x="482.9452" xml:space="preserve" y="477.6797" clip-path="url(#clipPath2)" stroke="none">100mH - Heat 3</text>
      <text x="457.3627" xml:space="preserve" y="490.6348" clip-path="url(#clipPath2)" stroke="none">&lt;UnitTimedCompetition&gt;</text>
      <ellipse rx="63" fill="none" ry="25" clip-path="url(#clipPath2)" cx="526.6364" cy="480"/>
    </g>
    <g fill="rgb(255,204,153)" text-rendering="geometricPrecision" shape-rendering="geometricPrecision" transform="matrix(1,0,0,1,-159,118)" stroke="rgb(255,204,153)">
      <ellipse rx="63" ry="25" clip-path="url(#clipPath2)" cx="690" cy="480" stroke="none"/>
    </g>
    <g font-size="11px" stroke-linecap="butt" transform="matrix(1,0,0,1,-159,118)" text-rendering="geometricPrecision" font-family="sans-serif" shape-rendering="geometricPrecision" stroke-miterlimit="1.45">
      <text x="655.5713" xml:space="preserve" y="477.6797" clip-path="url(#clipPath2)" stroke="none">HJ - Group A</text>
      <text x="624.8003" xml:space="preserve" y="490.6348" clip-path="url(#clipPath2)" stroke="none">&lt;UnitFieldCompetition&gt;</text>
      <ellipse rx="63" fill="none" ry="25" clip-path="url(#clipPath2)" cx="690" cy="480"/>
    </g>
    <g fill="rgb(255,204,153)" text-rendering="geometricPrecision" shape-rendering="geometricPrecision" transform="matrix(1,0,0,1,-159,118)" stroke="rgb(255,204,153)">
      <ellipse rx="63" ry="25" clip-path="url(#clipPath2)" cx="826" cy="480" stroke="none"/>
    </g>
    <g font-size="11px" stroke-linecap="butt" transform="matrix(1,0,0,1,-159,118)" text-rendering="geometricPrecision" font-family="sans-serif" shape-rendering="geometricPrecision" stroke-miterlimit="1.45">
      <text x="792.2024" xml:space="preserve" y="477.6797" clip-path="url(#clipPath2)" stroke="none">HJ - Group B</text>
      <text x="760.8003" xml:space="preserve" y="490.6348" clip-path="url(#clipPath2)" stroke="none">&lt;UnitFieldCompetition&gt;</text>
      <ellipse rx="63" fill="none" ry="25" clip-path="url(#clipPath2)" cx="826" cy="480"/>
    </g>
    <g fill="rgb(255,204,153)" text-rendering="geometricPrecision" shape-rendering="geometricPrecision" transform="matrix(1,0,0,1,-159,118)" stroke="rgb(255,204,153)">
      <ellipse rx="63" ry="25" clip-path="url(#clipPath2)" cx="1020" cy="480" stroke="none"/>
    </g>
    <g font-size="11px" stroke-linecap="butt" transform="matrix(1,0,0,1,-159,118)" text-rendering="geometricPrecision" font-family="sans-serif" shape-rendering="geometricPrecision" stroke-miterlimit="1.45">
      <text x="980.3506" xml:space="preserve" y="477.6797" clip-path="url(#clipPath2)" stroke="none">800m - Heat 1</text>
      <text x="950.7263" xml:space="preserve" y="490.6348" clip-path="url(#clipPath2)" stroke="none">&lt;UnitTimedCompetition&gt;</text>
      <ellipse rx="63" fill="none" ry="25" clip-path="url(#clipPath2)" cx="1020" cy="480"/>
    </g>
    <g fill="rgb(255,204,153)" text-rendering="geometricPrecision" shape-rendering="geometricPrecision" transform="matrix(1,0,0,1,-159,118)" stroke="rgb(255,204,153)">
      <ellipse rx="63" ry="25" clip-path="url(#clipPath2)" cx="1153.9174" cy="480" stroke="none"/>
    </g>
    <g font-size="11px" stroke-linecap="butt" transform="matrix(1,0,0,1,-159,118)" text-rendering="geometricPrecision" font-family="sans-serif" shape-rendering="geometricPrecision" stroke-miterlimit="1.45">
      <text x="1114.2679" xml:space="preserve" y="477.6797" clip-path="url(#clipPath2)" stroke="none">800m - Heat 2</text>
      <text x="1084.6437" xml:space="preserve" y="490.6348" clip-path="url(#clipPath2)" stroke="none">&lt;UnitTimedCompetition&gt;</text>
      <ellipse rx="63" fill="none" ry="25" clip-path="url(#clipPath2)" cx="1153.9174" cy="480"/>
      <path fill="none" d="M700.609 164.9564 L463.0093 241.1021" clip-path="url(#clipPath2)"/>
      <path d="M455.391 243.5436 L468.3445 244.6428 L463.9616 240.7969 L465.2925 235.1199 Z" stroke="none" clip-path="url(#clipPath2)"/>
      <text x="530.5823" xml:space="preserve" font-size="12px" y="184.0735" clip-path="url(#clipPath2)" stroke="none">subEvent</text>
      <path fill="none" d="M766 174.5 L766 226" clip-path="url(#clipPath2)"/>
      <path d="M766 234 L771 222 L766 225 L761 222 Z" stroke="none" clip-path="url(#clipPath2)"/>
      <text x="709.7734" xml:space="preserve" font-size="12px" y="208.7852" clip-path="url(#clipPath2)" stroke="none">subEvent</text>
      <path fill="none" d="M827.0146 166.4211 L1025.3937 239.3196" clip-path="url(#clipPath2)"/>
      <path d="M1032.9027 242.0789 L1023.3637 233.2467 L1024.4551 238.9747 L1019.9146 242.6331 Z" stroke="none" clip-path="url(#clipPath2)"/>
      <text x="967.2584" xml:space="preserve" font-size="12px" y="200.1678" clip-path="url(#clipPath2)" stroke="none">subEvent</text>
      <path fill="none" d="M356.3843 292.7926 L286.3513 351.7359" clip-path="url(#clipPath2)"/>
      <path d="M280.2307 356.8874 L292.6313 352.9856 L287.1164 351.092 L286.192 345.3348 Z" stroke="none" clip-path="url(#clipPath2)"/>
      <text x="281.7322" xml:space="preserve" font-size="12px" y="306.3327" clip-path="url(#clipPath2)" stroke="none">round</text>
      <path fill="none" d="M390 295 L390 346.5" clip-path="url(#clipPath2)"/>
      <path d="M390 354.5 L395 342.5 L390 345.5 L385 342.5 Z" stroke="none" clip-path="url(#clipPath2)"/>
      <text x="402.6357" xml:space="preserve" font-size="12px" y="329.2852" clip-path="url(#clipPath2)" stroke="none">round</text>
      <path fill="none" d="M423.6157 292.7926 L493.6487 351.7359" clip-path="url(#clipPath2)"/>
      <path d="M499.7693 356.8874 L493.808 345.3348 L492.8836 351.092 L487.3687 352.9856 Z" stroke="none" clip-path="url(#clipPath2)"/>
      <text x="463.5393" xml:space="preserve" font-size="12px" y="306.3327" clip-path="url(#clipPath2)" stroke="none">round</text>
      <path fill="none" d="M746.3307 294.2627 L710.3921 348.6435" clip-path="url(#clipPath2)"/>
      <path d="M705.9813 355.3177 L716.7689 348.0631 L710.9434 347.8093 L708.4261 342.5497 Z" stroke="none" clip-path="url(#clipPath2)"/>
      <text x="673.9597" xml:space="preserve" font-size="12px" y="327.6197" clip-path="url(#clipPath2)" stroke="none">round</text>
      <path fill="none" d="M781.67 294.5341 L809.5269 347.9265" clip-path="url(#clipPath2)"/>
      <path d="M813.2274 355.0192 L812.1095 342.0673 L809.0643 347.0399 L803.2437 346.693 Z" stroke="none" clip-path="url(#clipPath2)"/>
      <text x="813.9083" xml:space="preserve" font-size="12px" y="329.2852" clip-path="url(#clipPath2)" stroke="none">round</text>
      <path fill="none" d="M1074.7623 294.3012 L1039.8961 348.5458" clip-path="url(#clipPath2)"/>
      <path d="M1035.5704 355.2755 L1046.265 347.8845 L1040.4368 347.7046 L1037.8529 342.4774 Z" stroke="none" clip-path="url(#clipPath2)"/>
      <text x="1003.0293" xml:space="preserve" font-size="12px" y="327.9392" clip-path="url(#clipPath2)" stroke="none">round</text>
      <path fill="none" d="M1109.5874 294.5341 L1137.4442 347.9265" clip-path="url(#clipPath2)"/>
      <path d="M1141.1448 355.0192 L1140.0269 342.0673 L1136.9817 347.0399 L1131.161 346.693 Z" stroke="none" clip-path="url(#clipPath2)"/>
      <text x="1141.8256" xml:space="preserve" font-size="12px" y="329.2852" clip-path="url(#clipPath2)" stroke="none">round</text>
      <path fill="none" d="M766 -7 L766 -33.5" clip-path="url(#clipPath2)"/>
      <path d="M766 -41.5 L761 -29.5 L766 -32.5 L771 -29.5 Z" stroke="none" clip-path="url(#clipPath2)"/>
      <text x="780.3721" xml:space="preserve" font-size="12px" y="-25.7148" clip-path="url(#clipPath2)" stroke="none">superEvent</text>
      <path fill="none" d="M766 54 L766 105.5" clip-path="url(#clipPath2)"/>
      <path d="M766 113.5 L771 101.5 L766 104.5 L761 101.5 Z" stroke="none" clip-path="url(#clipPath2)"/>
      <text x="709.7734" xml:space="preserve" font-size="12px" y="88.2852" clip-path="url(#clipPath2)" stroke="none">subEvent</text>
      <path fill="none" d="M253.3636 404.5 L253.3636 447" clip-path="url(#clipPath2)"/>
      <path d="M253.3636 455 L258.3636 443 L253.3636 446 L248.3636 443 Z" stroke="none" clip-path="url(#clipPath2)"/>
      <text x="176.014" xml:space="preserve" font-size="12px" y="434.2852" clip-path="url(#clipPath2)" stroke="none">unitCompetition</text>
      <path fill="none" d="M390 404.5 L390 447" clip-path="url(#clipPath2)"/>
      <path d="M390 455 L395 443 L390 446 L385 443 Z" stroke="none" clip-path="url(#clipPath2)"/>
      <text x="312.6504" xml:space="preserve" font-size="12px" y="434.2852" clip-path="url(#clipPath2)" stroke="none">unitCompetition</text>
      <path fill="none" d="M526.6364 404.5 L526.6364 447" clip-path="url(#clipPath2)"/>
      <path d="M526.6364 455 L531.6364 443 L526.6364 446 L521.6364 443 Z" stroke="none" clip-path="url(#clipPath2)"/>
      <text x="449.2867" xml:space="preserve" font-size="12px" y="434.2852" clip-path="url(#clipPath2)" stroke="none">unitCompetition</text>
      <path fill="none" d="M690 404.5 L690 447" clip-path="url(#clipPath2)"/>
      <path d="M690 455 L695 443 L690 446 L685 443 Z" stroke="none" clip-path="url(#clipPath2)"/>
      <text x="612.6504" xml:space="preserve" font-size="12px" y="434.2852" clip-path="url(#clipPath2)" stroke="none">unitCompetition</text>
      <path fill="none" d="M826 404.5 L826 447" clip-path="url(#clipPath2)"/>
      <path d="M826 455 L831 443 L826 446 L821 443 Z" stroke="none" clip-path="url(#clipPath2)"/>
      <text x="748.6504" xml:space="preserve" font-size="12px" y="434.2852" clip-path="url(#clipPath2)" stroke="none">unitCompetition</text>
      <path fill="none" d="M1020 404.5 L1020 447" clip-path="url(#clipPath2)"/>
      <path d="M1020 455 L1025 443 L1020 446 L1015 443 Z" stroke="none" clip-path="url(#clipPath2)"/>
      <text x="942.6504" xml:space="preserve" font-size="12px" y="434.2852" clip-path="url(#clipPath2)" stroke="none">unitCompetition</text>
      <path fill="none" d="M1153.9174 404.5 L1153.9174 447" clip-path="url(#clipPath2)"/>
      <path d="M1153.9174 455 L1158.9174 443 L1153.9174 446 L1148.9174 443 Z" stroke="none" clip-path="url(#clipPath2)"/>
      <text x="1076.5677" xml:space="preserve" font-size="12px" y="434.2852" clip-path="url(#clipPath2)" stroke="none">unitCompetition</text>
    </g>
  </g>
</svg>
