<?xml version="1.0" encoding="UTF-8" standalone="no"?>
<!-- Created with Inkscape (http://www.inkscape.org/) -->

<svg
   xmlns:dc="http://purl.org/dc/elements/1.1/"
   xmlns:cc="http://creativecommons.org/ns#"
   xmlns:rdf="http://www.w3.org/1999/02/22-rdf-syntax-ns#"
   xmlns:svg="http://www.w3.org/2000/svg"
   xmlns="http://www.w3.org/2000/svg"
   xmlns:sodipodi="http://sodipodi.sourceforge.net/DTD/sodipodi-0.dtd"
   xmlns:inkscape="http://www.inkscape.org/namespaces/inkscape"
   width="95.34375"
   height="125.71875"
   id="svg2"
   version="1.1"
   inkscape:version="0.48.5 r10040"
   sodipodi:docname="clipboard.svg">
  <defs
     id="defs4" />
  <sodipodi:namedview
     id="base"
     pagecolor="#ffffff"
     bordercolor="#666666"
     borderopacity="1.0"
     inkscape:pageopacity="0.0"
     inkscape:pageshadow="2"
     inkscape:zoom="1.4"
     inkscape:cx="-24.964944"
     inkscape:cy="30.617208"
     inkscape:document-units="px"
     inkscape:current-layer="text2985"
     showgrid="false"
     fit-margin-top="0"
     fit-margin-left="0"
     fit-margin-right="0"
     fit-margin-bottom="0"
     inkscape:window-width="836"
     inkscape:window-height="828"
     inkscape:window-x="2209"
     inkscape:window-y="0"
     inkscape:window-maximized="0" />
  <metadata
     id="metadata7">
    <rdf:RDF>
      <cc:Work
         rdf:about="">
        <dc:format>image/svg+xml</dc:format>
        <dc:type
           rdf:resource="http://purl.org/dc/dcmitype/StillImage" />
        <dc:title />
      </cc:Work>
    </rdf:RDF>
  </metadata>
  <g
     inkscape:label="Layer 1"
     inkscape:groupmode="layer"
     id="layer1"
     transform="translate(-245.49777,-244.73941)">
    <g
       style="font-size:30.41063881px;font-style:normal;font-variant:normal;font-weight:normal;font-stretch:normal;line-height:125%;letter-spacing:0px;word-spacing:0px;fill:#000000;fill-opacity:1;stroke:none;font-family:Monoton;-inkscape-font-specification:Monoton"
       id="text2985">
      <path
         d="m 299.79821,262.80249 c -1.85321,-1.9956 -4.134,-2.99345 -6.8424,-2.99355 -2.63722,10e-5 -4.91802,0.99795 -6.84239,2.99355 -1.85319,1.99579 -2.77977,4.41913 -2.77972,7.27004 -5e-5,1.56814 0.32069,3.06491 0.96221,4.49032 -2.49467,0.85538 -4.63291,2.06706 -6.41474,3.63503 -0.35642,0.28517 -0.71279,0.64155 -1.06913,1.06912 l -16.67833,0 -3.20737,0 0,3.20737 0,69.70689 0,3.20737 3.20737,0 66.07186,0 3.20737,0 0,-3.20737 0,-69.70689 0,-3.20737 -3.20737,0 -16.89216,0 c -0.35644,-0.3563 -0.74846,-0.71267 -1.17604,-1.06912 -1.78194,-1.56797 -3.92018,-2.77965 -6.41474,-3.63503 0.64141,-1.42541 0.96215,-2.92218 0.96221,-4.49032 -6e-5,-2.85091 -0.96227,-5.27425 -2.88663,-7.27004 m -6.73548,2.5659 c 1.21162,9e-5 2.2451,0.46337 3.10046,1.38986 0.85524,0.85539 1.28289,1.92451 1.28294,3.20737 -0.21388,1.71068 -0.9979,2.92236 -2.35207,3.63502 -1.35428,0.64156 -2.74414,0.64156 -4.16958,0 -1.35428,-0.71266 -2.1383,-1.92434 -2.35207,-3.63502 -0.1426,-1.21159 0.24941,-2.28071 1.17603,-3.20737 0.92652,-0.92649 2.03129,-1.38977 3.31429,-1.38986 m 0.10691,12.29492 c 4.34771,8e-5 7.84018,1.3543 10.47741,4.06268 1.28289,1.06919 2.03127,2.20959 2.24516,3.42119 l 0.10692,0 c -7e-5,0.0713 -7e-5,0.10698 0,0.10691 l -25.97972,0 c -4e-5,7e-5 -4e-5,-0.0356 0,-0.10691 l -0.10691,0 c 0.28506,-1.2116 1.03345,-2.352 2.24516,-3.42119 2.85095,-2.70838 6.52161,-4.0626 11.01198,-4.06268 m -27.47649,8.01843 9.51521,0 c -0.0713,0.28517 -0.10695,0.60591 -0.10692,0.96222 -3e-5,0.64154 0.0712,1.24737 0.21383,1.81751 l 0.32074,1.81751 1.71059,0 31.21842,0 1.7106,0 0.32074,-1.81751 c 0.14248,-0.57014 0.21375,-1.17597 0.21382,-1.81751 -7e-5,-0.35631 -0.0357,-0.67705 -0.10691,-0.96222 l 9.72903,0 0,60.08477 -42.2304,0 c -9.97852,-14.89644 -14.1481,-34.92467 -12.50875,-60.08477"
         style="font-size:109.47829437px;font-weight:bold;font-family:Heydings Icons;-inkscape-font-specification:Heydings Icons Bold"
         id="path2985" />
    </g>
  </g>
</svg>
