<?xml version="1.0" encoding="UTF-8"?><svg xmlns="http://www.w3.org/2000/svg" xmlns:xlink="http://www.w3.org/1999/xlink" fill-opacity="1" color-rendering="auto" color-interpolation="auto" text-rendering="auto" stroke="black" stroke-linecap="square" width="819" stroke-miterlimit="10" shape-rendering="auto" stroke-opacity="1" fill="black" stroke-dasharray="none" font-weight="normal" stroke-width="1" height="902" font-family="'Dialog'" font-style="normal" stroke-linejoin="miter" font-size="12px" stroke-dashoffset="0" image-rendering="auto">
  <!--Generated by ySVG 2.5-->
  <defs id="genericDefs"/>
  <g>
    <defs id="defs1">
      <clipPath clipPathUnits="userSpaceOnUse" id="clipPath1">
        <path d="M0 0 L819 0 L819 902 L0 902 L0 0 Z"/>
      </clipPath>
      <clipPath clipPathUnits="userSpaceOnUse" id="clipPath2">
        <path d="M-160 65 L659 65 L659 967 L-160 967 L-160 65 Z"/>
      </clipPath>
      <clipPath clipPathUnits="userSpaceOnUse" id="clipPath3">
        <path d="M119 89 L119 193 L285 193 L285 89 Z"/>
      </clipPath>
      <clipPath clipPathUnits="userSpaceOnUse" id="clipPath4">
        <path d="M-144 80 L-144 203 L10 203 L10 80 Z"/>
      </clipPath>
      <clipPath clipPathUnits="userSpaceOnUse" id="clipPath5">
        <path d="M-144 345 L-144 426 L10 426 L10 345 Z"/>
      </clipPath>
      <clipPath clipPathUnits="userSpaceOnUse" id="clipPath6">
        <path d="M390 92 L390 191 L535 191 L535 92 Z"/>
      </clipPath>
      <clipPath clipPathUnits="userSpaceOnUse" id="clipPath7">
        <path d="M-144 221 L-144 302 L10 302 L10 221 Z"/>
      </clipPath>
      <clipPath clipPathUnits="userSpaceOnUse" id="clipPath8">
        <path d="M390 265 L390 322 L535 322 L535 265 Z"/>
      </clipPath>
      <clipPath clipPathUnits="userSpaceOnUse" id="clipPath9">
        <path d="M386 383 L386 506 L540 506 L540 383 Z"/>
      </clipPath>
      <clipPath clipPathUnits="userSpaceOnUse" id="clipPath10">
        <path d="M386 586 L386 612 L540 612 L540 586 Z"/>
      </clipPath>
      <clipPath clipPathUnits="userSpaceOnUse" id="clipPath11">
        <path d="M266 632 L266 765 L420 765 L420 632 Z"/>
      </clipPath>
      <clipPath clipPathUnits="userSpaceOnUse" id="clipPath12">
        <path d="M477 632 L477 755 L631 755 L631 632 Z"/>
      </clipPath>
      <clipPath clipPathUnits="userSpaceOnUse" id="clipPath13">
        <path d="M266 830 L266 856 L420 856 L420 830 Z"/>
      </clipPath>
      <clipPath clipPathUnits="userSpaceOnUse" id="clipPath14">
        <path d="M-136 895 L-136 951 L47 951 L47 895 Z"/>
      </clipPath>
      <clipPath clipPathUnits="userSpaceOnUse" id="clipPath15">
        <path d="M62 906 L62 951 L236 951 L236 906 Z"/>
      </clipPath>
      <clipPath clipPathUnits="userSpaceOnUse" id="clipPath16">
        <path d="M267 895 L267 951 L389 951 L389 895 Z"/>
      </clipPath>
      <clipPath clipPathUnits="userSpaceOnUse" id="clipPath17">
        <path d="M414 906 L414 951 L511 951 L511 906 Z"/>
      </clipPath>
      <clipPath clipPathUnits="userSpaceOnUse" id="clipPath18">
        <path d="M536 895 L536 951 L643 951 L643 895 Z"/>
      </clipPath>
    </defs>
    <g fill="white" text-rendering="geometricPrecision" shape-rendering="geometricPrecision" transform="translate(160,-65)" stroke="white">
      <rect x="-160" width="819" height="902" y="65" clip-path="url(#clipPath2)" stroke="none"/>
    </g>
    <g fill="rgb(255,255,204)" text-rendering="geometricPrecision" shape-rendering="geometricPrecision" transform="matrix(1,0,0,1,160,-65)" stroke="rgb(255,255,204)">
      <rect x="120" width="164" height="102" y="90" clip-path="url(#clipPath2)" stroke="none"/>
      <rect x="119" y="89" clip-path="url(#clipPath2)" fill="white" width="1" height="104" stroke="none"/>
      <rect x="120" y="89" clip-path="url(#clipPath2)" fill="white" width="164" height="1" stroke="none"/>
      <rect x="120" y="192" clip-path="url(#clipPath2)" fill="rgb(178,178,142)" width="165" height="1" stroke="none"/>
      <rect x="284" y="89" clip-path="url(#clipPath2)" fill="rgb(178,178,142)" width="1" height="103" stroke="none"/>
    </g>
    <g font-size="13px" stroke-linecap="butt" transform="matrix(1,0,0,1,160,-65)" text-rendering="geometricPrecision" font-family="'Calibri'" shape-rendering="geometricPrecision" font-weight="bold" stroke-miterlimit="1.45">
      <text x="168.3352" xml:space="preserve" y="104.6875" clip-path="url(#clipPath3)" stroke="none">Competition</text>
    </g>
    <g text-rendering="geometricPrecision" shape-rendering="geometricPrecision" transform="matrix(1,0,0,1,160,-65)">
      <line y2="112" fill="none" x1="120" clip-path="url(#clipPath3)" x2="284" y1="112"/>
      <text stroke-linecap="butt" x="124" y="126.9375" clip-path="url(#clipPath3)" font-family="'Calibri'" stroke="none" stroke-miterlimit="1.45" xml:space="preserve">waId: integer</text>
      <text stroke-linecap="butt" x="124" y="138.9375" clip-path="url(#clipPath3)" font-family="'Calibri'" stroke="none" stroke-miterlimit="1.45" xml:space="preserve">athletes: array &lt;Athlete&gt;</text>
      <text stroke-linecap="butt" x="124" y="150.9375" clip-path="url(#clipPath3)" font-family="'Calibri'" stroke="none" stroke-miterlimit="1.45" xml:space="preserve">relayTeams: array &lt;RelayTeam&gt;</text>
      <text stroke-linecap="butt" x="124" y="162.9375" clip-path="url(#clipPath3)" font-family="'Calibri'" stroke="none" stroke-miterlimit="1.45" xml:space="preserve">venues: array &lt;Venue&gt;</text>
      <text stroke-linecap="butt" x="124" y="174.9375" clip-path="url(#clipPath3)" font-family="'Calibri'" stroke="none" stroke-miterlimit="1.45" xml:space="preserve">units: array &lt;CompetitionUnit&gt;</text>
      <line y2="182" fill="none" x1="120" clip-path="url(#clipPath3)" x2="284" y1="182"/>
      <rect x="-143" y="81" clip-path="url(#clipPath2)" fill="rgb(204,255,204)" width="152" height="121" stroke="none"/>
      <rect x="-144" y="80" clip-path="url(#clipPath2)" fill="white" width="1" height="123" stroke="none"/>
      <rect x="-143" y="80" clip-path="url(#clipPath2)" fill="white" width="152" height="1" stroke="none"/>
      <rect x="-143" y="202" clip-path="url(#clipPath2)" fill="rgb(142,178,142)" width="153" height="1" stroke="none"/>
      <rect x="9" y="80" clip-path="url(#clipPath2)" fill="rgb(142,178,142)" width="1" height="122" stroke="none"/>
    </g>
    <g font-size="13px" stroke-linecap="butt" transform="matrix(1,0,0,1,160,-65)" text-rendering="geometricPrecision" font-family="'Calibri'" shape-rendering="geometricPrecision" font-weight="bold" stroke-miterlimit="1.45">
      <text x="-87.887" xml:space="preserve" y="95.1875" clip-path="url(#clipPath4)" stroke="none">Athlete</text>
    </g>
    <g text-rendering="geometricPrecision" shape-rendering="geometricPrecision" transform="matrix(1,0,0,1,160,-65)">
      <line y2="103" fill="none" x1="-143" clip-path="url(#clipPath4)" x2="8" y1="103"/>
      <text stroke-linecap="butt" x="-139.8125" y="117.4375" clip-path="url(#clipPath4)" font-family="'Calibri'" stroke="none" stroke-miterlimit="1.45" xml:space="preserve">id: integer</text>
      <text stroke-linecap="butt" x="-139.8125" y="129.4375" clip-path="url(#clipPath4)" font-family="'Calibri'" stroke="none" stroke-miterlimit="1.45" xml:space="preserve">waId: integer</text>
      <text stroke-linecap="butt" x="-139.8125" y="141.4375" clip-path="url(#clipPath4)" font-family="'Calibri'" stroke="none" stroke-miterlimit="1.45" xml:space="preserve">firstName: string</text>
      <text stroke-linecap="butt" x="-139.8125" y="153.4375" clip-path="url(#clipPath4)" font-family="'Calibri'" stroke="none" stroke-miterlimit="1.45" xml:space="preserve">lastName: string</text>
      <text stroke-linecap="butt" x="-139.8125" y="165.4375" clip-path="url(#clipPath4)" font-family="'Calibri'" stroke="none" stroke-miterlimit="1.45" xml:space="preserve">birthdate: Date</text>
      <text stroke-linecap="butt" x="-139.8125" y="177.4375" clip-path="url(#clipPath4)" font-family="'Calibri'" stroke="none" stroke-miterlimit="1.45" xml:space="preserve">country: enum</text>
      <text stroke-linecap="butt" x="-139.8125" y="189.4375" clip-path="url(#clipPath4)" font-family="'Calibri'" stroke="none" stroke-miterlimit="1.45" xml:space="preserve">sex: enum</text>
      <line y2="197" fill="none" x1="-143" clip-path="url(#clipPath4)" x2="8" y1="197"/>
      <rect x="-143" y="346" clip-path="url(#clipPath2)" fill="rgb(204,255,255)" width="152" height="79" stroke="none"/>
      <rect x="-144" y="345" clip-path="url(#clipPath2)" fill="white" width="1" height="81" stroke="none"/>
      <rect x="-143" y="345" clip-path="url(#clipPath2)" fill="white" width="152" height="1" stroke="none"/>
      <rect x="-143" y="425" clip-path="url(#clipPath2)" fill="rgb(142,178,178)" width="153" height="1" stroke="none"/>
      <rect x="9" y="345" clip-path="url(#clipPath2)" fill="rgb(142,178,178)" width="1" height="80" stroke="none"/>
    </g>
    <g font-size="13px" stroke-linecap="butt" transform="matrix(1,0,0,1,160,-65)" text-rendering="geometricPrecision" font-family="'Calibri'" shape-rendering="geometricPrecision" font-weight="bold" stroke-miterlimit="1.45">
      <text x="-85.1765" xml:space="preserve" y="360.3375" clip-path="url(#clipPath5)" stroke="none">Venue</text>
    </g>
    <g text-rendering="geometricPrecision" shape-rendering="geometricPrecision" transform="matrix(1,0,0,1,160,-65)">
      <line y2="368" fill="none" x1="-143" clip-path="url(#clipPath5)" x2="8" y1="368"/>
      <text stroke-linecap="butt" x="-139.8125" y="382.5875" clip-path="url(#clipPath5)" font-family="'Calibri'" stroke="none" stroke-miterlimit="1.45" xml:space="preserve">id: integer</text>
      <text stroke-linecap="butt" x="-139.8125" y="394.5875" clip-path="url(#clipPath5)" font-family="'Calibri'" stroke="none" stroke-miterlimit="1.45" xml:space="preserve">waId: integer</text>
      <text stroke-linecap="butt" x="-139.8125" y="406.5875" clip-path="url(#clipPath5)" font-family="'Calibri'" stroke="none" stroke-miterlimit="1.45" xml:space="preserve">name: string</text>
      <text stroke-linecap="butt" x="-139.8125" y="418.5875" clip-path="url(#clipPath5)" font-family="'Calibri'" stroke="none" stroke-miterlimit="1.45" xml:space="preserve">country: enum</text>
      <line y2="426" fill="none" x1="-143" clip-path="url(#clipPath5)" x2="8" y1="426"/>
      <rect x="391" y="93" clip-path="url(#clipPath2)" fill="rgb(255,255,204)" width="143" height="97" stroke="none"/>
      <rect x="390" y="92" clip-path="url(#clipPath2)" fill="white" width="1" height="99" stroke="none"/>
      <rect x="391" y="92" clip-path="url(#clipPath2)" fill="white" width="143" height="1" stroke="none"/>
      <rect x="391" y="190" clip-path="url(#clipPath2)" fill="rgb(178,178,142)" width="144" height="1" stroke="none"/>
      <rect x="534" y="92" clip-path="url(#clipPath2)" fill="rgb(178,178,142)" width="1" height="98" stroke="none"/>
    </g>
    <g font-size="13px" stroke-linecap="butt" transform="matrix(1,0,0,1,160,-65)" text-rendering="geometricPrecision" font-family="'Calibri'" shape-rendering="geometricPrecision" font-weight="bold" stroke-miterlimit="1.45">
      <text x="418.0664" xml:space="preserve" y="107.1875" clip-path="url(#clipPath6)" stroke="none">CompetitionUnit</text>
    </g>
    <g text-rendering="geometricPrecision" shape-rendering="geometricPrecision" transform="matrix(1,0,0,1,160,-65)">
      <line y2="115" fill="none" x1="391" clip-path="url(#clipPath6)" x2="534" y1="115"/>
      <text stroke-linecap="butt" x="395.8125" y="129.4375" clip-path="url(#clipPath6)" font-family="'Calibri'" stroke="none" stroke-miterlimit="1.45" xml:space="preserve">waEventId: integer</text>
      <text stroke-linecap="butt" x="395.8125" y="141.4375" clip-path="url(#clipPath6)" font-family="'Calibri'" stroke="none" stroke-miterlimit="1.45" xml:space="preserve">title: string</text>
      <text stroke-linecap="butt" x="395.8125" y="153.4375" clip-path="url(#clipPath6)" font-family="'Calibri'" stroke="none" stroke-miterlimit="1.45" xml:space="preserve">minAge: integer</text>
      <text stroke-linecap="butt" x="395.8125" y="165.4375" clip-path="url(#clipPath6)" font-family="'Calibri'" stroke="none" stroke-miterlimit="1.45" xml:space="preserve">minAge: integer</text>
      <text stroke-linecap="butt" x="395.8125" y="177.4375" clip-path="url(#clipPath6)" font-family="'Calibri'" stroke="none" stroke-miterlimit="1.45" xml:space="preserve">rounds: array &lt;Round&gt;</text>
      <line y2="185" fill="none" x1="391" clip-path="url(#clipPath6)" x2="534" y1="185"/>
      <rect x="-143" y="222" clip-path="url(#clipPath2)" fill="rgb(204,255,204)" width="152" height="79" stroke="none"/>
      <rect x="-144" y="221" clip-path="url(#clipPath2)" fill="white" width="1" height="81" stroke="none"/>
      <rect x="-143" y="221" clip-path="url(#clipPath2)" fill="white" width="152" height="1" stroke="none"/>
      <rect x="-143" y="301" clip-path="url(#clipPath2)" fill="rgb(142,178,142)" width="153" height="1" stroke="none"/>
      <rect x="9" y="221" clip-path="url(#clipPath2)" fill="rgb(142,178,142)" width="1" height="80" stroke="none"/>
    </g>
    <g font-size="13px" stroke-linecap="butt" transform="matrix(1,0,0,1,160,-65)" text-rendering="geometricPrecision" font-family="'Calibri'" shape-rendering="geometricPrecision" font-weight="bold" stroke-miterlimit="1.45">
      <text x="-97.6147" xml:space="preserve" y="235.9688" clip-path="url(#clipPath7)" stroke="none">RelayTeam</text>
    </g>
    <g text-rendering="geometricPrecision" shape-rendering="geometricPrecision" transform="matrix(1,0,0,1,160,-65)">
      <line y2="244" fill="none" x1="-143" clip-path="url(#clipPath7)" x2="8" y1="244"/>
      <text stroke-linecap="butt" x="-139.8125" y="258.2188" clip-path="url(#clipPath7)" font-family="'Calibri'" stroke="none" stroke-miterlimit="1.45" xml:space="preserve">id: integer</text>
      <text stroke-linecap="butt" x="-139.8125" y="270.2188" clip-path="url(#clipPath7)" font-family="'Calibri'" stroke="none" stroke-miterlimit="1.45" xml:space="preserve">waId: integer</text>
      <text stroke-linecap="butt" x="-139.8125" y="282.2188" clip-path="url(#clipPath7)" font-family="'Calibri'" stroke="none" stroke-miterlimit="1.45" xml:space="preserve">name: string</text>
      <text stroke-linecap="butt" x="-139.8125" y="294.2188" clip-path="url(#clipPath7)" font-family="'Calibri'" stroke="none" stroke-miterlimit="1.45" xml:space="preserve">country: enum</text>
      <line y2="302" fill="none" x1="-143" clip-path="url(#clipPath7)" x2="8" y1="302"/>
      <rect x="391" y="266" clip-path="url(#clipPath2)" fill="rgb(255,255,204)" width="143" height="55" stroke="none"/>
      <rect x="390" y="265" clip-path="url(#clipPath2)" fill="white" width="1" height="57" stroke="none"/>
      <rect x="391" y="265" clip-path="url(#clipPath2)" fill="white" width="143" height="1" stroke="none"/>
      <rect x="391" y="321" clip-path="url(#clipPath2)" fill="rgb(178,178,142)" width="144" height="1" stroke="none"/>
      <rect x="534" y="265" clip-path="url(#clipPath2)" fill="rgb(178,178,142)" width="1" height="56" stroke="none"/>
    </g>
    <g font-size="13px" stroke-linecap="butt" transform="matrix(1,0,0,1,160,-65)" text-rendering="geometricPrecision" font-family="'Calibri'" shape-rendering="geometricPrecision" font-weight="bold" stroke-miterlimit="1.45">
      <text x="445.6946" xml:space="preserve" y="279.9688" clip-path="url(#clipPath8)" stroke="none">Round</text>
    </g>
    <g text-rendering="geometricPrecision" shape-rendering="geometricPrecision" transform="matrix(1,0,0,1,160,-65)">
      <line y2="288" fill="none" x1="391" clip-path="url(#clipPath8)" x2="534" y1="288"/>
      <text stroke-linecap="butt" x="395.8125" y="302.2188" clip-path="url(#clipPath8)" font-family="'Calibri'" stroke="none" stroke-miterlimit="1.45" xml:space="preserve">type: string</text>
      <text stroke-linecap="butt" x="395.8125" y="314.2188" clip-path="url(#clipPath8)" font-family="'Calibri'" stroke="none" stroke-miterlimit="1.45" xml:space="preserve">races: array &lt;Race&gt;</text>
      <line y2="322" fill="none" x1="391" clip-path="url(#clipPath8)" x2="534" y1="322"/>
      <rect x="387" y="384" clip-path="url(#clipPath2)" fill="rgb(255,255,204)" width="152" height="121" stroke="none"/>
      <rect x="386" y="383" clip-path="url(#clipPath2)" fill="white" width="1" height="123" stroke="none"/>
      <rect x="387" y="383" clip-path="url(#clipPath2)" fill="white" width="152" height="1" stroke="none"/>
      <rect x="387" y="505" clip-path="url(#clipPath2)" fill="rgb(178,178,142)" width="153" height="1" stroke="none"/>
      <rect x="539" y="383" clip-path="url(#clipPath2)" fill="rgb(178,178,142)" width="1" height="122" stroke="none"/>
    </g>
    <g font-size="13px" stroke-linecap="butt" transform="matrix(1,0,0,1,160,-65)" text-rendering="geometricPrecision" font-family="'Calibri'" shape-rendering="geometricPrecision" font-weight="bold" stroke-miterlimit="1.45">
      <text x="450.4521" xml:space="preserve" y="398.3375" clip-path="url(#clipPath9)" stroke="none">Race</text>
    </g>
    <g text-rendering="geometricPrecision" shape-rendering="geometricPrecision" transform="matrix(1,0,0,1,160,-65)">
      <line y2="406" fill="none" x1="387" clip-path="url(#clipPath9)" x2="539" y1="406"/>
      <text stroke-linecap="butt" x="391.3125" y="420.5875" clip-path="url(#clipPath9)" font-family="'Calibri'" stroke="none" stroke-miterlimit="1.45" xml:space="preserve">number: integer</text>
      <text stroke-linecap="butt" x="391.3125" y="432.5875" clip-path="url(#clipPath9)" font-family="'Calibri'" stroke="none" stroke-miterlimit="1.45" xml:space="preserve">wind: string</text>
      <text stroke-linecap="butt" x="391.3125" y="444.5875" clip-path="url(#clipPath9)" font-family="'Calibri'" stroke="none" stroke-miterlimit="1.45" xml:space="preserve">oversizedTrack: boolean</text>
      <text stroke-linecap="butt" x="391.3125" y="456.5875" clip-path="url(#clipPath9)" font-family="'Calibri'" stroke="none" stroke-miterlimit="1.45" xml:space="preserve">date: Date</text>
      <text stroke-linecap="butt" x="391.3125" y="468.5875" clip-path="url(#clipPath9)" font-family="'Calibri'" stroke="none" stroke-miterlimit="1.45" xml:space="preserve">startTime: Time</text>
      <text stroke-linecap="butt" x="391.3125" y="480.5875" clip-path="url(#clipPath9)" font-family="'Calibri'" stroke="none" stroke-miterlimit="1.45" xml:space="preserve">endTime: Time</text>
      <text stroke-linecap="butt" x="391.3125" y="492.5875" clip-path="url(#clipPath9)" font-family="'Calibri'" stroke="none" stroke-miterlimit="1.45" xml:space="preserve">results: array &lt;Results&gt;</text>
      <line y2="500" fill="none" x1="387" clip-path="url(#clipPath9)" x2="539" y1="500"/>
      <rect x="387" y="587" clip-path="url(#clipPath2)" fill="rgb(255,204,204)" width="152" height="24" stroke="none"/>
      <rect x="386" y="586" clip-path="url(#clipPath2)" fill="white" width="1" height="26" stroke="none"/>
      <rect x="387" y="586" clip-path="url(#clipPath2)" fill="white" width="152" height="1" stroke="none"/>
      <rect x="387" y="611" clip-path="url(#clipPath2)" fill="rgb(178,142,142)" width="153" height="1" stroke="none"/>
      <rect x="539" y="586" clip-path="url(#clipPath2)" fill="rgb(178,142,142)" width="1" height="25" stroke="none"/>
    </g>
    <g font-size="13px" stroke-linecap="butt" transform="matrix(1,0,0,1,160,-65)" text-rendering="geometricPrecision" font-family="'Calibri'" shape-rendering="geometricPrecision" font-weight="bold" stroke-miterlimit="1.45">
      <text x="443.8569" xml:space="preserve" y="601.1344" clip-path="url(#clipPath10)" stroke="none">Results</text>
    </g>
    <g fill="rgb(255,204,204)" text-rendering="geometricPrecision" shape-rendering="geometricPrecision" transform="matrix(1,0,0,1,160,-65)" stroke="rgb(255,204,204)">
      <rect x="267" width="152" height="131" y="633" clip-path="url(#clipPath2)" stroke="none"/>
      <rect x="266" y="632" clip-path="url(#clipPath2)" fill="white" width="1" height="133" stroke="none"/>
      <rect x="267" y="632" clip-path="url(#clipPath2)" fill="white" width="152" height="1" stroke="none"/>
      <rect x="267" y="764" clip-path="url(#clipPath2)" fill="rgb(178,142,142)" width="153" height="1" stroke="none"/>
      <rect x="419" y="632" clip-path="url(#clipPath2)" fill="rgb(178,142,142)" width="1" height="132" stroke="none"/>
    </g>
    <g font-size="13px" stroke-linecap="butt" transform="matrix(1,0,0,1,160,-65)" text-rendering="geometricPrecision" font-family="'Calibri'" shape-rendering="geometricPrecision" font-weight="bold" stroke-miterlimit="1.45">
      <text x="299.4414" xml:space="preserve" y="647.1344" clip-path="url(#clipPath11)" stroke="none">IndividualResult</text>
    </g>
    <g text-rendering="geometricPrecision" shape-rendering="geometricPrecision" transform="matrix(1,0,0,1,160,-65)">
      <line y2="655" fill="none" x1="267" clip-path="url(#clipPath11)" x2="419" y1="655"/>
      <text stroke-linecap="butt" x="271.0625" y="669.3844" clip-path="url(#clipPath11)" font-family="'Calibri'" stroke="none" stroke-miterlimit="1.45" xml:space="preserve">athleteId: integer</text>
      <text stroke-linecap="butt" x="271.0625" y="681.3844" clip-path="url(#clipPath11)" font-family="'Calibri'" stroke="none" stroke-miterlimit="1.45" xml:space="preserve">wind: string</text>
      <text stroke-linecap="butt" x="271.0625" y="693.3844" clip-path="url(#clipPath11)" font-family="'Calibri'" stroke="none" stroke-miterlimit="1.45" xml:space="preserve">result: string</text>
      <text stroke-linecap="butt" x="271.0625" y="705.3844" clip-path="url(#clipPath11)" font-family="'Calibri'" stroke="none" stroke-miterlimit="1.45" xml:space="preserve">outOfCompetition: boolean</text>
      <text stroke-linecap="butt" x="271.0625" y="717.3844" clip-path="url(#clipPath11)" font-family="'Calibri'" stroke="none" stroke-miterlimit="1.45" xml:space="preserve">placeInRace: integer</text>
      <text stroke-linecap="butt" x="271.0625" y="729.3844" clip-path="url(#clipPath11)" font-family="'Calibri'" stroke="none" stroke-miterlimit="1.45" xml:space="preserve">placeInRound: integer</text>
      <text stroke-linecap="butt" x="271.0625" y="741.3844" clip-path="url(#clipPath11)" font-family="'Calibri'" stroke="none" stroke-miterlimit="1.45" xml:space="preserve">qualified: enum</text>
      <text stroke-linecap="butt" x="271.0625" y="753.3844" clip-path="url(#clipPath11)" font-family="'Calibri'" stroke="none" stroke-miterlimit="1.45" xml:space="preserve">detail: array &lt;DetailResult&gt;</text>
      <line y2="761" fill="none" x1="267" clip-path="url(#clipPath11)" x2="419" y1="761"/>
      <rect x="478" y="633" clip-path="url(#clipPath2)" fill="rgb(255,204,204)" width="152" height="121" stroke="none"/>
      <rect x="477" y="632" clip-path="url(#clipPath2)" fill="white" width="1" height="123" stroke="none"/>
      <rect x="478" y="632" clip-path="url(#clipPath2)" fill="white" width="152" height="1" stroke="none"/>
      <rect x="478" y="754" clip-path="url(#clipPath2)" fill="rgb(178,142,142)" width="153" height="1" stroke="none"/>
      <rect x="630" y="632" clip-path="url(#clipPath2)" fill="rgb(178,142,142)" width="1" height="122" stroke="none"/>
    </g>
    <g font-size="13px" stroke-linecap="butt" transform="matrix(1,0,0,1,160,-65)" text-rendering="geometricPrecision" font-family="'Calibri'" shape-rendering="geometricPrecision" font-weight="bold" stroke-miterlimit="1.45">
      <text x="522.3845" xml:space="preserve" y="647.1344" clip-path="url(#clipPath12)" stroke="none">RelayResult</text>
    </g>
    <g text-rendering="geometricPrecision" shape-rendering="geometricPrecision" transform="matrix(1,0,0,1,160,-65)">
      <line y2="655" fill="none" x1="478" clip-path="url(#clipPath12)" x2="630" y1="655"/>
      <text stroke-linecap="butt" x="482.0625" y="669.3844" clip-path="url(#clipPath12)" font-family="'Calibri'" stroke="none" stroke-miterlimit="1.45" xml:space="preserve">relayTeamId: integer</text>
      <text stroke-linecap="butt" x="482.0625" y="681.3844" clip-path="url(#clipPath12)" font-family="'Calibri'" stroke="none" stroke-miterlimit="1.45" xml:space="preserve">legs: array &lt;integer&gt;</text>
      <text stroke-linecap="butt" x="482.0625" y="693.3844" clip-path="url(#clipPath12)" font-family="'Calibri'" stroke="none" stroke-miterlimit="1.45" xml:space="preserve">result: string</text>
      <text stroke-linecap="butt" x="482.0625" y="705.3844" clip-path="url(#clipPath12)" font-family="'Calibri'" stroke="none" stroke-miterlimit="1.45" xml:space="preserve">outOfCompetition: boolean</text>
      <text stroke-linecap="butt" x="482.0625" y="717.3844" clip-path="url(#clipPath12)" font-family="'Calibri'" stroke="none" stroke-miterlimit="1.45" xml:space="preserve">placeInRace: integer</text>
      <text stroke-linecap="butt" x="482.0625" y="729.3844" clip-path="url(#clipPath12)" font-family="'Calibri'" stroke="none" stroke-miterlimit="1.45" xml:space="preserve">placeInRound: integer</text>
      <text stroke-linecap="butt" x="482.0625" y="741.3844" clip-path="url(#clipPath12)" font-family="'Calibri'" stroke="none" stroke-miterlimit="1.45" xml:space="preserve">qualified: string</text>
      <line y2="749" fill="none" x1="478" clip-path="url(#clipPath12)" x2="630" y1="749"/>
      <rect x="267" y="831" clip-path="url(#clipPath2)" fill="rgb(255,204,204)" width="152" height="24" stroke="none"/>
      <rect x="266" y="830" clip-path="url(#clipPath2)" fill="white" width="1" height="26" stroke="none"/>
      <rect x="267" y="830" clip-path="url(#clipPath2)" fill="white" width="152" height="1" stroke="none"/>
      <rect x="267" y="855" clip-path="url(#clipPath2)" fill="rgb(178,142,142)" width="153" height="1" stroke="none"/>
      <rect x="419" y="830" clip-path="url(#clipPath2)" fill="rgb(178,142,142)" width="1" height="25" stroke="none"/>
    </g>
    <g font-size="13px" stroke-linecap="butt" transform="matrix(1,0,0,1,160,-65)" text-rendering="geometricPrecision" font-family="'Calibri'" shape-rendering="geometricPrecision" font-weight="bold" stroke-miterlimit="1.45">
      <text x="303.415" xml:space="preserve" y="845.6844" clip-path="url(#clipPath13)" stroke="none">DetailedResult</text>
    </g>
    <g fill="rgb(255,204,204)" text-rendering="geometricPrecision" shape-rendering="geometricPrecision" transform="matrix(1,0,0,1,160,-65)" stroke="rgb(255,204,204)">
      <rect x="-135" width="181" height="54" y="896" clip-path="url(#clipPath2)" stroke="none"/>
      <rect x="-136" y="895" clip-path="url(#clipPath2)" fill="white" width="1" height="56" stroke="none"/>
      <rect x="-135" y="895" clip-path="url(#clipPath2)" fill="white" width="181" height="1" stroke="none"/>
      <rect x="-135" y="950" clip-path="url(#clipPath2)" fill="rgb(178,142,142)" width="182" height="1" stroke="none"/>
      <rect x="46" y="895" clip-path="url(#clipPath2)" fill="rgb(178,142,142)" width="1" height="55" stroke="none"/>
    </g>
    <g font-size="13px" stroke-linecap="butt" transform="matrix(1,0,0,1,160,-65)" text-rendering="geometricPrecision" font-family="'Calibri'" shape-rendering="geometricPrecision" font-weight="bold" stroke-miterlimit="1.45">
      <text x="-125.8162" xml:space="preserve" y="909.8469" clip-path="url(#clipPath14)" stroke="none">DetailOutdoorHorizontalJump</text>
    </g>
    <g text-rendering="geometricPrecision" shape-rendering="geometricPrecision" transform="matrix(1,0,0,1,160,-65)">
      <line y2="918" fill="none" x1="-135" clip-path="url(#clipPath14)" x2="46" y1="918"/>
      <text stroke-linecap="butt" x="-131.125" y="932.0969" clip-path="url(#clipPath14)" font-family="'Calibri'" stroke="none" stroke-miterlimit="1.45" xml:space="preserve">result: string</text>
      <text stroke-linecap="butt" x="-131.125" y="944.0969" clip-path="url(#clipPath14)" font-family="'Calibri'" stroke="none" stroke-miterlimit="1.45" xml:space="preserve">wind: string</text>
      <line y2="952" fill="none" x1="-135" clip-path="url(#clipPath14)" x2="46" y1="952"/>
      <rect x="63" y="907" clip-path="url(#clipPath2)" fill="rgb(255,204,204)" width="172" height="43" stroke="none"/>
      <rect x="62" y="906" clip-path="url(#clipPath2)" fill="white" width="1" height="45" stroke="none"/>
      <rect x="63" y="906" clip-path="url(#clipPath2)" fill="white" width="172" height="1" stroke="none"/>
      <rect x="63" y="950" clip-path="url(#clipPath2)" fill="rgb(178,142,142)" width="173" height="1" stroke="none"/>
      <rect x="235" y="906" clip-path="url(#clipPath2)" fill="rgb(178,142,142)" width="1" height="44" stroke="none"/>
    </g>
    <g font-size="13px" stroke-linecap="butt" transform="matrix(1,0,0,1,160,-65)" text-rendering="geometricPrecision" font-family="'Calibri'" shape-rendering="geometricPrecision" font-weight="bold" stroke-miterlimit="1.45">
      <text x="73.4875" xml:space="preserve" y="921.0969" clip-path="url(#clipPath15)" stroke="none">DetailIndoorHorizontalJump</text>
    </g>
    <g text-rendering="geometricPrecision" shape-rendering="geometricPrecision" transform="matrix(1,0,0,1,160,-65)">
      <line y2="929" fill="none" x1="63" clip-path="url(#clipPath15)" x2="236" y1="929"/>
      <text stroke-linecap="butt" x="67.6375" y="943.3469" clip-path="url(#clipPath15)" font-family="'Calibri'" stroke="none" stroke-miterlimit="1.45" xml:space="preserve">result: string</text>
      <line y2="951" fill="none" x1="63" clip-path="url(#clipPath15)" x2="236" y1="951"/>
      <rect x="268" y="896" clip-path="url(#clipPath2)" fill="rgb(255,204,204)" width="120" height="54" stroke="none"/>
      <rect x="267" y="895" clip-path="url(#clipPath2)" fill="white" width="1" height="56" stroke="none"/>
      <rect x="268" y="895" clip-path="url(#clipPath2)" fill="white" width="120" height="1" stroke="none"/>
      <rect x="268" y="950" clip-path="url(#clipPath2)" fill="rgb(178,142,142)" width="121" height="1" stroke="none"/>
      <rect x="388" y="895" clip-path="url(#clipPath2)" fill="rgb(178,142,142)" width="1" height="55" stroke="none"/>
    </g>
    <g font-size="13px" stroke-linecap="butt" transform="matrix(1,0,0,1,160,-65)" text-rendering="geometricPrecision" font-family="'Calibri'" shape-rendering="geometricPrecision" font-weight="bold" stroke-miterlimit="1.45">
      <text x="277.621" xml:space="preserve" y="909.8469" clip-path="url(#clipPath16)" stroke="none">DetailVerticalJump</text>
    </g>
    <g text-rendering="geometricPrecision" shape-rendering="geometricPrecision" transform="matrix(1,0,0,1,160,-65)">
      <line y2="918" fill="none" x1="268" clip-path="url(#clipPath16)" x2="389" y1="918"/>
      <text stroke-linecap="butt" x="272.4875" y="932.0969" clip-path="url(#clipPath16)" font-family="'Calibri'" stroke="none" stroke-miterlimit="1.45" xml:space="preserve">height: string</text>
      <text stroke-linecap="butt" x="272.4875" y="944.0969" clip-path="url(#clipPath16)" font-family="'Calibri'" stroke="none" stroke-miterlimit="1.45" xml:space="preserve">attempts: string</text>
      <line y2="952" fill="none" x1="268" clip-path="url(#clipPath16)" x2="389" y1="952"/>
      <rect x="415" y="907" clip-path="url(#clipPath2)" fill="rgb(255,204,204)" width="95" height="43" stroke="none"/>
      <rect x="414" y="906" clip-path="url(#clipPath2)" fill="white" width="1" height="45" stroke="none"/>
      <rect x="415" y="906" clip-path="url(#clipPath2)" fill="white" width="95" height="1" stroke="none"/>
      <rect x="415" y="950" clip-path="url(#clipPath2)" fill="rgb(178,142,142)" width="96" height="1" stroke="none"/>
      <rect x="510" y="906" clip-path="url(#clipPath2)" fill="rgb(178,142,142)" width="1" height="44" stroke="none"/>
    </g>
    <g font-size="13px" stroke-linecap="butt" transform="matrix(1,0,0,1,160,-65)" text-rendering="geometricPrecision" font-family="'Calibri'" shape-rendering="geometricPrecision" font-weight="bold" stroke-miterlimit="1.45">
      <text x="429.9333" xml:space="preserve" y="921.0969" clip-path="url(#clipPath17)" stroke="none">DetailThrow</text>
    </g>
    <g text-rendering="geometricPrecision" shape-rendering="geometricPrecision" transform="matrix(1,0,0,1,160,-65)">
      <line y2="929" fill="none" x1="415" clip-path="url(#clipPath17)" x2="511" y1="929"/>
      <text stroke-linecap="butt" x="419.4375" y="943.3469" clip-path="url(#clipPath17)" font-family="'Calibri'" stroke="none" stroke-miterlimit="1.45" xml:space="preserve">result: string</text>
      <line y2="951" fill="none" x1="415" clip-path="url(#clipPath17)" x2="511" y1="951"/>
      <rect x="537" y="896" clip-path="url(#clipPath2)" fill="rgb(255,204,204)" width="105" height="54" stroke="none"/>
      <rect x="536" y="895" clip-path="url(#clipPath2)" fill="white" width="1" height="56" stroke="none"/>
      <rect x="537" y="895" clip-path="url(#clipPath2)" fill="white" width="105" height="1" stroke="none"/>
      <rect x="537" y="950" clip-path="url(#clipPath2)" fill="rgb(178,142,142)" width="106" height="1" stroke="none"/>
      <rect x="642" y="895" clip-path="url(#clipPath2)" fill="rgb(178,142,142)" width="1" height="55" stroke="none"/>
    </g>
    <g font-size="13px" stroke-linecap="butt" transform="matrix(1,0,0,1,160,-65)" text-rendering="geometricPrecision" font-family="'Calibri'" shape-rendering="geometricPrecision" font-weight="bold" stroke-miterlimit="1.45">
      <text x="545.9512" xml:space="preserve" y="909.8469" clip-path="url(#clipPath18)" stroke="none">DetailSplitTimes</text>
    </g>
    <g text-rendering="geometricPrecision" shape-rendering="geometricPrecision" transform="matrix(1,0,0,1,160,-65)">
      <line y2="918" fill="none" x1="537" clip-path="url(#clipPath18)" x2="642" y1="918"/>
      <text stroke-linecap="butt" x="541.3875" y="932.0969" clip-path="url(#clipPath18)" font-family="'Calibri'" stroke="none" stroke-miterlimit="1.45" xml:space="preserve">distance: string</text>
      <text stroke-linecap="butt" x="541.3875" y="944.0969" clip-path="url(#clipPath18)" font-family="'Calibri'" stroke="none" stroke-miterlimit="1.45" xml:space="preserve">result: string</text>
      <line y2="952" fill="none" x1="537" clip-path="url(#clipPath18)" x2="642" y1="952"/>
      <path fill="none" stroke-miterlimit="1.45" d="M118.9681 141.9375 L17.2071 141.9375" clip-path="url(#clipPath2)" stroke-linecap="butt"/>
      <path stroke-miterlimit="1.45" d="M9.2071 141.9375 L21.2071 146.9375 L18.2071 141.9375 L21.2071 136.9375 Z" clip-path="url(#clipPath2)" stroke-linecap="butt" stroke="none"/>
      <text stroke-linecap="butt" x="16.1875" y="116.6514" clip-path="url(#clipPath2)" font-family="sans-serif" stroke="none" stroke-miterlimit="1.45" xml:space="preserve">athletes</text>
    </g>
    <g stroke-linecap="butt" transform="matrix(1,0,0,1,160,-65)" fill="white" text-rendering="geometricPrecision" shape-rendering="geometricPrecision" stroke="white" stroke-miterlimit="1.45">
      <rect x="27.5287" width="22.0117" height="18.7012" y="132.5869" clip-path="url(#clipPath2)" stroke="none"/>
      <text x="29.5287" y="146.6514" clip-path="url(#clipPath2)" fill="black" font-family="sans-serif" stroke="none" xml:space="preserve">1..*</text>
      <path fill="none" d="M144.5265 193.9445 L-17.1162 340.2131" clip-path="url(#clipPath2)" stroke="black"/>
      <path fill="black" d="M-23.0482 345.5808 L-10.7955 341.2367 L-16.3748 339.5421 L-17.5051 333.8218 Z" clip-path="url(#clipPath2)" stroke="none"/>
      <text x="16.1875" y="337.7425" clip-path="url(#clipPath2)" fill="black" font-family="sans-serif" stroke="none" xml:space="preserve">venues</text>
      <rect x="2.1129" width="22.0117" height="18.7012" y="303.5032" clip-path="url(#clipPath2)" stroke="none"/>
      <text x="4.1129" y="317.5676" clip-path="url(#clipPath2)" fill="black" font-family="sans-serif" stroke="none" xml:space="preserve">1..*</text>
      <path fill="none" d="M285.0318 141.9375 L382.8424 141.9375" clip-path="url(#clipPath2)" stroke="black"/>
      <path fill="black" d="M390.8424 141.9375 L378.8424 136.9375 L381.8424 141.9375 L378.8424 146.9375 Z" clip-path="url(#clipPath2)" stroke="none"/>
      <rect x="356.4648" width="29.3477" height="18.7012" y="102.5869" clip-path="url(#clipPath2)" stroke="none"/>
      <text x="358.4648" y="116.6514" clip-path="url(#clipPath2)" fill="black" font-family="sans-serif" stroke="none" xml:space="preserve">units</text>
      <rect x="348.6979" width="22.0117" height="18.7012" y="132.5869" clip-path="url(#clipPath2)" stroke="none"/>
      <text x="350.6979" y="146.6514" clip-path="url(#clipPath2)" fill="black" font-family="sans-serif" stroke="none" xml:space="preserve">1..*</text>
      <path fill="none" d="M118.9681 178.7989 L16.519 224.2804" clip-path="url(#clipPath2)" stroke="black"/>
      <path fill="black" d="M9.2071 227.5265 L22.2037 227.2273 L17.433 223.8746 L18.1461 218.0875 Z" clip-path="url(#clipPath2)" stroke="none"/>
      <text x="16.1875" y="248.0509" clip-path="url(#clipPath2)" fill="black" font-family="sans-serif" stroke="none" xml:space="preserve">relayTeams</text>
      <rect x="24.0843" width="22.0117" height="18.7012" y="206.6853" clip-path="url(#clipPath2)" stroke="none"/>
      <text x="26.0843" y="220.7498" clip-path="url(#clipPath2)" fill="black" font-family="sans-serif" stroke="none" xml:space="preserve">1..*</text>
      <path fill="none" d="M463.3125 191.4072 L463.3125 257.1934" clip-path="url(#clipPath2)" stroke="black"/>
      <path fill="black" d="M463.3125 265.1934 L468.3125 253.1934 L463.3125 256.1934 L458.3125 253.1934 Z" clip-path="url(#clipPath2)" stroke="none"/>
      <rect x="412.9668" width="40.6914" height="18.7012" y="241.5176" clip-path="url(#clipPath2)" stroke="none"/>
      <text x="414.9668" y="255.582" clip-path="url(#clipPath2)" fill="black" font-family="sans-serif" stroke="none" xml:space="preserve">rounds</text>
      <rect x="452.3066" width="22.0117" height="18.7012" y="218.9775" clip-path="url(#clipPath2)" stroke="none"/>
      <text x="454.3066" y="233.042" clip-path="url(#clipPath2)" fill="black" font-family="sans-serif" stroke="none" xml:space="preserve">1..*</text>
      <path fill="none" d="M463.3125 322.2112 L463.3125 375.5594" clip-path="url(#clipPath2)" stroke="black"/>
      <path fill="black" d="M463.3125 383.5594 L468.3125 371.5594 L463.3125 374.5594 L458.3125 371.5594 Z" clip-path="url(#clipPath2)" stroke="none"/>
      <text x="418.6406" y="373.9508" clip-path="url(#clipPath2)" fill="black" font-family="sans-serif" stroke="none" xml:space="preserve">races</text>
      <rect x="452.3066" width="22.0117" height="18.7012" y="343.5525" clip-path="url(#clipPath2)" stroke="none"/>
      <text x="454.3066" y="357.617" clip-path="url(#clipPath2)" fill="black" font-family="sans-serif" stroke="none" xml:space="preserve">1..*</text>
      <path fill="none" d="M463.3125 506.6028 L463.3125 578.3823" clip-path="url(#clipPath2)" stroke="black"/>
      <path fill="black" d="M463.3125 586.3823 L468.3125 574.3823 L463.3125 577.3823 L458.3125 574.3823 Z" clip-path="url(#clipPath2)" stroke="none"/>
      <text x="415.6406" y="576.7477" clip-path="url(#clipPath2)" fill="black" font-family="sans-serif" stroke="none" xml:space="preserve">results</text>
      <rect x="452.3066" width="22.0117" height="18.7012" y="537.1354" clip-path="url(#clipPath2)" stroke="none"/>
      <text x="454.3066" y="551.1998" clip-path="url(#clipPath2)" fill="black" font-family="sans-serif" stroke="none" xml:space="preserve">1..*</text>
      <path fill="none" d="M420.0683 635.1665 L436.0248 621.9633" clip-path="url(#clipPath2)" stroke="black"/>
      <path d="M447.5816 612.4008 L431.4294 617.9781 L439.0794 627.2235 Z" clip-path="url(#clipPath2)" stroke="none"/>
      <path fill="none" d="M447.5816 612.4008 L431.4294 617.9781 L439.0794 627.2235 Z" clip-path="url(#clipPath2)" stroke="black"/>
      <path fill="none" d="M495.0174 632.3994 L486.1799 623.1967" clip-path="url(#clipPath2)" stroke="black"/>
      <path d="M475.7901 612.3776 L482.5449 628.0739 L491.2002 619.762 Z" clip-path="url(#clipPath2)" stroke="none"/>
      <path fill="none" d="M475.7901 612.3776 L482.5449 628.0739 L491.2002 619.762 Z" clip-path="url(#clipPath2)" stroke="black"/>
      <path fill="none" d="M343.0625 765.3538 L343.0625 822.9271" clip-path="url(#clipPath2)" stroke="black"/>
      <path fill="black" d="M343.0625 830.9271 L348.0625 818.9271 L343.0625 821.9271 L338.0625 818.9271 Z" clip-path="url(#clipPath2)" stroke="none"/>
      <text x="298.7188" y="821.2977" clip-path="url(#clipPath2)" fill="black" font-family="sans-serif" stroke="none" xml:space="preserve">detail</text>
      <rect x="332.0566" width="22.0117" height="18.7012" y="788.8088" clip-path="url(#clipPath2)" stroke="none"/>
      <text x="334.0566" y="802.8732" clip-path="url(#clipPath2)" fill="black" font-family="sans-serif" stroke="none" xml:space="preserve">0..*</text>
      <path fill="none" d="M47.462 904.5692 L264.9688 859.9532" clip-path="url(#clipPath2)" stroke="black"/>
      <path d="M279.6628 856.9391 L262.7835 854.2766 L265.1948 866.0318 Z" clip-path="url(#clipPath2)" stroke="none"/>
      <path fill="none" d="M279.6628 856.9391 L262.7835 854.2766 L265.1948 866.0318 Z" clip-path="url(#clipPath2)" stroke="black"/>
      <path fill="none" d="M201.493 906.3478 L299.855 862.9832" clip-path="url(#clipPath2)" stroke="black"/>
      <path d="M313.5804 856.9321 L296.5196 857.8964 L301.3604 868.8767 Z" clip-path="url(#clipPath2)" stroke="none"/>
      <path fill="none" d="M313.5804 856.9321 L296.5196 857.8964 L301.3604 868.8767 Z" clip-path="url(#clipPath2)" stroke="black"/>
      <path fill="none" d="M333.9171 895.1116 L338.0973 871.7197" clip-path="url(#clipPath2)" stroke="black"/>
      <path d="M340.736 856.9536 L332.0149 871.6486 L343.8278 873.7595 Z" clip-path="url(#clipPath2)" stroke="none"/>
      <path fill="none" d="M340.736 856.9536 L332.0149 871.6486 L343.8278 873.7595 Z" clip-path="url(#clipPath2)" stroke="black"/>
      <path fill="none" d="M431.283 906.3582 L373.6793 865.5984" clip-path="url(#clipPath2)" stroke="black"/>
      <path d="M361.4346 856.9343 L371.0299 871.0739 L377.9612 861.2782 Z" clip-path="url(#clipPath2)" stroke="none"/>
      <path fill="none" d="M361.4346 856.9343 L371.0299 871.0739 L377.9612 861.2782 Z" clip-path="url(#clipPath2)" stroke="black"/>
      <path fill="none" d="M536.3954 906.16 L397.6975 861.519" clip-path="url(#clipPath2)" stroke="black"/>
      <path d="M383.4189 856.9233 L396.8112 867.5369 L400.4877 856.114 Z" clip-path="url(#clipPath2)" stroke="none"/>
      <path fill="none" d="M383.4189 856.9233 L396.8112 867.5369 L400.4877 856.114 Z" clip-path="url(#clipPath2)" stroke="black"/>
    </g>
  </g>
</svg>
